<?xml version="1.0" encoding="utf-8"?>
<!-- Generator: Adobe Illustrator 19.0.0, SVG Export Plug-In . SVG Version: 6.00 Build 0)  -->
<svg version="1.1" id="Layer_3" xmlns="http://www.w3.org/2000/svg" xmlns:xlink="http://www.w3.org/1999/xlink" x="0px" y="0px"
	 viewBox="0 0 813 315" style="enable-background:new 0 0 813 315;" xml:space="preserve">
<style type="text/css">
	.st0{clip-path:url(#SVGID_2_);}
	.st1{fill:#D3232B;}
	.st2{fill:#232323;}
	.st3{fill:#FFFFFF;}
</style>
<g>
	<defs>
		<polyline id="SVGID_1_" points="812,315.5 -5.2,315.5 -5.2,-22.4 812,-22.4 812,315.5 		"/>
	</defs>
	<clipPath id="SVGID_2_">
		<use xlink:href="#SVGID_1_"  style="overflow:visible;"/>
	</clipPath>
	<g class="st0">
		<g>
			<path class="st1" d="M663.4,7.5c-5.3,0-11.4,2.6-12.4,8.4c0,0.8-0.1,1.2-0.1,2c0.3,6.1,3.6,10.6,7.3,15.1
				c5.2,6.4,9.4,12.7,12.4,20.4c14.5-3.1,29.2-11.9,33.4-27.1c1.2-7.3-3-15.6-10.8-16.8c-0.8-0.1-1.6-0.2-2.4-0.2c-0.3,0-0.6,0-1,0
				c-4.7,0-8.8,2.1-12.4,5.1c-2.7-4.1-6.5-6.4-11.4-6.8c-0.8-0.1-1.6-0.1-2.5-0.1C663.5,7.5,663.5,7.5,663.4,7.5"/>
			<path class="st2" d="M72.6,24.9c-0.8,0-1.7,0.1-2.6,0.2C48.6,28,34.5,54.3,26,71.5C15.3,92.9,6.5,117.1,4.4,140.9
				c-2.1,24.2,4.4,56.7,32.9,56.7c1.9,0,3.8-0.1,5.9-0.4c28.1-4,44.1-41.5,45.5-66c0.2-3.9,0.5-13.7-5.5-13.7c-0.2,0-0.5,0-0.7,0
				c-1.5,0.2-4,0.7-4,0.7c-4.5,22.2-15,58-41.6,61.9c-0.9,0.1-1.7,0.2-2.5,0.2c-14.9,0-15.5-21.7-14.7-32.4
				c1.9-24.5,11.2-49.3,22.3-71.4c4.6-9.2,9.6-18.2,15.8-26.4c3.1-4.1,7.5-10.3,12.8-11.1c0.3,0,0.6-0.1,0.9-0.1
				c3.3,0,6.3,2.8,6,6.4c-2.2,14.8-8.5,29-16.7,41.4c1.2,3.7,5.2,9.9,9.1,9.9c0.2,0,0.3,0,0.5,0c5.4-0.7,10.4-10.3,13.1-15.2
				c4.9-8.7,9.1-18.7,9.6-28.5C93.6,41.1,86.6,24.9,72.6,24.9"/>
			<path class="st2" d="M712.2,126.1c-0.1,0-0.3,0-0.4,0c-3-0.3-5.1-3.3-5.9-6.2c1.5-15.2,5.2-30.3,10.6-44.5c1-2.7,2.1-3.6,2.8-3.6
				c0.1,0,0.1,0,0.2,0c3.1,0.8,3.2,8,3.4,10.7c0.7,9.7,0.3,20.1-2.1,29.8C719.8,116.2,717.5,126.1,712.2,126.1 M590.3,161.5
				c-0.2,0-0.4,0-0.6,0c-4.8-0.6-5.4-10.5-5.5-14.9c-0.7-17.6,1.7-35.9,6.3-52.9c2.1-7.7,7.6-28.8,18.1-28.8c0.3,0,0.6,0,0.9,0.1
				c3.5,0.4,4.3,5.1,4.3,8c0.2,7.8-2.4,15.6-4.4,23.2c2.1,2.4,3.7,4.2,6.9,4.9c0.1,11.3-4.7,23.8-8.6,34.2
				C605.2,141.8,598.3,161.5,590.3,161.5 M418.5,3.2c-2.1,0-3.8,0.6-4.4,2.2c-5.8,15.2-7.8,35.8-10.7,53.9
				c-3.3,20.6-6.5,41.6-6.4,62.3c0.1,23.5,6.6,52.8,35.4,53.1c0.1,0,0.2,0,0.3,0c14.3,0,28-9.4,31.3-23.7c2.6,6.8,6.6,15.8,15.1,16
				c0.2,0,0.3,0,0.5,0c5.6,0,10.8-2.4,14.5-6.6c1.5,5.5,5.1,11,11.3,11.2c0.1,0,0.2,0,0.3,0c4.5,0,7.3-3,7.3-3
				c-0.8-25.5,8.6-53.8,18.8-76.8c1.1,0.1,1.6,0.1,2.7,0.1c-2.4,14.1-4.9,29-4.5,43.3c0.3,13.4,3.6,33.8,20.6,34.7
				c0.4,0,0.7,0,1.1,0c8.6,0,16-5.4,20.1-12.8c4.1,10.3,12,19.8,23.8,20.6c0.3,0,0.5,0,0.8,0c10.2,0,17.1-13.1,19.8-21.3
				c0.3,0,0.4,0,0.7,0.1c0.4,9,7.2,16.8,16.3,17.6c0.5,0,0.9,0.1,1.4,0.1c6.2,0,11.6-3.7,15.2-8.6c2.7,9,9.5,15.8,18.9,16.5
				c0.9,0.1,1.8,0.1,2.7,0.1c8.4,0,16.2-3,21.4-10.5c5.8,12.3,16.9,23,30.9,24.7c1.1,0.1,2.1,0.2,3.1,0.2c11.6,0,20.5-8.2,25.1-18.7
				c7.6,9.3,17.5,18.2,29.9,20c1.6,0.2,3.2,0.4,4.6,0.4c16.7,0,22.6-15,21.4-31c-2-26.2-23.5-49.6-45.7-62.6
				c-0.1-0.4-0.2-0.5-0.3-0.9c5.4-4.1,15.2-7.5,22.2-7.5c0.3,0,0.6,0,0.9,0c2.6,1.7,3.4,6,5.6,6.7c0.4,0.1,0.8,0.2,1.3,0.2
				c6.1,0,18.1-10.5,17.2-17.7c-0.5-3.8-4.7-10.3-8.1-10.9c-0.9-0.1-1.8-0.2-2.8-0.2c-7.8,0-18.7,4.4-26.9,7
				c-5.9,1.8-24.9,6.3-25.3,13.6c-0.4,5.7,2.5,13.2,7.1,17.6c19.3,5,37.1,26,38.9,45.7c1.1,11.6-3.4,22.5-15.4,22.5
				c-1,0-2.1-0.1-3.2-0.2c-7.7-1.1-17-8.4-16.9-15c0.1-7,9-17.9,7.4-25.2c-0.8-3.6-6.8-8.7-10.6-9.5c-0.4-0.1-0.8-0.1-1.1-0.1
				c-7.8,0-10.6,18.1-10.2,24c0.1,1.6,0.4,3.2,0.8,4.9c-3.9,8.8-11.6,18.9-22,18.9c-0.6,0-1.3,0-1.9-0.1
				c-10.7-1.2-16.2-9.8-16.7-19.9c-0.6-9.6-0.4-19.7,2-29.1c2.5,5.5,7.5,10,13.6,10.8c0.8,0.1,1.6,0.1,2.3,0.1
				c21.1,0,20-37.8,18.9-51c-1-11.7-6-27.5-20-29.2c-0.5-0.1-1-0.1-1.4-0.1c-13,0-19.8,22-22.7,31.4c-5.7,18.5-8.5,38.7-7.3,58
				c0.2,2.4,0.5,4.6,0.8,6.9c-1.8,6.1-5.8,13.6-12.7,13.6c-0.4,0-0.9,0-1.3-0.1c-5.5-0.7-7.2-8.2-7.5-12.8
				c-0.7-12.3,1.3-25.2,3.2-37.4c2.3-15.1,5.5-30.5,8.3-45.2c1.3-6.7-12-9.2-16.5-9.8c-0.2,0-0.5,0-0.7,0c-1.3,0-2.6,0.5-3.1,2.5
				c-5.9,26.7-10.4,55.7-10,83.2c-1.6,3.9-3.8,9.7-8.7,9.7c-0.1,0-0.3,0-0.4,0c-5.7-0.4-7.8-6.3-8-11.2c-0.6-21.4,3-43.7,4.9-65.1
				c2.1-23.3,4.5-47.4,6.8-70c0.6-6.2-10.5-8.4-14.9-8.8c-0.1,0-0.2,0-0.3,0c-1,0-2.7,0.4-2.9,4.1c-1.1,17-2.4,34.4-4.6,51.4
				c-3.4-3.2-7.8-5.9-12.6-6.3c-0.7-0.1-1.4-0.1-2-0.1c-15.3,0-24.9,15.1-29.9,28.1c-6.2,15.9-8.9,33.8-8.1,50.6
				c0.2,3.9,0.7,7.9,1.3,11.8c-1.8,4.6-5.2,11.1-10.9,11.1c-0.1,0-0.2,0-0.3,0c-8.3-0.3-9.6-10.9-9.8-17.2
				c-0.5-27,9.7-52.7,10.9-79.6c0.3-7.4-9.7-11.5-15.8-11.9c-0.4,0-0.9-0.1-1.3-0.1c-1.5,0-2.8,0.3-3.4,1.8
				c-11.5,23.5-19.2,48.4-27.3,73.1c-0.4,0-0.5,0-0.9,0c-0.1-21.3,4.8-42.3,7.3-63c0.5-4.3-3.6-6.2-7.2-6.2c0,0-0.1,0-0.1,0
				c-10.5,0-13.1,22-14.2,28.9c-3.2,20.3-3.5,41.1-3.1,61.5c0,1.2,0.1,2.3,0.1,3.4c-2,3.7-5.6,6.2-9.8,6.2c-0.1,0-0.2,0-0.2,0
				c-11.1-0.2-9.5-18.9-9.2-25.8c1.6-38,7.5-76.2,10.5-114.3c-3.4-3.4-9-5.5-13.6-5.9c-0.2,0-0.4,0-0.6,0c-3.4,0-4.8,3.1-4.8,6.1
				c-0.3,33.4-5.3,73.7-11.9,109.9c-2.4,13.3-6.8,38.1-24.7,38.1c0,0-0.1,0-0.1,0c-13.4-0.1-14.2-17.8-14.3-27.3
				c-0.2-21.5,3.3-43.4,6.9-64.7c3.3-20,7-40.1,12.4-59.7C430.6,6.4,423.4,3.2,418.5,3.2"/>
			<path class="st3" d="M675.3,227c-4.1,0-8,2.4-8.1,7c0,4.3,2.3,7.6,4.9,10.9c2.2,2.5,3.3,3.8,5.4,6.3c1.4,1.8,2.1,3.3,2.1,5.3
				c0,2-1.1,3-2.5,3c-0.1,0-0.3,0-0.4,0c-1.7-0.2-2.9-1.5-2.9-3.8c0-1.4,0-2,0-3.4c-2.6-0.4-3.9-0.5-6.6-0.9c0,1.5,0,2.3,0,3.8
				c0,5.3,4.6,8.8,9.5,9.5c0.5,0.1,1,0.1,1.5,0.1c4.1,0,8.1-2.4,8.1-7c0-3.8-1.8-7.1-4.2-9.9c-2.2-2.8-4.3-5.6-6.5-8.4
				c-1.5-1.9-1.8-3.2-1.8-4.8c0-1.5,1-2.5,2.5-2.5c0.1,0,0.3,0,0.5,0c1.6,0.2,2.9,1.8,2.9,4.4c0,0.6,0,0.9,0,1.5
				c2.6,0.4,3.9,0.5,6.5,0.9c0-1,0-1.5,0-2.6c0-5.2-4.6-8.8-9.4-9.5C676.3,227,675.8,227,675.3,227 M167,224.1
				c-2.4,0.3-3.6,0.5-6.1,0.8c-1.4,9.2-2.9,18.5-4.3,27.7l-0.2,0c-1.4-8.9-2.8-17.8-4.2-26.6c-2.5,0.3-3.8,0.5-6.4,0.8
				c-1.4,9.3-2.9,18.5-4.3,27.8l-0.2,0c-1.4-8.9-2.8-17.7-4.2-26.6c-2.6,0.4-3.8,0.5-6.4,0.9c2.5,11.9,4.9,23.8,7.4,35.6
				c2.5-0.4,3.8-0.5,6.4-0.9c1.4-7.4,2.9-14.8,4.3-22.2c1.4,7,2.9,14,4.3,21.1c2.5-0.3,3.8-0.5,6.4-0.8
				C162.1,249.2,164.5,236.6,167,224.1 M653.1,224c-4.1,0-8.2,2.5-8.2,7.1c0,4.3,2.3,7.6,4.9,10.9c2.2,2.5,3.3,3.8,5.4,6.3
				c1.4,1.7,2.1,3.3,2.1,5.3c0,2-1.1,3-2.5,3c-0.1,0-0.3,0-0.4,0c-1.7-0.2-2.9-1.5-2.9-3.7c0-1.4,0-2,0-3.4
				c-2.6-0.3-3.9-0.5-6.6-0.8c0,1.5,0,2.3,0,3.8c0,5.3,4.7,8.8,9.5,9.4c0.5,0.1,0.9,0.1,1.4,0.1c4.2,0,8.3-2.4,8.3-7.1
				c0-3.8-1.8-7-4.2-9.9c-2.2-2.8-4.3-5.5-6.5-8.3c-1.5-1.9-1.8-3.2-1.8-4.7c0-1.5,1-2.5,2.5-2.5c0.1,0,0.3,0,0.4,0
				c1.6,0.2,2.9,1.8,2.9,4.4c0,0.6,0,0.9,0,1.5c2.6,0.3,3.9,0.5,6.5,0.8c0-1,0-1.5,0-2.6c0-5.2-4.7-8.7-9.4-9.4
				C654,224.1,653.6,224,653.1,224 M186.1,221.8c-5.3,0.6-10.5,1.2-15.8,1.9c0,12.2,0,24.4,0,36.7c5.5-0.7,11-1.3,16.5-1.9
				c0-2.1,0-3.1,0-5.2c-3.3,0.4-6.7,0.8-10,1.2c0-4,0-8,0-11.9c2.7-0.3,4-0.5,6.6-0.8c0-2.1,0-3.1,0-5.2c-2.7,0.3-4,0.5-6.6,0.8
				c0-3.6,0-5.4,0-9c3.7-0.4,5.5-0.7,9.3-1.1C186.1,225,186.1,223.9,186.1,221.8 M625.6,221.2c0,12.2,0,24.5,0,36.7
				c5.5,0.6,11,1.2,16.5,1.9c0-2.1,0-3.1,0-5.2c-3.3-0.4-6.7-0.8-10-1.2c0-4,0-8,0-11.9c2.7,0.3,4,0.5,6.6,0.8c0-2.1,0-3.1,0-5.2
				c-2.7-0.3-4-0.5-6.6-0.8c0-3.6,0-5.4,0-9c3.7,0.4,5.5,0.6,9.3,1.1c0-2.1,0-3.1,0-5.2C636.1,222.4,630.9,221.8,625.6,221.2
				 M607.3,219.3c0,12.2,0,24.5,0,36.7c5,0.5,10.1,1,15.1,1.6c0-2.1,0-3.1,0-5.2c-3.4-0.4-5.1-0.6-8.6-0.9c0-10.5,0-21,0-31.4
				C611.2,219.7,609.9,219.5,607.3,219.3 M211,218.7c-0.4,0-0.7,0-1.1,0.1c-4.9,0.5-9.9,3.9-9.9,9.3c0,7.1,0,14.1,0,21.2
				c0,4.8,4.4,7.2,8.7,7.2c0.4,0,0.9,0,1.3-0.1c4.7-0.5,9.5-4,9.6-9.2c0-1.2,0-1.7,0-2.9c-2.6,0.3-4,0.4-6.6,0.6c0,1.2,0,1.7,0,2.9
				c0,1.1-1.1,3.1-3,3.3c-0.1,0-0.3,0-0.4,0c-2,0-2.9-1.6-2.9-2.7c0-7.1,0-14.1,0-21.2c0-1.1,1-3.1,3.3-3.3c0.1,0,0.2,0,0.3,0
				c1.7,0,2.7,1.7,2.7,2.7c0,1.2,0,1.7,0,2.9c2.6-0.3,4-0.4,6.6-0.6c0-1.2,0-1.7,0-2.9C219.5,221.4,215.3,218.7,211,218.7
				 M232.3,249c-2.1,0-2.9-1.7-2.9-2.9c0-7,0-14.1,0-21.1c0-1,0.9-3.1,3.2-3.3c0.1,0,0.2,0,0.2,0c1.7,0,2.7,1.8,2.7,2.8
				c0,7,0,14,0,21c0,1.1-1,3.2-2.9,3.4C232.6,249,232.4,249,232.3,249 M233.6,216.6c-0.3,0-0.6,0-1,0c-4.9,0.5-9.8,3.7-9.8,9.1
				c0,7.1,0,14.1,0,21.2c0,4.9,4.3,7.4,8.7,7.4c0.4,0,0.8,0,1.1-0.1c4.8-0.5,9.4-4,9.5-9.1c0-7.1,0-14.1,0-21.2
				C242.1,219.3,237.9,216.6,233.6,216.6 M583,233.4c-0.5,0-1-0.1-1.6-0.2c-0.8-0.1-1.3-0.1-2.1-0.2c0-3.7,0-7.4,0-11.1
				c1.7,0.1,2.5,0.2,4.2,0.4c2.6,0.2,3.1,2.7,3.2,5.5C586.9,230.8,585.8,233.4,583,233.4 M572.8,216.1c0,12.2,0,24.5,0,36.7
				c2.6,0.2,3.9,0.3,6.5,0.6c0-4.9,0-9.9,0-14.8c0.3,0,1.2,0.1,2.1,0.2c2.1,5.1,4.2,10.2,6.2,15.3c2.7,0.2,4.1,0.4,6.8,0.6
				c-2.3-5.4-4.6-10.9-6.9-16.3c3.9-1.7,5.5-6.1,5.5-10c0-5.5-3.3-10.9-9.3-11.3C580.1,216.7,576.5,216.4,572.8,216.1 M559.8,246.9
				c-0.1,0-0.1,0-0.2,0c-2.3-0.2-3.2-2.2-3.2-3.4c0-7,0-14.1,0-21.1c0-1,0.9-2.8,3-2.8c0.1,0,0.2,0,0.3,0c1.9,0.1,2.9,2.2,2.9,3.3
				c0,7,0,14,0,21C562.5,245.1,561.5,246.9,559.8,246.9 M558.6,214.5c-4.4,0-8.8,2.5-8.8,7.5c0,7.1,0,14.1,0,21.2
				c0,5.4,4.9,8.6,9.8,9c0.3,0,0.5,0,0.8,0c4.4,0,8.6-2.8,8.7-7.6c0-7.1,0-14.1,0-21.2c-0.1-5.1-4.8-8.5-9.5-8.9
				C559.3,214.5,558.9,214.5,558.6,214.5 M268.1,214.2c-2.8,0.2-4.2,0.3-7,0.5c-1.6,9.2-3.2,18.3-4.8,27.5l-0.1,0
				c-1.6-8.9-3.1-17.8-4.7-26.8c-2.8,0.2-4.2,0.3-7,0.6c2.7,12,5.4,24,8.1,36c2.8-0.2,4.2-0.3,7-0.5
				C262.5,239.1,265.3,226.7,268.1,214.2 M531,213c0,12.2,0,24.5,0,36.7c2.6,0.2,3.9,0.2,6.6,0.4c0-5.7,0-11.5,0-17.2
				c2.6,0.2,4,0.3,6.6,0.4c0-2.1,0-3.1,0-5.2c-2.6-0.2-4-0.3-6.6-0.4c0-3.6,0-5.4,0-9c3.7,0.2,5.5,0.4,9.2,0.6c0-2.1,0-3.1,0-5.2
				C541.5,213.7,536.2,213.3,531,213 M287.2,213c-5.3,0.3-10.6,0.7-15.8,1c0,12.2,0,24.5,0,36.7c5.5-0.4,11-0.7,16.6-1.1
				c0-2.1,0-3.1,0-5.2c-3.3,0.2-6.7,0.4-10,0.6c0-4,0-8,0-11.9c2.7-0.2,4-0.3,6.7-0.4c0-2.1,0-3.1,0-5.2c-2.7,0.2-4,0.3-6.7,0.4
				c0-3.6,0-5.4,0-9c3.7-0.2,5.6-0.4,9.3-0.6C287.2,216.1,287.2,215.1,287.2,213 M297.7,228.7c0-3.7,0-7.4,0-11.1
				c1.7-0.1,2.5-0.1,4.3-0.2c0.1,0,0.1,0,0.2,0c2.4,0,2.9,2.3,3,5.1c0.1,3.8-1.3,6.2-5.1,6.2c-0.1,0-0.2,0-0.3,0
				C298.9,228.6,298.5,228.6,297.7,228.7 M302.9,212.1c-0.3,0-0.5,0-0.8,0c-3.7,0.2-7.3,0.4-11,0.6c0,12.2,0,24.5,0,36.7
				c2.6-0.2,3.9-0.2,6.5-0.4c0-4.9,0-9.9,0-14.8c0.3,0,1.2-0.1,2.1-0.1c2.1,4.8,4.2,9.6,6.2,14.4c2.7-0.1,4.1-0.2,6.8-0.3
				c-2.3-5.1-4.6-10.2-6.9-15.3c3.8-2.1,5.5-6.6,5.5-10.8C311.4,216.9,308.4,212.1,302.9,212.1 M497.4,211.2c0,2.1,0,3.1,0,5.2
				c2.7,0.1,4,0.2,6.7,0.3c0,10.5,0,21,0,31.5c2.6,0.1,3.9,0.2,6.6,0.3c0-10.5,0-21,0-31.5c2.7,0.1,4.1,0.2,6.8,0.4
				c0-2.1,0-3.1,0-5.2C510.7,211.9,504.1,211.5,497.4,211.2 M474.6,210.3c0,2.1,0,3.1,0,5.2c2.7,0.1,4,0.1,6.7,0.2
				c0,10.5,0,21,0,31.5c2.6,0.1,3.9,0.1,6.6,0.3c0-10.5,0-21,0-31.5c2.7,0.1,4.1,0.2,6.8,0.3c0-2.1,0-3.1,0-5.2
				C488,210.8,481.3,210.6,474.6,210.3 M346.2,210.2c-2.6,0.1-3.9,0.1-6.5,0.2c-1.4,6-2.8,11.9-4.3,17.9l-0.1,0
				c-1.5-5.8-3-11.7-4.5-17.5c-2.6,0.1-3.8,0.2-6.4,0.3c2.6,7.4,5.1,14.7,7.7,22.1c0,4.8,0,9.5,0,14.3c2.5-0.1,3.8-0.1,6.4-0.2
				c0-4.7,0-9.5,0-14.3C341.1,225.3,343.6,217.8,346.2,210.2 M452,209.7c0,9.7,0,19.3,0,29c0,5.3,5.1,8.3,9.9,8.4c0.1,0,0.2,0,0.3,0
				c4.6,0,9.2-2.9,9.2-7.9c0-9.7,0-19.3,0-29c-2.6-0.1-3.9-0.1-6.6-0.2c0,9.6,0,19.3,0,28.9c0,1.1-1,2.9-2.9,2.9c0,0-0.1,0-0.1,0
				c-2.3-0.1-3.3-2-3.3-3.1c0-9.6,0-19.3,0-28.9C456,209.8,454.6,209.8,452,209.7 M358,241.8c-2.2,0-3.2-1.9-3.2-3.1
				c0-7,0-14.1,0-21.1c0-1,0.9-3,3.3-3.1c0,0,0,0,0.1,0c1.8,0,2.9,1.9,2.9,3c0,7,0,14,0,21c0,1.1-1.1,3.2-2.9,3.2
				C358.1,241.8,358.1,241.8,358,241.8 M358.4,209.4c-0.1,0-0.2,0-0.3,0c-4.8,0.1-9.8,3.1-9.8,8.5c0,7.1,0,14.1,0,21.2
				c0,5.2,4.7,8,9.5,8c0.1,0,0.2,0,0.4,0c4.7-0.1,9.4-3.4,9.5-8.5c0-7.1,0-14.1,0-21.2C367.6,212.4,363,209.4,358.4,209.4
				 M438.1,240.9C438.1,240.9,438,240.9,438.1,240.9c-0.9,0-1.4,0-2.3,0c0-4,0-8,0-11.9c0.5,0,0.8,0,1.3,0c0.1,0,0.2,0,0.3,0
				c3.7,0,5.3,3.5,5.2,6.8C442.4,238.5,440.7,240.9,438.1,240.9 M436.5,223.4c-0.1,0-0.3,0-0.4,0c-0.1,0-0.2,0-0.3,0
				c0-3.5,0-5.2,0-8.7c1,0,1.5,0,2.5,0c2.3,0,3.3,1.6,3.3,4.2C441.6,222.3,440.8,223.4,436.5,223.4 M429.2,209.3
				c0,12.2,0,24.5,0,36.7c3.3,0,6.5,0.1,9.8,0.1c0.1,0,0.2,0,0.3,0c5.8,0,9.4-4.8,9.4-10.3c0-3.9-5.6-9.1-5.6-9.4
				c0,0,4.1-4.5,4.1-7.6c0.1-5.5-4-9.4-9.5-9.4c0,0-0.1,0-0.1,0C434.3,209.4,432.6,209.4,429.2,209.3 M390.7,209.3
				c-2.6,0-3.9,0-6.6,0.1c0,9.6,0,19.3,0,28.9c0,1.1-1,3-2.9,3c0,0,0,0-0.1,0c-2.3,0-3.2-1.8-3.2-2.9c0-9.6,0-19.3,0-28.9
				c-2.6,0-3.9,0.1-6.6,0.1c0,9.7,0,19.3,0,29c0,5.2,4.9,8,9.7,8c0.1,0,0.1,0,0.2,0c4.7-0.1,9.4-3.2,9.5-8.3
				C390.7,228.6,390.7,219,390.7,209.3 M401.2,225.6c0-3.7,0-7.4,0-11.1c1.7,0,2.6,0,4.3,0c0,0,0,0,0,0c2.6,0,3.1,2.4,3.2,5.2
				c0.1,3.6-1.2,5.9-4.7,5.9c-0.2,0-0.5,0-0.7,0C402.5,225.6,402,225.6,401.2,225.6 M405.9,209.2c-0.1,0-0.2,0-0.2,0
				c-3.7,0-7.3,0-11,0c0,12.2,0,24.4,0,36.7c2.6,0,3.9,0,6.5,0c0-4.9,0-9.9,0-14.8c0.3,0,1.2,0,2.1,0c2.1,4.9,4.2,9.8,6.3,14.8
				c2.7,0,4.1,0,6.8,0c-2.3-5.2-4.6-10.5-6.9-15.7c3.9-2,5.5-6.4,5.5-10.5C415,214.3,411.7,209.2,405.9,209.2"/>
			<path class="st1" d="M109,231.1l-71.2,13.4l36.8,25.6l-13.7,40.3l48-9.5C109,270.5,109,261.5,109,231.1"/>
			<path class="st1" d="M708.7,231.1c0,30.4,0,39.4,0,69.8l48,9.5l-13.7-40.3l36.8-25.6L708.7,231.1"/>
			<path class="st2" d="M200.9,116.7c-3.8,0-4.7-5.1-4.7-5.1c3.5-16.3,9.2-32.2,16.1-47.2c1.4-3,2.7-4.2,3.4-4.2c0,0,0.1,0,0.1,0
				c2.7,0.4,2.3,7.4,2.2,10.2c-0.3,10.6-2.4,21.8-6.1,31.9c-1.7,4.6-4.8,13.7-10.4,14.4C201.2,116.7,201,116.7,200.9,116.7
				 M261.4,155.2c-7.9,0-6.8-13.5-6.7-18.5c0.4-15.7,4-31.9,8.7-47c2.7-8.7,8.4-29.6,20-30.2c0.1,0,0.2,0,0.3,0
				c3.5,0,3.9,4.4,3.7,7.1c-0.5,8.3-3.5,15.4-8.2,22.4c2.6,2.7,6.5,3.8,10.1,4.3c-0.7,11.3-4.9,23.1-8.6,33.6
				c-2.7,7.7-8.3,27.2-18.5,28.2C261.9,155.2,261.6,155.2,261.4,155.2 M346.9,110.3c0.3,0,0.5-0.1,0.5-0.3c2-10.4,5.2-20.7,9.2-30.4
				c2.8-6.7,8-20.8,16.9-21.1c0.1,0,0.2,0,0.3,0c9,0,7.1,16.3,6.9,21.9c-0.7,14.1-3.2,28.4-7,41.9c-2.9,10-8.6,29.9-21.9,30.3
				c-0.1,0-0.2,0-0.3,0c-12.5,0-12-22.4-11.6-30.1c0.2-4.7,0.9-9.6,2-14.4C343,109,345.8,110.3,346.9,110.3 M124.9,9.5
				c-2.4,0-4.6,0.6-5.9,1.8c-5.1,6.9-6.3,18.1-8.1,26.2c-3.6,16.4-6.5,32.9-9.3,49.4c-4.8,28.4-10.9,57.9-12.2,85.9
				c-0.3,6.4,8,11.8,14.1,11.8c0.4,0,0.7,0,1.1-0.1c4.7-0.5,5.8-2.6,5.8-2.6c2.4-17.3,8.5-34.2,14.8-50.4c4.3-11,8.4-23.5,15.1-33.3
				c1.1,0.1,1.6,0.1,2.6,0.2c-4.7,14.1-8.2,29.6-9.2,44.4c-0.8,12.9,2.7,34.4,19.1,34.4c0.7,0,1.3,0,2-0.1
				c8.3-0.9,15.9-5.8,21.5-11.8c4.1,11.7,14.2,20.2,26.7,20.2c0.7,0,1.4,0,2.2-0.1c17.5-1.4,29-17.6,34.7-32.8
				c3.8,9.8,12,17.5,22.8,17.5c0.4,0,0.9,0,1.3,0c10.3-0.6,19.9-8.2,24.4-17.3c0.5,0,0.7,0,1.1,0c0.6,7.8,7.6,13.8,15.3,13.8
				c0.2,0,0.4,0,0.6,0c3.8-0.2,7.4-1.6,10.4-3.8c-1.4,8.2-2.9,16.4-4.1,24.6c6.3-0.3,12.7-0.6,19-0.9c1.1-10.1,2.1-20.2,3.5-30.2
				c0.2-1.9,0.3-2.8,0.5-4.6c3.1,9.4,10.3,16.2,20.5,16.2c0.2,0,0.3,0,0.5,0c15.6-0.4,24.7-15.6,29.7-28.5
				c5.9-15.3,8.7-32.2,9.3-48.5c0.7-18.2-2-44-25.3-44c-0.3,0-0.5,0-0.8,0c-8.7,0.2-15.4,7.8-20.2,14.3c0.2-1.9,0.3-2.9,0.5-4.9
				c-1.1-4.1-7.7-7.2-11.3-7.2c-0.3,0-0.6,0-0.9,0.1c-5.8,1-7.8,21.2-8.8,26.9c-2.7,15.6-4.4,31.4-5.3,47.2
				c-1.3,7.7-2.7,15.5-4.1,23.2c-2.3,3-5.8,4.8-9.6,5c-0.2,0-0.3,0-0.5,0c-8.3,0-8.7-10.4-8.5-16.6c0.7-22.1,7.7-44.5,14-65.4
				c1.4-4.8-6.3-5.1-9.1-5.6c0,0,0.3-1.3,0.3-2.4c0.2-10.3-10.9-15.4-19.9-15.4c-0.4,0-0.8,0-1.2,0c-14.7,0.8-25.6,13.4-32.4,25.3
				c-8.7,15.3-13.1,32.7-14.9,50c-1.5,0.7-1.6,2.2-1.6,2.2c-0.8,16.4-14.8,42.8-33,44.4c-0.6,0.1-1.1,0.1-1.7,0.1
				c-9.5,0-13.5-7.7-13-16.9c0.6-10,2.1-20.3,5.5-29.9c1.8,4.9,6.3,8.3,11.5,8.3c0.3,0,0.7,0,1,0c23-1.9,27.3-38.8,27.7-55.6
				c0.3-10.2-2.6-25.6-15.5-25.6c-0.5,0-0.9,0-1.4,0.1c-14.3,1.2-23.2,24.1-27.7,35c-8,19.4-13.7,40.6-14.9,61.6
				c-0.1,2.5-0.1,4.9,0,7.2c-2.6,4.4-6.1,10.7-11.8,11.5c-0.4,0.1-0.8,0.1-1.2,0.1c-7.1,0-8.1-9.4-7.8-15c1-15.7,4.6-31.3,8.3-46.6
				c2.6-11,7.6-23.3,7.4-33.7c-0.1-5.3-9.7-7.9-15.1-7.9c-0.6,0-1.1,0-1.5,0.1c-4.2,0.5-7.5,6.3-9.6,9.6c-4.3,6.7-7.9,14-11.3,21.3
				c-6.3,13.6-11.9,27.5-17.6,41.4c-0.8-0.1-1.2-0.1-2-0.2c1.1-13.3,4.3-26.5,6.8-39.6c2.7-14.2,5.2-28.6,8.8-42.4
				c3-11.3,7.9-23,8.3-34.2C135.8,12.1,130,9.5,124.9,9.5"/>
			<path class="st1" d="M302.1,217.3c-0.1,0-0.1,0-0.2,0c-1.7,0.1-2.6,0.1-4.3,0.2c0,3.7,0,7.4,0,11.1c0.8,0,1.3-0.1,2.1-0.1
				c0.1,0,0.2,0,0.3,0c3.9,0,5.3-2.4,5.1-6.2C305.1,219.7,304.5,217.3,302.1,217.3"/>
			<path class="st1" d="M579.3,221.9c0,3.7,0,7.4,0,11.1c0.8,0.1,1.3,0.1,2.1,0.2c0.6,0.2,1.1,0.2,1.6,0.2c2.8,0,3.9-2.6,3.8-5.6
				c-0.1-2.8-0.7-5.3-3.2-5.5C581.8,222.1,581,222,579.3,221.9"/>
			<path class="st1" d="M358.2,214.5C358.2,214.5,358.2,214.5,358.2,214.5c-2.4,0.1-3.3,2.1-3.3,3.1c0,7,0,14.1,0,21.1
				c0,1.2,0.9,3.1,3.2,3.1c0,0,0.1,0,0.1,0c1.9,0,2.9-2.1,2.9-3.2c0-7,0-14,0-21C361.1,216.5,360.1,214.5,358.2,214.5"/>
			<path class="st1" d="M559.3,219.7c-2.1,0-3,1.8-3,2.8c0,7,0,14.1,0,21.1c0,1.2,0.9,3.2,3.2,3.4c0.1,0,0.1,0,0.2,0
				c1.8,0,2.7-1.9,2.7-2.9c0-7,0-14,0-21c0-1.1-1-3.2-2.9-3.3C559.5,219.7,559.4,219.7,559.3,219.7"/>
			<path class="st1" d="M435.8,214.7c0,3.5,0,5.2,0,8.7c0.1,0,0.2,0,0.3,0c0.1,0,0.3,0,0.4,0c4.3,0,5-1,5-4.4c0-2.6-1-4.2-3.3-4.2
				C437.3,214.7,436.8,214.7,435.8,214.7"/>
			<path class="st1" d="M435.8,228.9c0,4,0,8,0,11.9c0.9,0,1.3,0,2.2,0c0,0,0,0,0.1,0c2.6,0,4.4-2.3,4.5-5.2
				c0.1-3.3-1.4-6.8-5.2-6.8c-0.1,0-0.2,0-0.3,0C436.6,228.9,436.3,228.9,435.8,228.9"/>
			<path class="st1" d="M677.3,259.5c1.4,0,2.5-1,2.5-3c0-1.9-0.8-3.5-2.1-5.3c-2.2-2.5-3.3-3.8-5.4-6.3c-2.6-3.3-4.9-6.6-4.9-10.9
				c0-4.6,4-7,8.1-7c0.5,0,1,0,1.5,0.1c4.8,0.7,9.4,4.3,9.4,9.5c0,1,0,1.5,0,2.6c-2.6-0.4-3.9-0.6-6.5-0.9c0-0.6,0-0.9,0-1.5
				c0-2.6-1.4-4.2-2.9-4.4c-0.2,0-0.3,0-0.5,0c-1.4,0-2.5,1-2.5,2.5c0,1.6,0.3,2.8,1.8,4.8c2.2,2.8,4.3,5.6,6.5,8.4
				c2.4,2.9,4.2,6.2,4.2,9.9c0,4.6-4,7-8.1,7c-0.5,0-1,0-1.5-0.1c-4.8-0.7-9.5-4.2-9.5-9.5c0-1.5,0-2.3,0-3.8
				c2.6,0.3,3.9,0.5,6.6,0.9c0,1.4,0,2,0,3.4c0,2.3,1.3,3.5,2.9,3.8C677,259.5,677.1,259.5,677.3,259.5 M156.5,252.6l0.2,0
				c1.4-9.2,2.9-18.5,4.3-27.7c2.4-0.3,3.6-0.5,6.1-0.8c-2.5,12.5-4.9,25.1-7.4,37.6c-2.5,0.3-3.8,0.5-6.4,0.8
				c-1.4-7-2.9-14-4.3-21.1c-1.4,7.4-2.9,14.8-4.3,22.2c-2.5,0.3-3.8,0.5-6.4,0.9c-2.5-11.9-4.9-23.8-7.4-35.6
				c2.6-0.4,3.8-0.5,6.4-0.9c1.4,8.9,2.8,17.7,4.2,26.6l0.2,0c1.4-9.3,2.9-18.5,4.3-27.8c2.5-0.3,3.8-0.5,6.4-0.8
				C153.7,234.8,155.1,243.7,156.5,252.6 M654.9,256.5c1.4,0,2.5-1,2.5-3c0-1.9-0.8-3.5-2.1-5.3c-2.2-2.5-3.3-3.8-5.4-6.3
				c-2.7-3.3-4.9-6.5-4.9-10.9c0-4.6,4-7.1,8.2-7.1c0.5,0,0.9,0,1.4,0.1c4.8,0.6,9.4,4.2,9.4,9.4c0,1,0,1.5,0,2.6
				c-2.6-0.3-3.9-0.5-6.5-0.8c0-0.6,0-0.9,0-1.5c0-2.6-1.4-4.2-2.9-4.4c-0.1,0-0.3,0-0.4,0c-1.5,0-2.5,1-2.5,2.5
				c0,1.6,0.3,2.8,1.8,4.7c2.2,2.8,4.4,5.5,6.5,8.3c2.4,2.8,4.2,6.1,4.2,9.9c0,4.7-4.1,7.1-8.3,7.1c-0.5,0-0.9,0-1.4-0.1
				c-4.8-0.6-9.5-4.1-9.5-9.4c0-1.5,0-2.3,0-3.8c2.6,0.3,3.9,0.5,6.6,0.8c0,1.4,0,2,0,3.4c0,2.3,1.3,3.5,2.9,3.7
				C654.6,256.5,654.8,256.5,654.9,256.5 M170.3,260.4c0-12.2,0-24.4,0-36.7c5.3-0.6,10.5-1.3,15.8-1.9c0,2.1,0,3.1,0,5.2
				c-3.7,0.4-5.6,0.6-9.3,1.1c0,3.6,0,5.4,0,9c2.7-0.3,4-0.5,6.6-0.8c0,2.1,0,3.1,0,5.2c-2.7,0.3-4,0.5-6.6,0.8c0,4,0,8,0,11.9
				c3.3-0.4,6.7-0.8,10-1.2c0,2.1,0,3.1,0,5.2C181.3,259,175.8,259.7,170.3,260.4 M642.1,259.8c-5.5-0.7-11-1.3-16.5-1.9
				c0-12.2,0-24.5,0-36.7c5.3,0.6,10.5,1.2,15.8,1.8c0,2.1,0,3.1,0,5.2c-3.7-0.4-5.6-0.7-9.3-1.1c0,3.6,0,5.4,0,9
				c2.7,0.3,4,0.5,6.6,0.8c0,2.1,0,3.1,0,5.2c-2.7-0.3-4-0.5-6.6-0.8c0,4,0,8,0,11.9c3.3,0.4,6.7,0.8,10,1.2
				C642.1,256.6,642.1,257.7,642.1,259.8 M622.4,257.5c-5-0.5-10.1-1.1-15.1-1.6c0-12.2,0-24.5,0-36.7c2.6,0.3,3.9,0.4,6.5,0.7
				c0,10.5,0,21,0,31.4c3.4,0.4,5.1,0.5,8.6,0.9C622.4,254.4,622.4,255.4,622.4,257.5 M208.7,256.5c-4.3,0-8.7-2.4-8.7-7.2
				c0-7.1,0-14.1,0-21.2c0.1-5.4,5.1-8.7,9.9-9.3c0.4,0,0.7-0.1,1.1-0.1c4.3,0,8.5,2.7,8.5,7.3c0,1.2,0,1.7,0,2.9
				c-2.6,0.3-4,0.4-6.6,0.6c0-1.2,0-1.7,0-2.9c0-1-1-2.7-2.7-2.7c-0.1,0-0.2,0-0.3,0c-2.3,0.2-3.3,2.2-3.3,3.3c0,7.1,0,14.1,0,21.2
				c0,1,0.9,2.7,2.9,2.7c0.1,0,0.3,0,0.4,0c1.9-0.2,3-2.2,3-3.3c0-1.2,0-1.7,0-2.9c2.6-0.3,4-0.4,6.6-0.6c0,1.2,0,1.7,0,2.9
				c-0.1,5.2-4.8,8.6-9.6,9.2C209.5,256.5,209.1,256.5,208.7,256.5 M231.5,254.3c-4.4,0-8.7-2.5-8.7-7.4c0-7.1,0-14.1,0-21.2
				c0-5.4,4.9-8.6,9.8-9.1c0.3,0,0.6,0,1,0c4.3,0,8.5,2.7,8.5,7.4c0,7.1,0,14.1,0,21.2c-0.1,5.1-4.7,8.6-9.5,9.1
				C232.3,254.3,231.9,254.3,231.5,254.3 M579.3,253.3c-2.6-0.2-3.9-0.3-6.5-0.6c0-12.2,0-24.4,0-36.7c3.6,0.3,7.3,0.6,10.9,0.9
				c6,0.4,9.2,5.8,9.3,11.3c0,4-1.6,8.4-5.5,10c2.3,5.4,4.6,10.9,6.9,16.3c-2.7-0.3-4.1-0.4-6.8-0.6c-2.1-5.1-4.2-10.2-6.2-15.3
				c-0.9-0.1-1.8-0.2-2.1-0.2C579.3,243.4,579.3,248.4,579.3,253.3 M560.4,252.2c-0.3,0-0.5,0-0.8,0c-4.9-0.4-9.8-3.6-9.8-9
				c0-7.1,0-14.1,0-21.2c0-5,4.4-7.5,8.8-7.5c0.3,0,0.7,0,1,0c4.7,0.4,9.4,3.8,9.5,8.9c0,7.1,0,14.1,0,21.2
				C569,249.4,564.8,252.2,560.4,252.2 M256.3,242.3l0.1,0c1.6-9.2,3.2-18.3,4.8-27.5c2.8-0.2,4.2-0.3,7-0.5
				c-2.8,12.4-5.6,24.9-8.4,37.3c-2.8,0.2-4.2,0.3-7,0.5c-2.7-12-5.4-24-8.1-36c2.8-0.2,4.2-0.3,7-0.6
				C253.2,224.4,254.7,233.3,256.3,242.3 M537.5,250.1c-2.6-0.2-3.9-0.3-6.6-0.4c0-12.2,0-24.5,0-36.7c5.3,0.3,10.5,0.7,15.8,1
				c0,2.1,0,3.1,0,5.2c-3.7-0.3-5.5-0.4-9.2-0.6c0,3.6,0,5.4,0,9c2.6,0.2,4,0.3,6.6,0.4c0,2.1,0,3.1,0,5.2c-2.6-0.2-4-0.3-6.6-0.4
				C537.5,238.7,537.5,244.4,537.5,250.1 M271.4,250.7c0-12.2,0-24.5,0-36.7c5.3-0.4,10.6-0.7,15.8-1c0,2.1,0,3.1,0,5.2
				c-3.7,0.2-5.6,0.3-9.3,0.6c0,3.6,0,5.4,0,9c2.7-0.2,4-0.3,6.7-0.4c0,2.1,0,3.1,0,5.2c-2.7,0.2-4,0.3-6.7,0.4c0,4,0,8,0,11.9
				c3.3-0.2,6.7-0.4,10-0.6c0,2.1,0,3.1,0,5.2C282.4,249.9,276.9,250.3,271.4,250.7 M291.2,249.4c0-12.2,0-24.5,0-36.7
				c3.7-0.2,7.3-0.4,11-0.6c0.3,0,0.5,0,0.8,0c5.5,0,8.5,4.8,8.5,10c0,4.2-1.7,8.7-5.5,10.8c2.3,5.1,4.6,10.2,6.9,15.3
				c-2.7,0.1-4.1,0.2-6.8,0.3c-2.1-4.8-4.2-9.6-6.2-14.4c-0.9,0-1.8,0.1-2.1,0.1c0,4.9,0,9.9,0,14.8
				C295.1,249.2,293.8,249.2,291.2,249.4 M510.7,248.5c-2.6-0.1-3.9-0.2-6.6-0.3c0-10.5,0-21,0-31.5c-2.7-0.1-4-0.2-6.7-0.3
				c0-2.1,0-3.1,0-5.2c6.7,0.3,13.4,0.6,20,1c0,2.1,0,3.1,0,5.2c-2.7-0.1-4.1-0.2-6.8-0.4C510.7,227.5,510.7,238,510.7,248.5
				 M487.9,247.5c-2.6-0.1-3.9-0.2-6.6-0.3c0-10.5,0-21,0-31.5c-2.7-0.1-4-0.1-6.7-0.2c0-2.1,0-3.1,0-5.2c6.7,0.2,13.4,0.5,20.1,0.8
				c0,2.1,0,3.1,0,5.2c-2.7-0.1-4.1-0.2-6.8-0.3C487.9,226.5,487.9,237,487.9,247.5 M335.4,228.3l0.1,0c1.4-6,2.8-11.9,4.3-17.9
				c2.6-0.1,3.9-0.1,6.5-0.2c-2.6,7.6-5.1,15.1-7.7,22.7c0,4.7,0,9.5,0,14.3c-2.5,0.1-3.8,0.1-6.4,0.2c0-4.8,0-9.5,0-14.3
				c-2.6-7.4-5.1-14.7-7.7-22.1c2.6-0.1,3.8-0.2,6.4-0.3C332.4,216.6,333.9,222.4,335.4,228.3 M462.2,247.1c-0.1,0-0.2,0-0.3,0
				c-4.8-0.1-9.8-3.1-9.9-8.4c0-9.7,0-19.3,0-29c2.6,0.1,3.9,0.1,6.6,0.2c0,9.6,0,19.3,0,28.9c0,1.1,1,3,3.3,3.1c0,0,0.1,0,0.1,0
				c1.8,0,2.9-1.8,2.9-2.9c0-9.6,0-19.3,0-28.9c2.6,0.1,3.9,0.1,6.6,0.2c0,9.7,0,19.3,0,29C471.4,244.2,466.7,247.1,462.2,247.1
				 M357.8,247c-4.7,0-9.5-2.8-9.5-8c0-7.1,0-14.1,0-21.2c0-5.4,5-8.3,9.8-8.5c0.1,0,0.2,0,0.3,0c4.6,0,9.2,3,9.2,8
				c0,7.1,0,14.1,0,21.2c-0.1,5.1-4.8,8.4-9.5,8.5C358,247,357.9,247,357.8,247 M439.3,246.1c-0.1,0-0.2,0-0.3,0
				c-3.3-0.1-6.5-0.1-9.8-0.1c0-12.2,0-24.5,0-36.7c3.4,0,5.1,0.1,8.5,0.1c0,0,0.1,0,0.1,0c5.5,0,9.5,3.8,9.5,9.4
				c0,3.1-4.1,7.6-4.1,7.6c0,0.3,5.7,5.5,5.6,9.4C448.7,241.3,445.1,246.1,439.3,246.1 M381.2,241.3
				C381.2,241.3,381.2,241.3,381.2,241.3c2,0,3-1.9,3-3c0-9.6,0-19.3,0-28.9c2.6,0,3.9,0,6.6-0.1c0,9.7,0,19.3,0,29
				c-0.1,5.1-4.8,8.2-9.5,8.3c-0.1,0-0.1,0-0.2,0c-4.7,0-9.6-2.8-9.7-8c0-9.7,0-19.3,0-29c2.6,0,3.9-0.1,6.6-0.1
				c0,9.6,0,19.3,0,28.9C377.9,239.5,378.9,241.3,381.2,241.3 M394.7,245.9c0-12.2,0-24.5,0-36.7c3.7,0,7.3,0,11,0
				c0.1,0,0.2,0,0.2,0c5.8,0,9.1,5.1,9.1,10.5c0,4.1-1.6,8.6-5.5,10.5c2.3,5.2,4.6,10.5,6.9,15.7c-2.7,0-4.1,0-6.8,0
				c-2.1-4.9-4.2-9.8-6.3-14.8c-0.9,0-1.8,0-2.1,0c0,4.9,0,9.8,0,14.8C398.6,245.9,397.3,245.9,394.7,245.9 M422.1,192.3
				c-58.5,0.2-119.3,2.6-179.5,7.3l-11.2,0.9c-39.6,3.3-79,7.5-117.2,12.7c0,30.4,0,39.4,0,69.8c60.6-8.2,121.3-14.1,182.2-17.5
				l11.4-0.6c24.1-1.2,48.1-2.1,72.3-2.6c3.1,0,6.3,0,9.4,0c39,0,78.8,1,118.7,2.9l11.5,0.6c61.9,3.3,124.1,9,183.7,17.1v-69.8
				c-39.3-5.4-78.6-9.7-118-13l-11.1-0.9C523.7,195.3,473,192.9,422.1,192.3"/>
			<path class="st1" d="M405.5,214.5C405.5,214.5,405.5,214.5,405.5,214.5c-1.7,0-2.6,0-4.3,0c0,3.7,0,7.4,0,11.1c0.8,0,1.3,0,2.1,0
				c0.3,0,0.5,0,0.7,0c3.5,0,4.8-2.3,4.7-5.9C408.6,216.9,408,214.5,405.5,214.5"/>
			<path class="st1" d="M232.9,221.7c-0.1,0-0.2,0-0.2,0c-2.3,0.2-3.2,2.3-3.2,3.3c0,7,0,14.1,0,21.1c0,1.1,0.8,2.9,2.9,2.9
				c0.1,0,0.2,0,0.3,0c1.9-0.2,2.9-2.3,2.9-3.4c0-7,0-14,0-21C235.6,223.5,234.7,221.7,232.9,221.7"/>
		</g>
	</g>
</g>
</svg>
