<?xml version="1.0" standalone="no"?>
<!DOCTYPE svg PUBLIC "-//W3C//DTD SVG 1.1//EN" "http://www.w3.org/Graphics/SVG/1.1/DTD/svg11.dtd" >
<svg xmlns="http://www.w3.org/2000/svg" xmlns:xlink="http://www.w3.org/1999/xlink" version="1.1">
<metadata></metadata>
<defs>
<font id="belltownbook" horiz-adv-x="1228" >
<font-face units-per-em="2048" ascent="1597" descent="-451" />
<missing-glyph horiz-adv-x="616" />
<glyph unicode="fi" horiz-adv-x="1110" d="M47 877v149h162v277q0 136 76 214t192 78q92 0 191 -30l-33 -142q-71 19 -119 19q-58 0 -92.5 -41.5t-34.5 -116.5v-258h258v-149h-258v-877h-180v877h-162zM754 1343q0 49 34 83t84 34q48 0 83.5 -34t35.5 -83t-35.5 -82.5t-83.5 -33.5q-50 0 -84 33.5t-34 82.5zM780 0 v1022h183v-1022h-183z" />
<glyph unicode="fl" horiz-adv-x="1204" d="M47 877v149h162v277q0 136 76 214t192 78q92 0 191 -30l-33 -142q-71 19 -119 19q-58 0 -92.5 -41.5t-34.5 -116.5v-258h258v-149h-258v-877h-180v877h-162zM852 0v1589h180v-1589h-180z" />
<glyph horiz-adv-x="0" />
<glyph horiz-adv-x="0" />
<glyph unicode="&#xd;" horiz-adv-x="616" />
<glyph unicode=" "  horiz-adv-x="616" />
<glyph unicode="&#x09;" horiz-adv-x="616" />
<glyph unicode="&#xa0;" horiz-adv-x="616" />
<glyph unicode="!" horiz-adv-x="585" d="M170 109q0 49 35.5 83.5t85.5 34.5q51 0 87 -34.5t36 -83.5q0 -51 -36 -87t-87 -36q-50 0 -85.5 36t-35.5 87zM190 1475h205l-33 -1086h-139z" />
<glyph unicode="&#x22;" horiz-adv-x="765" d="M123 1475h180l-20 -492h-140zM465 1475h180l-20 -492h-140z" />
<glyph unicode="#" horiz-adv-x="1376" d="M49 381l25 141h258l63 363h-258l27 143h258l67 389h150l-68 -389h332l68 389h149l-67 -389h258l-27 -143h-258l-63 -363h258l-25 -141h-258l-68 -381h-149l67 381h-331l-68 -381h-149l67 381h-258zM481 522h332l64 363h-332z" />
<glyph unicode="$" horiz-adv-x="1138" d="M82 170l100 137q178 -147 359 -162v533q-43 20 -68 32t-65.5 33.5t-65 37t-58 40t-53.5 46t-43 51t-35 59.5t-20 66.5t-8 76.5q1 152 118.5 254t297.5 113v180h77v-178q207 -11 394 -152l-90 -133q-137 108 -304 119v-498q172 -77 239 -120q171 -109 195 -264 q5 -27 5 -56q0 -176 -121 -280.5t-318 -116.5v-172h-77v170q-129 4 -250.5 55t-208.5 129zM307 1118q0 -86 60.5 -144.5t173.5 -113.5v463q-105 -9 -169.5 -67t-64.5 -138zM618 147q123 10 193 74t70 160q-1 44 -20.5 82t-59 70.5t-81 56.5t-102.5 53v-496z" />
<glyph unicode="%" horiz-adv-x="1730" d="M123 1153q0 148 100.5 244t239.5 96h2h16q46 -3 82 -14q36 -9 118.5 -39t158 -48t151.5 -18q120 0 213 26t182 93l103 -78l-1159 -1440l-92 76l1038 1276q-120 -55 -285 -55q-113 3 -225 43q39 -73 39 -162q0 -149 -101 -244.5t-241 -95.5q-139 0 -239.5 95.5 t-100.5 244.5zM240 1153q0 -100 66 -163.5t157 -63.5t158 63.5t67 163.5q0 101 -67 165t-158 64t-157 -64t-66 -165zM926 322q0 148 100.5 244t239.5 96t240.5 -96t101.5 -244q0 -149 -101 -244.5t-241 -95.5q-139 0 -239.5 95t-100.5 245zM1042 322q0 -100 66.5 -164 t157.5 -64t158 64t67 164q0 101 -67 165t-158 64t-157.5 -64t-66.5 -165z" />
<glyph unicode="&#x26;" horiz-adv-x="1370" d="M104 397q0 78 24 144t70 117.5t94.5 88.5t115.5 76q-168 187 -168 344q0 134 105 231t265 97t260.5 -97t100.5 -231q0 -56 -17.5 -106t-44 -87t-70.5 -73.5t-83 -62t-94 -56.5l350 -391q90 149 102 346h170q-12 -270 -160 -473l236 -264h-219l-127 143 q-185 -161 -436 -161q-204 0 -339 114t-135 301zM297 408q0 -115 86 -190t211 -75q176 0 313 121l-364 412l-23 24q-108 -65 -165.5 -131.5t-57.5 -160.5zM420 1159q0 -102 135 -256q59 32 95 55.5t73.5 55.5t55.5 68t18 77q0 75 -52.5 126.5t-134.5 51.5q-80 0 -135 -53 t-55 -125z" />
<glyph unicode="'" horiz-adv-x="425" d="M123 1475h180l-20 -492h-140z" />
<glyph unicode="(" horiz-adv-x="616" d="M143 584q0 161 24.5 311.5t69 275t88 216t99.5 184.5l151 -76q-117 -213 -180.5 -429t-64.5 -482q1 -259 65 -473.5t180 -427.5l-151 -76q-281 468 -281 977z" />
<glyph unicode=")" horiz-adv-x="616" d="M41 -317q117 213 181 427.5t65 473.5q-1 266 -65 481.5t-181 429.5l152 76q56 -93 99.5 -184.5t87.5 -216t68.5 -274.5t24.5 -312q0 -510 -280 -977z" />
<glyph unicode="*" horiz-adv-x="954" d="M123 1120l287 113l-285 113l78 137l239 -191l-45 305h158l-45 -307l242 193l79 -137l-286 -113l286 -115l-77 -137l-244 195l45 -306h-158l45 304l-239 -191z" />
<glyph unicode="+" horiz-adv-x="1435" d="M172 522v119h485v522h123v-522h484v-119h-484v-522h-123v522h-485z" />
<glyph unicode="," horiz-adv-x="491" d="M109 100q0 46 34.5 79.5t81.5 33.5q71 0 121.5 -70t50.5 -166q0 -93 -48 -174.5t-138 -132.5l-57 70q127 91 127 199q0 30 -11 63q-24 -14 -51 -14q-46 0 -78 31.5t-32 80.5z" />
<glyph unicode="-" horiz-adv-x="825" d="M86 530v150h653v-150h-653z" />
<glyph unicode="." horiz-adv-x="448" d="M102 109q0 49 35.5 83.5t85.5 34.5q51 0 87 -34.5t36 -83.5q0 -51 -36 -87t-87 -36q-50 0 -85.5 36t-35.5 87z" />
<glyph unicode="/" horiz-adv-x="763" d="M23 -268l555 1865h165l-557 -1865h-163z" />
<glyph unicode="0" horiz-adv-x="1316" d="M123 737q0 190 41.5 337.5t115.5 238.5t170 137.5t209 46.5t209 -46.5t169.5 -137.5t115 -238.5t41.5 -337.5t-41.5 -337.5t-115 -238.5t-169.5 -137.5t-209 -46.5t-209 46.5t-170 137.5t-115.5 238.5t-41.5 337.5zM313 737q0 -282 92.5 -434.5t253.5 -152.5 q160 0 252.5 153t92.5 434q0 279 -93 433.5t-252 154.5q-160 0 -253 -154.5t-93 -433.5z" />
<glyph unicode="1" horiz-adv-x="823" d="M104 1262q106 23 207.5 78.5t159.5 138.5h147v-1479h-184v1235q-122 -88 -293 -123z" />
<glyph unicode="2" horiz-adv-x="1140" d="M82 0v41q4 104 33 192.5t75 152.5t104 119t121 98t126 82.5t120 79.5t100.5 82.5t69 98.5t25.5 121q0 117 -81 192.5t-210 75.5q-195 0 -381 -190l-94 137q219 223 492 223q202 0 334.5 -124.5t132.5 -313.5q0 -77 -23.5 -144t-64 -118t-93 -97t-111.5 -85.5t-119 -77.5 t-116.5 -79t-102.5 -84.5t-78.5 -99t-43.5 -118.5h762v-164h-977z" />
<glyph unicode="3" horiz-adv-x="1204" d="M104 156l99 141q167 -150 370 -150q145 0 239.5 76t94.5 193q0 132 -112 207t-314 75v142q174 -1 273.5 70.5t99.5 183.5q0 101 -80 166t-203 65q-176 0 -340 -147l-90 135q207 182 445 182q199 0 328.5 -107t129.5 -276q0 -115 -62.5 -202t-162.5 -132q123 -43 202 -141 t79 -238q0 -185 -145 -303.5t-367 -118.5q-286 0 -484 179z" />
<glyph unicode="4" horiz-adv-x="1210" d="M47 449q137 219 253 490.5t185 535.5h195q-71 -262 -182 -528t-230 -458h506v535h184v-535h203v-163h-203v-326h-184v326h-702z" />
<glyph unicode="5" horiz-adv-x="1157" d="M82 162l104 141q176 -151 371 -151q140 0 234 87t94 220t-94 220t-234 87q-145 0 -291 -111l-129 72l182 750l181 -2h483v-164h-522l-109 -447q108 60 232 60q219 0 355 -132t136 -335q0 -205 -140 -340t-370 -135q-272 0 -483 180z" />
<glyph unicode="6" horiz-adv-x="1216" d="M123 717q0 192 42.5 341.5t118 242.5t175.5 141t219 49q195 0 371 -100l-72 -154q-142 86 -285 86q-178 0 -276.5 -146.5t-102.5 -433.5q62 81 155.5 131t201.5 50q204 0 332 -132t128 -333q0 -206 -135 -344t-340 -138q-238 0 -385 192.5t-147 547.5zM322 565 q23 -210 110.5 -314t224.5 -104q124 0 204.5 90t80.5 220q0 127 -78 218t-215 91q-97 0 -182.5 -53t-144.5 -148z" />
<glyph unicode="7" horiz-adv-x="1105" d="M41 1311v164h1024v-134q-88 -102 -156 -196t-137.5 -222t-115.5 -260t-76 -303t-33 -360h-199q18 725 506 1311h-813z" />
<glyph unicode="8" horiz-adv-x="1259" d="M104 418q0 136 75 238t202 155q-90 49 -142.5 130t-52.5 183q0 161 126.5 268t316.5 107t315 -106.5t125 -268.5q0 -102 -51 -183.5t-141 -129.5q127 -53 202.5 -155t75.5 -238q0 -201 -148 -324t-378 -123t-377.5 122.5t-147.5 324.5zM295 428q0 -134 97 -213.5 t237 -79.5q142 0 239 80t97 213q0 131 -97.5 212t-238.5 81q-138 0 -236 -81t-98 -212zM369 1106q0 -98 74.5 -163.5t185.5 -65.5q112 0 187 65.5t75 163.5t-75 164.5t-187 66.5q-110 0 -185 -66.5t-75 -164.5z" />
<glyph unicode="9" horiz-adv-x="1216" d="M86 1014q0 206 135 343.5t340 137.5q238 0 385.5 -192.5t147.5 -546.5q0 -192 -42.5 -341.5t-118 -242.5t-175.5 -141t-219 -49q-195 0 -371 100l72 154q142 -86 284 -86q178 0 276.5 146t102.5 433q-62 -81 -155 -130.5t-201 -49.5q-135 0 -241 61t-163 167t-57 237z M274 1016q0 -127 78 -218t215 -91q98 0 183.5 53t144.5 147q-23 210 -110.5 314t-225.5 104q-124 0 -204.5 -89.5t-80.5 -219.5z" />
<glyph unicode=":" horiz-adv-x="585" d="M170 109q0 49 35.5 83.5t85.5 34.5q51 0 87 -34.5t36 -83.5q0 -51 -36 -87t-87 -36q-50 0 -85.5 36t-35.5 87zM170 856q0 49 35.5 84t85.5 35q51 0 87 -35t36 -84q0 -51 -36 -87t-87 -36q-50 0 -85.5 36t-35.5 87z" />
<glyph unicode=";" horiz-adv-x="481" d="M109 100q0 -49 32 -80.5t78 -31.5q27 0 51 14q11 -33 11 -63q0 -108 -127 -199l57 -70q90 51 138 132.5t48 174.5q0 96 -50.5 166t-121.5 70q-47 0 -81.5 -33.5t-34.5 -79.5zM119 866q0 49 35.5 84t85.5 35q51 0 86.5 -34.5t35.5 -84.5q0 -51 -35.5 -87t-86.5 -36 q-50 0 -85.5 36t-35.5 87z" />
<glyph unicode="&#x3c;" horiz-adv-x="1460" d="M172 539v139l1116 502v-142l-987 -428l987 -430v-141z" />
<glyph unicode="=" horiz-adv-x="1435" d="M172 336v119h1092v-119h-1092zM172 723v119h1092v-119h-1092z" />
<glyph unicode="&#x3e;" horiz-adv-x="1460" d="M172 35v141l987 430l-987 428v142l1116 -502v-139z" />
<glyph unicode="?" horiz-adv-x="978" d="M41 1300q83 86 195.5 142.5t248.5 56.5q189 0 321 -115.5t132 -298.5q0 -88 -31.5 -161.5t-85.5 -125t-121 -85t-143 -49.5l-12 -277h-142l-14 383q172 22 269.5 102.5t97.5 204.5q0 114 -84 185t-203 71q-93 0 -181.5 -44t-158.5 -120zM356 106q0 49 35.5 84t85.5 35 q51 0 87 -35t36 -84q0 -51 -36 -86.5t-87 -35.5q-50 0 -85.5 35.5t-35.5 86.5z" />
<glyph unicode="@" horiz-adv-x="1914" d="M104 539q0 150 44 284.5t123 238t185 179.5t235 116t267 40q174 0 330 -63t271.5 -174t183 -272.5t67.5 -348.5q0 -189 -95 -304.5t-242 -115.5q-92 0 -158.5 41.5t-93.5 122.5q-45 -76 -122 -120t-171 -44q-162 0 -273.5 114.5t-111.5 294.5q0 178 111.5 292t273.5 114 q82 0 154.5 -37.5t119.5 -99.5v110h127l-2 -483q0 -95 42.5 -145t107.5 -50q88 0 143 83t55 227q0 158 -56 296t-152.5 234.5t-228.5 151.5t-280 55t-280 -55t-228.5 -151.5t-153 -234.5t-56.5 -296q0 -159 56.5 -297.5t153 -235t228.5 -152t280 -55.5q226 0 414 121 l60 -117q-215 -125 -474 -125q-177 0 -333.5 63t-271.5 174.5t-182 273.5t-67 350zM680 528q0 -133 77.5 -216t196.5 -83q82 0 145.5 43t102.5 111v14v279q-40 66 -103.5 107.5t-144.5 41.5q-119 0 -196.5 -83t-77.5 -214z" />
<glyph unicode="A" horiz-adv-x="1357" d="M10 0l572 1487h196l570 -1487h-201l-154 418h-631l-153 -418h-199zM424 582h510l-254 692z" />
<glyph unicode="B" horiz-adv-x="1230" d="M205 0v1475h184h182q214 0 338.5 -102t124.5 -273q0 -110 -61 -195.5t-152 -122.5q127 -31 217 -126.5t90 -239.5q0 -188 -134 -302t-361 -114h-244h-184zM389 160h223q149 0 236.5 74.5t87.5 197.5q0 120 -87.5 190t-236.5 70h-223v-532zM389 840h160q138 0 216.5 64 t78.5 175q0 112 -78.5 175t-216.5 63h-160v-477z" />
<glyph unicode="C" horiz-adv-x="1435" d="M104 735q0 168 60 312t162 242t239.5 153.5t290.5 56.5q306 0 524 -211l-100 -139q-180 180 -424 180q-156 0 -284 -77q-126 -76 -200 -212q-73 -135 -73 -300q0 -130 43 -240.5t117 -188t177 -122t220 -44.5q242 0 428 181l100 -140q-218 -211 -528 -211 q-209 1 -380 95.5t-271.5 268.5t-100.5 396z" />
<glyph unicode="D" horiz-adv-x="1464" d="M205 0v1475h184h229q211 0 380.5 -96t265.5 -264.5t98 -377.5q-1 -156 -58 -293t-154.5 -234.5t-235.5 -153.5t-296 -56h-229h-184zM389 164h203q255 0 413 162t160 411q-1 163 -71.5 293.5t-201.5 205.5t-300 75h-203v-1147z" />
<glyph unicode="E" horiz-adv-x="1097" d="M205 0v1475h768v-164h-584v-473h520v-164h-520v-510h584v-164h-768z" />
<glyph unicode="F" horiz-adv-x="1046" d="M205 0v1475h768v-164h-584v-535h520v-164h-520v-612h-184z" />
<glyph unicode="G" horiz-adv-x="1671" d="M104 735q0 169 60 313t162 242t239.5 153t290.5 56q306 0 524 -211l-100 -139q-180 180 -424 180q-238 0 -398 -169q-159 -168 -159 -422q0 -172 73.5 -307.5t200.5 -210.5t283 -75q215 0 369 128t180 350h-475v161h657q2 -18 2 -57q0 -172 -58 -315t-158 -237.5 t-233 -146t-284 -51.5q-210 1 -380.5 94.5t-271 267.5t-100.5 396z" />
<glyph unicode="H" horiz-adv-x="1566" d="M205 0v1475h184v-639h789v639h184v-1475h-184v674h-789v-674h-184z" />
<glyph unicode="I" horiz-adv-x="593" d="M205 0v1475h184v-1475h-184z" />
<glyph unicode="J" horiz-adv-x="974" d="M41 115l92 141q119 -100 254 -100q107 0 172 67.5t68 194.5v1057h184v-1092q-1 -97 -34.5 -174.5t-91 -126t-130.5 -73.5t-156 -25q-211 0 -358 131z" />
<glyph unicode="K" horiz-adv-x="1316" d="M205 0v1475h184v-760l658 760h219l-590 -684l631 -791h-230l-514 659l-174 -200v-459h-184z" />
<glyph unicode="L" horiz-adv-x="1005" d="M205 0v1475h184v-1311h576v-164h-760z" />
<glyph unicode="M" horiz-adv-x="1908" d="M61 0l281 1479h205l405 -1205l406 1205h205l282 -1479h-190l-213 1229l-410 -1233h-160l-407 1233l-215 -1229h-189z" />
<glyph unicode="N" horiz-adv-x="1654" d="M205 0v1477h213l848 -1229v1227h184v-1477h-215l-846 1227v-1225h-184z" />
<glyph unicode="O" horiz-adv-x="1712" d="M104 735q0 168 60 312t162 242t239.5 153.5t290.5 56.5q153 -1 290.5 -56.5t240 -153.5t163 -242t60.5 -312q0 -221 -101 -395.5t-272.5 -269t-380.5 -95.5q-209 1 -380 95.5t-271.5 268.5t-100.5 396zM342 499q43 -110 117 -187.5t177 -122t220 -44.5q239 0 398 167.5 t159 422.5v5q0 166 -72 300q-73 136 -200.5 212.5t-284.5 76.5q-156 0 -284 -77q-126 -76 -200 -212q-73 -135 -73 -300q0 -131 43 -241z" />
<glyph unicode="P" horiz-adv-x="1136" d="M205 0v1475h184h191q223 0 368 -132t148 -344q-3 -212 -148 -343.5t-368 -131.5h-191v-524h-184zM389 688h166q157 0 252 82.5t96 228.5q-1 146 -96.5 229t-251.5 83h-166v-623z" />
<glyph unicode="Q" horiz-adv-x="1753" d="M104 735q0 168 60 312t162 242t239.5 153.5t290.5 56.5q153 -1 290.5 -56.5t240 -153.5t163 -242t60.5 -312q0 -227 -105.5 -403t-285.5 -271q83 -200 270 -200q37 0 80 12l28 -139q-70 -25 -139 -25q-142 0 -245.5 76.5t-157.5 214.5q-98 -25 -199 -25q-209 1 -380 95.5 t-271.5 268.5t-100.5 396zM342 499q43 -110 117 -187.5t177 -122t220 -44.5q239 0 398 167.5t159 422.5v5q0 165 -72 300q-73 136 -200.5 212.5t-284.5 76.5q-156 0 -283.5 -76.5t-200.5 -212.5q-73 -135 -73 -300q0 -131 43 -241z" />
<glyph unicode="R" horiz-adv-x="1193" d="M205 0v1475h184h201q219 0 359.5 -127t140.5 -330q0 -155 -87 -268t-235 -158l406 -592h-211l-369 567h-4h-201v-567h-184zM389 727h186q143 0 233.5 80.5t90.5 210.5q0 131 -90.5 212t-233.5 81h-186v-584z" />
<glyph unicode="S" horiz-adv-x="1126" d="M82 158l96 149q187 -162 387 -162q129 -1 209 63q79 63 78 166q0 52 -25 95t-67 76.5t-96 65t-113.5 62t-119.5 63t-114 71.5t-95.5 83.5t-66 104.5t-24.5 129q0 163 129 269t318 106q229 0 430 -151l-93 -146q-172 129 -335 129q-111 0 -183.5 -58.5t-72.5 -148.5 q0 -54 31 -100.5t81.5 -80.5t115 -69.5t132 -67t132 -74t115 -89t82 -114t31.5 -149.5q0 -186 -135 -294q-136 -109 -344 -109q-147 0 -272.5 51.5t-210.5 129.5z" />
<glyph unicode="T" horiz-adv-x="1085" d="M41 1311v164h1003v-164h-409v-1311h-184v1311h-410z" />
<glyph unicode="U" horiz-adv-x="1388" d="M164 483v992h184l2 -959q0 -174 91 -272.5t253 -98.5t254 98.5t92 272.5v959h185v-992q0 -235 -143.5 -373.5t-387.5 -138.5q-243 0 -386.5 138.5t-143.5 373.5z" />
<glyph unicode="V" horiz-adv-x="1277" d="M10 1475h197l434 -1293l432 1293h193l-518 -1483h-216z" />
<glyph unicode="W" horiz-adv-x="2052" d="M10 1475h203l362 -1203l369 1211h162l369 -1215l362 1207h203l-475 -1479h-176l-363 1198l-364 -1198h-177z" />
<glyph unicode="X" horiz-adv-x="1271" d="M10 0l522 762l-475 713h213l367 -570l360 570h215l-477 -719l527 -756h-228l-399 606l-397 -606h-228z" />
<glyph unicode="Y" horiz-adv-x="1224" d="M25 1475h196l391 -732l392 732h196l-491 -904v-571h-191v569z" />
<glyph unicode="Z" horiz-adv-x="1216" d="M82 18l752 1293h-709l-2 164h991l2 -21l-743 -1290h762v-164h-1049z" />
<glyph unicode="[" horiz-adv-x="747" d="M205 -360v1933h440v-164h-256v-1604h256v-165h-440z" />
<glyph unicode="\" horiz-adv-x="763" d="M20 1597h166l555 -1865h-163z" />
<glyph unicode="]" horiz-adv-x="747" d="M102 -195h256v1604h-256v164h441v-1933h-441v165z" />
<glyph unicode="^" horiz-adv-x="1236" d="M123 895l409 580h175l407 -580h-188l-308 457l-305 -457h-190z" />
<glyph unicode="_" horiz-adv-x="1222" d="M102 -117h1016v-127h-1016v127z" />
<glyph unicode="`" horiz-adv-x="534" d="M86 1499h201l162 -309h-164z" />
<glyph unicode="a" horiz-adv-x="1128" d="M86 307q0 143 105 230.5t270 87.5q191 0 332 -105l2 88q0 139 -72 216t-205 77q-147 0 -313 -74l-43 138q195 79 391 79q202 0 312 -111t110 -302v-631h-164l-12 129q-54 -60 -143.5 -102.5t-198.5 -42.5q-164 0 -267.5 87.5t-103.5 235.5zM268 324q0 -90 67.5 -143.5 t168.5 -53.5q94 0 167.5 39.5t121.5 89.5l2 158q-128 104 -291 104q-104 0 -170 -52t-66 -142z" />
<glyph unicode="b" horiz-adv-x="1286" d="M172 0v1565h180v-686q60 74 147 121t197 47q92 0 177 -34.5t153.5 -99t110 -168.5t41.5 -231t-41.5 -230.5t-110 -168t-153.5 -99t-177 -34.5q-113 0 -202 47t-148 123l-10 -152h-164zM352 301q123 -170 307 -170q61 0 119.5 24.5t106.5 71t77 121t29 166.5 q0 91 -29 165.5t-77 120.5t-106.5 70.5t-119.5 24.5q-185 0 -307 -172v-422z" />
<glyph unicode="c" horiz-adv-x="1077" d="M119 514q0 125 45 228t120 167.5t169 99.5t196 35q212 0 352 -118l-79 -129q-116 94 -260 94q-68 0 -131 -24.5t-113.5 -70t-80.5 -119t-30 -163.5t30 -163.5t80.5 -119t113.5 -70t131 -24.5q153 0 266 96l82 -131q-144 -118 -361 -118q-102 0 -196 35t-169 99.5 t-120 167.5t-45 228z" />
<glyph unicode="d" horiz-adv-x="1286" d="M109 514q0 102 27 190t73 150t108 106.5t131 65.5t142 21q110 0 197 -47t147 -121v686h180v-1565h-164l-10 152q-59 -76 -148 -123t-202 -47q-92 0 -177 34.5t-153.5 99t-109.5 168t-41 230.5zM295 514q0 -92 29 -166.5t77 -121t106.5 -71t119.5 -24.5q184 0 307 170v422 q-122 172 -307 172q-61 0 -119.5 -24.5t-106.5 -70.5t-77 -120.5t-29 -165.5z" />
<glyph unicode="e" horiz-adv-x="1226" d="M119 514q0 125 44 228t117 169t165.5 102t191.5 36q101 0 191 -37.5t157 -103t106 -162t39 -209.5q0 -35 -4 -58h-823q5 -86 37 -154t82 -110.5t113 -65t133 -22.5q165 0 297 98l71 -125q-159 -118 -377 -118q-237 0 -388.5 146.5t-151.5 385.5zM305 588h645 q-18 147 -104.5 231t-208.5 84q-128 0 -219.5 -84t-112.5 -231z" />
<glyph unicode="f" horiz-adv-x="679" d="M47 877v149h162v277q0 136 76 214t192 78q92 0 191 -30l-33 -142q-71 19 -119 19q-58 0 -92.5 -41.5t-34.5 -116.5v-258h258v-149h-258v-877h-180v877h-162z" />
<glyph unicode="g" horiz-adv-x="1302" d="M119 524q0 99 27 184.5t73.5 146t107.5 104t130.5 64.5t142.5 21q112 0 202 -49.5t150 -126.5l4 160h174v-915q0 -247 -147.5 -399t-394.5 -152q-139 0 -242 20l21 150q100 -21 198 -21q189 0 287 109.5t98 312.5v43q-60 -76 -149 -124t-201 -48q-73 0 -142.5 21 t-130.5 64.5t-107.5 104t-73.5 146t-27 184.5zM305 524q0 -88 29 -160t77 -117t106.5 -69t119.5 -24q94 0 174.5 45t138.5 131v387q-118 180 -313 180q-61 0 -119.5 -24.5t-106.5 -70t-77 -118t-29 -160.5z" />
<glyph unicode="h" horiz-adv-x="1218" d="M172 0v1583h180v-709q175 175 369 175q150 0 247 -96.5t97 -262.5v-690h-180v635q0 127 -63.5 193.5t-166.5 66.5q-145 0 -303 -166v-729h-180z" />
<glyph unicode="i" horiz-adv-x="475" d="M119 1343q0 49 34.5 83t84.5 34q48 0 83 -34t35 -83t-35 -82.5t-83 -33.5q-50 0 -84.5 33.5t-34.5 82.5zM147 0v1028h181v-1028h-181z" />
<glyph unicode="j" horiz-adv-x="466" d="M-123 -424l21 145q77 -10 94 -10q67 0 106 44t39 128v1145h182l-4 -1175q0 -140 -81.5 -215.5t-204.5 -75.5q-81 0 -152 14zM111 1341q0 49 34 83t84 34q48 0 83.5 -34t35.5 -83t-35.5 -82.5t-83.5 -33.5q-50 0 -84 33.5t-34 82.5z" />
<glyph unicode="k" horiz-adv-x="1116" d="M172 0v1589h180v-1046l498 485h221l-473 -463l502 -565h-221l-398 451l-129 -125v-326h-180z" />
<glyph unicode="l" horiz-adv-x="524" d="M172 0v1589h180v-1589h-180z" />
<glyph unicode="m" horiz-adv-x="1859" d="M172 0v1028h170l8 -162q180 187 369 187q104 0 180.5 -50t110.5 -141q173 191 383 191q137 0 225 -89t88 -237v-727h-182v668q0 108 -50 171.5t-145 63.5q-139 0 -297 -158v-18v-727h-182v668q0 108 -51 171.5t-144 63.5q-136 0 -303 -174v-729h-180z" />
<glyph unicode="n" horiz-adv-x="1218" d="M172 0v1028h170l8 -154q183 175 371 175q150 0 247 -96.5t97 -262.5v-690h-180v635q0 127 -63.5 193.5t-166.5 66.5q-145 0 -303 -166v-729h-180z" />
<glyph unicode="o" horiz-adv-x="1290" d="M119 514q0 125 45 229t119.5 170t168 102t193.5 36t193.5 -36t167.5 -102t118.5 -170t44.5 -229q0 -127 -44.5 -231.5t-119 -170t-167 -100.5t-193.5 -35t-194 35t-167.5 100.5t-119.5 170t-45 231.5zM307 514q0 -90 29 -164.5t77 -121.5t108 -72t124 -25t124 25t108 72 t77 121.5t29 164.5t-29 164.5t-77 121.5t-108 72t-124 25t-124 -25t-108 -72t-77 -121.5t-29 -164.5z" />
<glyph unicode="p" horiz-adv-x="1298" d="M172 -430v1458h164l10 -158q60 78 149 127.5t201 49.5q92 0 177 -34.5t153.5 -99t110 -168.5t41.5 -231t-41.5 -230.5t-110 -168t-153.5 -99t-177 -34.5q-110 0 -197.5 45.5t-146.5 117.5v-575h-180zM352 301q123 -170 307 -170q61 0 119.5 24.5t106.5 71t77 121 t29 166.5q0 91 -29 165.5t-77 120.5t-106.5 70.5t-119.5 24.5q-185 0 -307 -172v-422z" />
<glyph unicode="q" horiz-adv-x="1298" d="M121 514q0 102 27 190t73 150t108 106.5t131 65.5t142 21q112 0 201 -49.5t149 -127.5l11 158h163v-1458h-180v575q-59 -72 -146.5 -117.5t-197.5 -45.5q-92 0 -177 34.5t-153.5 99t-109.5 168t-41 230.5zM307 514q0 -92 29 -166.5t77 -121t106.5 -71t119.5 -24.5 q184 0 307 170v422q-122 172 -307 172q-61 0 -119.5 -24.5t-106.5 -70.5t-77 -120.5t-29 -165.5z" />
<glyph unicode="r" horiz-adv-x="800" d="M172 0v1028h170l10 -166q72 80 178 131q92 44 191 44q15 0 31 -1v-164q-21 2 -42 2q-89 0 -174 -35q-105 -43 -184 -122v-717h-180z" />
<glyph unicode="s" horiz-adv-x="970" d="M86 111l78 131q161 -125 313 -125q100 0 158.5 42t58.5 115q0 43 -31 77t-81 58t-110 47.5t-120.5 51t-110.5 61t-81 86t-31 119.5q0 120 105.5 198.5t269.5 78.5q183 0 360 -107l-65 -129q-150 98 -285 98q-87 0 -141 -38t-54 -97q0 -40 31.5 -72.5t81.5 -56t110.5 -46 t121 -50t110.5 -62t81.5 -88t31.5 -120.5q0 -137 -109 -221.5t-295 -84.5q-115 0 -218 37t-179 97z" />
<glyph unicode="t" horiz-adv-x="753" d="M47 877v151h152v238l182 32v-270h285v-151h-285v-590q0 -71 30.5 -108.5t86.5 -37.5q65 0 141 49l47 -133q-115 -71 -237 -71q-117 0 -182.5 69.5t-65.5 202.5l-2 619h-152z" />
<glyph unicode="u" horiz-adv-x="1218" d="M154 338v690h180v-635q0 -127 63 -193.5t166 -66.5q145 0 303 166v729h181v-1028h-170l-9 154q-182 -174 -370 -174q-150 0 -247 96t-97 262z" />
<glyph unicode="v" horiz-adv-x="1019" d="M16 1028h195l301 -854l305 854h187l-394 -1034h-202z" />
<glyph unicode="w" horiz-adv-x="1619" d="M16 1028h185l268 -829l260 833h162l260 -833l266 829h185l-355 -1036h-176l-260 862l-262 -862h-178z" />
<glyph unicode="x" horiz-adv-x="1056" d="M16 0l412 526l-379 502h205l272 -375l271 375h204l-380 -502l419 -526h-215l-301 399l-297 -399h-211z" />
<glyph unicode="y" horiz-adv-x="1226" d="M162 352v676h180v-620q0 -125 63 -191.5t166 -66.5q150 0 303 157v721h181v-934q0 -239 -142.5 -385.5t-388.5 -146.5q-89 0 -192 14l18 145q80 -12 156 -12q176 0 272 105.5t96 294.5v57q-170 -166 -370 -166q-148 0 -245 93.5t-97 258.5z" />
<glyph unicode="z" horiz-adv-x="1005" d="M51 0v12l600 865h-565v151h854v-16l-596 -862h596v-150h-889z" />
<glyph unicode="{" horiz-adv-x="669" d="M143 567v13q113 85 113 227v371q0 177 92.5 271.5t280.5 94.5v-164q-94 -3 -141.5 -62t-47.5 -151v-360q0 -153 -104 -234q104 -78 104 -231v-330q0 -93 47.5 -152.5t141.5 -60.5v-166q-188 0 -280.5 95t-92.5 272v342q0 140 -113 225z" />
<glyph unicode="|" horiz-adv-x="575" d="M205 -336v1933h166v-1933h-166z" />
<glyph unicode="}" horiz-adv-x="669" d="M41 -201q94 1 141 60.5t47 152.5v330q0 152 105 231q-105 82 -105 234v360q0 92 -47 151t-141 62v164q188 0 280.5 -94.5t92.5 -271.5v-371q0 -143 112 -227v-13q-112 -84 -112 -225v-342q0 -177 -92.5 -272t-280.5 -95v166z" />
<glyph unicode="~" horiz-adv-x="1052" d="M86 553q4 136 75.5 213.5t174.5 77.5q48 0 90.5 -16.5t74.5 -39.5t61.5 -46t62.5 -39.5t67 -16.5q54 0 87 37.5t40 91.5h148q-4 -136 -76 -213.5t-176 -77.5q-47 0 -90 16.5t-75 39.5t-62 46t-63 39.5t-65 16.5q-55 0 -86.5 -35.5t-37.5 -93.5h-150z" />
<glyph unicode="&#xa1;" horiz-adv-x="585" d="M170 936q0 51 35.5 87t85.5 36q51 0 87 -36t36 -87q0 -49 -36 -84t-87 -35q-50 0 -85.5 35t-35.5 84zM190 -430l33 1085h139l33 -1085h-205z" />
<glyph unicode="&#xa2;" horiz-adv-x="1054" d="M82 741q0 101 30.5 187.5t82.5 148.5t120.5 106t146.5 65.5t159 21.5h22l37 205h78l-37 -213q139 -19 252 -111l-80 -129q-85 73 -199 88l-129 -739q30 -6 66 -6q149 0 262 92l80 -129q-145 -119 -352 -119q-41 0 -84 6l-37 -215h-78l41 231q-166 46 -273.5 178.5 t-107.5 331.5zM270 741q0 -131 61 -221t158 -129l127 723q-66 -2 -127 -27t-110.5 -70t-79 -116.5t-29.5 -159.5z" />
<glyph unicode="&#xa3;" horiz-adv-x="1069" d="M84 1094q0 118 60 211t160 142.5t220 49.5q248 0 463 -215l-92 -133q-84 82 -166 129t-178 47q-118 0 -196.5 -69.5t-78.5 -182.5q0 -60 25.5 -124t57.5 -112.5t68 -114.5t52 -122h377v-78h-362q2 -10 2 -30q0 -145 -152 -326h629v-166h-885l-2 111q225 202 225 381 q0 20 -2 30h-223v78h205q-16 48 -54 113t-70 115t-57.5 122t-25.5 144z" />
<glyph unicode="&#xa4;" horiz-adv-x="1261" d="M82 299l170 170q-78 116 -78 260q0 153 86 270l-174 175l55 57l170 -170q66 61 148.5 94t169.5 33t170 -34t147 -97l174 174l56 -57l-177 -177q82 -116 82 -268q0 -144 -75 -256l174 -174l-56 -55l-168 168q-64 -67 -150.5 -103.5t-176.5 -36.5t-176 36t-150 102 l-166 -166zM340 729q0 -92 44.5 -162.5t109 -104.5t135.5 -34q70 0 135 34t109.5 104.5t44.5 162.5q0 137 -89 219t-200 82q-71 0 -135.5 -33.5t-109 -104t-44.5 -163.5z" />
<glyph unicode="&#xa5;" horiz-adv-x="1224" d="M25 1475h196l391 -732l392 732h196l-477 -875h356v-76h-370v-196h370v-76h-370v-252h-191v252h-334v76h334v196h-334v76h318z" />
<glyph unicode="&#xa6;" horiz-adv-x="575" d="M205 -336v725h166v-725h-166zM205 872v725h166v-725h-166z" />
<glyph unicode="&#xa7;" horiz-adv-x="1044" d="M82 -141l90 139q66 -57 154.5 -94t171.5 -37q110 0 178.5 49.5t68.5 130.5q0 47 -27.5 86t-73 65t-103 53.5t-118 50t-118 55t-103 69t-73 91.5t-27.5 122q0 93 64.5 166t159.5 102q-88 51 -137.5 116.5t-49.5 158.5q0 134 111 221.5t274 87.5q211 0 375 -123l-76 -135 q-137 102 -293 102q-88 0 -143 -42.5t-55 -110.5q0 -50 35 -89.5t90.5 -67.5t123 -55.5t134.5 -60t122.5 -73t90.5 -103t35 -141.5q0 -87 -49 -159t-132 -122q154 -104 154 -262q0 -155 -118.5 -247.5t-319.5 -92.5q-112 0 -223.5 41.5t-192.5 108.5zM285 655q0 -27 9 -51 t30 -45t41.5 -37t57 -34.5t61.5 -30t71 -31.5t70 -31q76 19 117.5 65.5t41.5 110.5q0 39 -17 72.5t-39.5 56.5t-66.5 48.5t-75.5 40t-89.5 38.5q-91 -8 -151 -55.5t-60 -116.5z" />
<glyph unicode="&#xa8;" horiz-adv-x="679" d="M86 1339q0 41 29 69t69 28q39 0 68 -28t29 -69t-29 -69.5t-68 -28.5q-40 0 -69 28.5t-29 69.5zM399 1339q0 41 29 69t68 28q40 0 69 -28t29 -69t-29 -69.5t-69 -28.5q-39 0 -68 28.5t-29 69.5z" />
<glyph unicode="&#xa9;" horiz-adv-x="1667" d="M104 735q0 157 60 293.5t160.5 230t233 148t276.5 55.5q144 -1 276.5 -55.5t232.5 -148t160 -230t60 -293.5q0 -206 -99.5 -372t-265.5 -257.5t-364 -93.5q-148 1 -281.5 55.5t-232.5 148.5t-157.5 229t-58.5 290zM217 735q0 -178 84.5 -319.5t225 -218t307.5 -76.5 q168 0 308 76.5t224 218t84 319.5q0 177 -84 320t-224.5 222t-307.5 79q-124 0 -237 -46.5t-197 -127.5t-133.5 -197.5t-49.5 -249.5zM467 737q0 88 33 160.5t87 117.5t120.5 69t136.5 24q155 0 260 -92l-60 -84q-81 74 -192 74q-107 0 -189 -72.5t-81 -196.5 q0 -123 81.5 -193.5t188.5 -70.5q110 0 192 72l60 -84q-105 -92 -260 -92q-70 0 -136.5 24t-120.5 68.5t-87 116.5t-33 159z" />
<glyph unicode="&#xaa;" horiz-adv-x="806" d="M123 1053q0 87 65 139.5t166 52.5q117 0 207 -65v49q0 162 -164 162q-77 0 -190 -37l-25 94q127 43 234 43q126 0 197 -64.5t71 -179.5v-379h-109l-10 82q-36 -38 -93 -66t-120 -28q-99 0 -164 55t-65 142zM254 1063q0 -50 39 -79.5t96 -29.5q50 0 98 24t74 52v82 q-27 24 -74 43t-98 19q-58 0 -96.5 -29.5t-38.5 -81.5z" />
<glyph unicode="&#xab;" horiz-adv-x="1288" d="M172 610v15l363 401h174l-379 -410l379 -409h-174zM582 610v15l362 401h174l-379 -410l379 -409h-174z" />
<glyph unicode="&#xac;" horiz-adv-x="1435" d="M172 610v119h1092v-414h-123v295h-969z" />
<glyph unicode="&#xad;" horiz-adv-x="825" d="M86 530v150h653v-150h-653z" />
<glyph unicode="&#xae;" horiz-adv-x="1185" d="M123 1155q0 135 66 244.5t173.5 168t231.5 58.5q123 0 230 -58.5t173 -168t66 -244.5q0 -204 -135.5 -336.5t-333.5 -132.5q-196 0 -333.5 133t-137.5 336zM223 1155q0 -160 108 -267.5t263 -107.5q154 0 261.5 107.5t107.5 267.5q0 159 -108 267t-261 108 q-155 0 -263 -108t-108 -267zM434 930v469h88h96q71 0 118.5 -46.5t47.5 -111.5q0 -45 -25 -81.5t-67 -55.5l117 -174h-104l-93 160h-90v-160h-88zM522 1167h84q35 0 58.5 21t23.5 53t-23.5 54t-58.5 22h-84v-150z" />
<glyph unicode="&#xaf;" horiz-adv-x="712" d="M86 1311v123h541v-123h-541z" />
<glyph unicode="&#xb0;" horiz-adv-x="829" d="M123 1202q0 124 85.5 206.5t203.5 82.5q120 0 207.5 -83t87.5 -206q0 -127 -87 -208t-208 -81q-119 0 -204 81t-85 208zM242 1202q0 -78 51 -129t121 -51t122 51.5t52 128.5t-52 127.5t-122 50.5t-121 -50.5t-51 -127.5z" />
<glyph unicode="&#xb1;" horiz-adv-x="1435" d="M172 106v119h1092v-119h-1092zM172 713v118h485v363h121v-363h486v-118h-486v-338h-121v338h-485z" />
<glyph unicode="&#xb2;" horiz-adv-x="684" d="M49 1556q141 130 301 130q117 0 196 -65.5t79 -176.5q0 -59 -26 -107.5t-65.5 -79t-89 -62t-94.5 -58t-83.5 -66.5t-55.5 -86h426v-113h-586v13q7 79 34.5 142t66.5 102.5t85 71.5t90 56.5t80.5 49t59 57t22.5 72.5q0 56 -41 91.5t-108 35.5q-116 0 -221 -101z" />
<glyph unicode="&#xb3;" horiz-adv-x="677" d="M47 954l64 101q102 -74 217 -74q73 0 120.5 35.5t47.5 91.5q0 64 -59 100.5t-163 36.5v88q86 0 137.5 35.5t51.5 89.5q0 47 -38.5 79.5t-98.5 33.5q-96 0 -191 -70l-57 96q125 93 256 93q112 0 186 -60.5t74 -156.5q0 -120 -117 -177q68 -27 110 -77.5t42 -122.5 q0 -103 -82 -169.5t-213 -66.5q-160 0 -287 94z" />
<glyph unicode="&#xb4;" horiz-adv-x="534" d="M86 1190l162 309h201l-199 -309h-164z" />
<glyph unicode="&#xb5;" horiz-adv-x="1222" d="M154 -451v1479h182v-622q0 -137 66 -204t169 -67q151 0 299 166v727h181v-1028h-168l-11 150q-135 -166 -307 -166q-151 0 -229 116v-551h-182z" />
<glyph unicode="&#xb6;" horiz-adv-x="1302" d="M41 1063q0 183 126 297.5t318 114.5h185v-1741h-158v917h-27q-192 0 -318 114.5t-126 297.5zM940 -266v1741h156v-1741h-156z" />
<glyph unicode="&#xb7;" horiz-adv-x="413" d="M86 612q0 49 35.5 84t85.5 35q51 0 87 -35t36 -84q0 -51 -36 -87t-87 -36q-50 0 -85.5 36t-35.5 87z" />
<glyph unicode="&#xb8;" horiz-adv-x="593" d="M86 -375l57 94q64 -45 148 -45q45 0 74.5 24.5t29.5 63.5q0 38 -28 62t-76 24q-51 0 -96 -20l-7 4l78 168l45 23l45 -23l-28 -86q75 -2 127.5 -48t52.5 -118q0 -78 -59.5 -130t-149.5 -52q-130 0 -213 59z" />
<glyph unicode="&#xb9;" horiz-adv-x="522" d="M61 1513q70 14 136 54.5t108 111.5h98v-805h-131v615q-74 -64 -184 -78z" />
<glyph unicode="&#xba;" horiz-adv-x="892" d="M123 1169q0 74 28.5 136t75 101.5t104 61t118.5 21.5q81 0 153 -36t120 -111t48 -173t-48 -172t-120 -109.5t-153 -35.5q-82 0 -155 35.5t-122 109.5t-49 172zM254 1169q0 -95 59 -150.5t136 -55.5q75 0 132.5 55.5t57.5 150.5q0 98 -57.5 153.5t-132.5 55.5 q-77 0 -136 -55.5t-59 -153.5z" />
<glyph unicode="&#xbb;" horiz-adv-x="1288" d="M170 207l379 409l-379 410h174l363 -401v-15l-363 -403h-174zM580 207l378 409l-378 410h174l362 -401v-15l-362 -403h-174z" />
<glyph unicode="&#xbc;" horiz-adv-x="1587" d="M55 0l1108 1475h123l-1108 -1475h-123zM61 1309q70 14 136 54.5t108 111.5h98v-805h-131v614q-74 -64 -184 -78zM866 231q74 113 142 277t92 293h131q-27 -128 -83.5 -272.5t-121.5 -258.5h262v277h127v-277h123v-112h-123v-158h-127v158h-403z" />
<glyph unicode="&#xbd;" horiz-adv-x="1503" d="M55 0l1108 1475h123l-1108 -1475h-123zM61 1309q70 14 136 54.5t108 111.5h98v-805h-131v614q-74 -64 -184 -78zM868 684q140 129 301 129q117 0 196 -65.5t79 -176.5q0 -51 -19 -93.5t-50.5 -72.5t-70.5 -56t-81 -51t-79.5 -50t-68.5 -60t-45 -75h426v-113h-586v12 q7 79 34.5 142t67 102.5t85 71.5t90 56.5t81 49t59 57t22.5 72.5q0 56 -41.5 91.5t-108.5 35.5q-117 0 -221 -100z" />
<glyph unicode="&#xbe;" horiz-adv-x="1742" d="M47 750l64 100q102 -74 217 -74q73 0 120.5 35.5t47.5 91.5q0 64 -59 100.5t-163 36.5v88q86 0 137.5 35.5t51.5 89.5q0 47 -38.5 79.5t-98.5 33.5q-96 0 -191 -70l-57 97q123 92 256 92q112 0 186 -60.5t74 -156.5q0 -119 -117 -176q68 -27 110 -78t42 -123 q0 -103 -82 -169.5t-213 -66.5q-159 0 -287 95zM211 0l1108 1475h123l-1108 -1475h-123zM1022 231q73 112 141 276t92 294h131q-28 -128 -83.5 -273t-120.5 -258h262v277h127v-277h123v-112h-123v-158h-127v158h-404z" />
<glyph unicode="&#xbf;" horiz-adv-x="978" d="M41 -39q0 88 31.5 162t85.5 125t121 85t143 50l12 276h141l15 -383q-172 -22 -269.5 -102.5t-97.5 -204.5q0 -114 84 -185t203 -71q93 0 181.5 44t158.5 120l88 -131q-83 -86 -195.5 -142.5t-248.5 -56.5q-189 0 -321 115.5t-132 298.5zM379 940q0 51 36 87t87 36 q50 0 85.5 -36t35.5 -87q0 -49 -35.5 -84t-85.5 -35q-51 0 -87 35t-36 84z" />
<glyph unicode="&#xc0;" horiz-adv-x="1357" d="M10 0l572 1487h196l570 -1487h-201l-154 418h-631l-153 -418h-199zM399 1946h201l162 -310h-164zM424 582h510l-254 692z" />
<glyph unicode="&#xc1;" horiz-adv-x="1357" d="M10 0l572 1487h196l570 -1487h-201l-154 418h-631l-153 -418h-199zM424 582h510l-254 692zM596 1628l162 309h200l-198 -309h-164z" />
<glyph unicode="&#xc2;" horiz-adv-x="1357" d="M10 0l572 1487h196l570 -1487h-201l-154 418h-631l-153 -418h-199zM354 1634l254 299h142l254 -299h-168l-158 207l-158 -207h-166zM424 582h510l-254 692z" />
<glyph unicode="&#xc3;" horiz-adv-x="1357" d="M10 0l572 1487h196l570 -1487h-201l-154 418h-631l-153 -418h-199zM401 1735v131q66 51 152 51q55 0 133 -35t121 -35q81 0 151 60v-131q-59 -52 -151 -52q-53 0 -131.5 35t-124.5 35q-81 0 -150 -59zM424 582h510l-254 692z" />
<glyph unicode="&#xc4;" horiz-adv-x="1357" d="M10 0l572 1487h196l570 -1487h-201l-154 418h-631l-153 -418h-199zM424 582h510l-254 692zM426 1778q0 41 29 68.5t69 27.5q39 0 68 -28t29 -68q0 -41 -29 -70t-68 -29q-40 0 -69 29t-29 70zM739 1778q0 40 29 68t68 28q40 0 69 -27.5t29 -68.5t-29 -70t-69 -29 q-39 0 -68 29t-29 70z" />
<glyph unicode="&#xc5;" horiz-adv-x="1357" d="M10 0l572 1487h196l570 -1487h-201l-154 418h-631l-153 -418h-199zM424 582h510l-254 692zM475 1800q0 88 61.5 145.5t143.5 57.5q84 0 145.5 -57.5t61.5 -145.5q0 -90 -61 -146.5t-146 -56.5q-83 0 -144 57t-61 146zM571 1800q0 -49 33 -81.5t76 -32.5q46 0 78.5 32 t32.5 82t-33 82.5t-78 32.5q-43 0 -76 -33t-33 -82z" />
<glyph unicode="&#xc6;" horiz-adv-x="1822" d="M10 0l803 1475h885v-164h-584v-473h520v-164h-520v-510h584v-164h-768v418h-490l-223 -418h-207zM528 582h402v749z" />
<glyph unicode="&#xc7;" horiz-adv-x="1435" d="M104 735q0 168 60 312t162 242t239.5 153.5t290.5 56.5q306 0 524 -211l-100 -139q-180 180 -424 180q-156 0 -283.5 -76.5t-201 -213t-72.5 -304.5q0 -126 43 -236t117 -187.5t177 -122t220 -44.5q242 0 428 181l100 -140q-216 -208 -520 -211l-20 -61q75 -2 127.5 -48 t52.5 -118q0 -78 -59.5 -130t-149.5 -52q-130 0 -213 59l57 94q64 -45 148 -45q45 0 74.5 24.5t29.5 63.5q0 38 -28 62t-76 24q-51 0 -96 -20l-6 4l67 148q-190 20 -341 118t-239 264.5t-88 372.5z" />
<glyph unicode="&#xc8;" horiz-adv-x="1097" d="M205 0v1475h768v-164h-584v-473h520v-164h-520v-510h584v-164h-768zM301 1946h201l162 -310h-164z" />
<glyph unicode="&#xc9;" horiz-adv-x="1097" d="M205 0v1475h768v-164h-584v-473h520v-164h-520v-510h584v-164h-768zM498 1628l161 309h201l-198 -309h-164z" />
<glyph unicode="&#xca;" horiz-adv-x="1097" d="M205 0v1475h768v-164h-584v-473h520v-164h-520v-510h584v-164h-768zM256 1634l254 299h141l254 -299h-168l-157 207l-158 -207h-166z" />
<glyph unicode="&#xcb;" horiz-adv-x="1097" d="M205 0v1475h768v-164h-584v-473h520v-164h-520v-510h584v-164h-768zM328 1778q0 41 29 68.5t69 27.5q39 0 67.5 -27.5t28.5 -68.5t-28.5 -70t-67.5 -29q-40 0 -69 29t-29 70zM641 1778q0 41 28.5 68.5t67.5 27.5q40 0 69.5 -27.5t29.5 -68.5t-29.5 -70t-69.5 -29 q-39 0 -67.5 29t-28.5 70z" />
<glyph unicode="&#xcc;" horiz-adv-x="593" d="M16 1946h201l162 -310h-164zM205 0v1475h184v-1475h-184z" />
<glyph unicode="&#xcd;" horiz-adv-x="593" d="M205 0v1475h184v-1475h-184zM213 1628l162 309h200l-198 -309h-164z" />
<glyph unicode="&#xce;" horiz-adv-x="593" d="M-29 1634l254 299h142l254 -299h-168l-158 207l-158 -207h-166zM205 0v1475h184v-1475h-184z" />
<glyph unicode="&#xcf;" horiz-adv-x="593" d="M43 1778q0 41 29 68.5t69 27.5q39 0 68 -28t29 -68q0 -41 -29 -70t-68 -29q-40 0 -69 29t-29 70zM205 0v1475h184v-1475h-184zM356 1778q0 40 29 68t68 28q40 0 69 -27.5t29 -68.5t-29 -70t-69 -29q-39 0 -68 29t-29 70z" />
<glyph unicode="&#xd0;" horiz-adv-x="1464" d="M31 672v141h174v662h184h229q211 0 380.5 -96t265.5 -264.5t98 -377.5q-1 -156 -58 -293t-154.5 -234.5t-235.5 -153.5t-296 -56h-229h-184v672h-174zM389 164h203q255 0 413 162t160 411q-1 163 -71.5 293.5t-201.5 205.5t-300 75h-203v-498h264v-141h-264v-508z" />
<glyph unicode="&#xd1;" horiz-adv-x="1654" d="M205 0v1477h213l848 -1229v1227h184v-1477h-215l-846 1227v-1225h-184zM549 1735v131q66 51 151 51q55 0 133 -35t121 -35q82 0 152 60v-131q-59 -52 -152 -52q-53 0 -131.5 35t-124.5 35q-80 0 -149 -59z" />
<glyph unicode="&#xd2;" horiz-adv-x="1712" d="M104 735q0 168 60 312t162 242t239.5 153.5t290.5 56.5q153 -1 290.5 -56.5t240 -153.5t163 -242t60.5 -312q0 -221 -101 -395.5t-272.5 -269t-380.5 -95.5q-209 1 -380 95.5t-271.5 268.5t-100.5 396zM299 735q0 -126 43 -236t117 -187.5t177 -122t220 -44.5 q239 0 398 167.5t159 422.5q1 168 -72 304.5t-200.5 213t-284.5 76.5q-156 0 -283.5 -76.5t-201 -213t-72.5 -304.5zM575 1946h201l162 -310h-164z" />
<glyph unicode="&#xd3;" horiz-adv-x="1712" d="M104 735q0 168 60 312t162 242t239.5 153.5t290.5 56.5q153 -1 290.5 -56.5t240 -153.5t163 -242t60.5 -312q0 -221 -101 -395.5t-272.5 -269t-380.5 -95.5q-209 1 -380 95.5t-271.5 268.5t-100.5 396zM299 735q0 -126 43 -236t117 -187.5t177 -122t220 -44.5 q239 0 398 167.5t159 422.5q1 168 -72 304.5t-200.5 213t-284.5 76.5q-156 0 -283.5 -76.5t-201 -213t-72.5 -304.5zM772 1628l162 309h201l-199 -309h-164z" />
<glyph unicode="&#xd4;" horiz-adv-x="1712" d="M104 735q0 168 60 312t162 242t239.5 153.5t290.5 56.5q153 -1 290.5 -56.5t240 -153.5t163 -242t60.5 -312q0 -221 -101 -395.5t-272.5 -269t-380.5 -95.5q-209 1 -380 95.5t-271.5 268.5t-100.5 396zM299 735q0 -126 43 -236t117 -187.5t177 -122t220 -44.5 q239 0 398 167.5t159 422.5q1 168 -72 304.5t-200.5 213t-284.5 76.5q-156 0 -283.5 -76.5t-201 -213t-72.5 -304.5zM530 1634l254 299h142l254 -299h-168l-158 207l-158 -207h-166z" />
<glyph unicode="&#xd5;" horiz-adv-x="1712" d="M104 735q0 168 60 312t162 242t239.5 153.5t290.5 56.5q153 -1 290.5 -56.5t240 -153.5t163 -242t60.5 -312q0 -221 -101 -395.5t-272.5 -269t-380.5 -95.5q-209 1 -380 95.5t-271.5 268.5t-100.5 396zM299 735q0 -126 43 -236t117 -187.5t177 -122t220 -44.5 q239 0 398 167.5t159 422.5q1 168 -72 304.5t-200.5 213t-284.5 76.5q-156 0 -283.5 -76.5t-201 -213t-72.5 -304.5zM578 1735v131q66 51 151 51q55 0 133 -35t121 -35q82 0 152 60v-131q-59 -52 -152 -52q-53 0 -131.5 35t-124.5 35q-80 0 -149 -59z" />
<glyph unicode="&#xd6;" horiz-adv-x="1712" d="M104 735q0 168 60 312t162 242t239.5 153.5t290.5 56.5q153 -1 290.5 -56.5t240 -153.5t163 -242t60.5 -312q0 -221 -101 -395.5t-272.5 -269t-380.5 -95.5q-209 1 -380 95.5t-271.5 268.5t-100.5 396zM299 735q0 -126 43 -236t117 -187.5t177 -122t220 -44.5 q239 0 398 167.5t159 422.5q1 168 -72 304.5t-200.5 213t-284.5 76.5q-156 0 -283.5 -76.5t-201 -213t-72.5 -304.5zM602 1778q0 41 29 68.5t69 27.5q39 0 68 -28t29 -68q0 -41 -29 -70t-68 -29q-40 0 -69 29t-29 70zM915 1778q0 40 29 68t68 28q40 0 69 -27.5t29 -68.5 t-29 -70t-69 -29q-39 0 -68 29t-29 70z" />
<glyph unicode="&#xd7;" horiz-adv-x="1462" d="M172 100l479 480l-467 469l86 81l461 -468l451 468l86 -81l-459 -467l481 -482l-86 -84l-473 484l-473 -484z" />
<glyph unicode="&#xd8;" horiz-adv-x="1712" d="M104 735q0 168 60 312t162 242t239.5 153.5t290.5 56.5q248 0 444 -139l93 115h131l-146 -179q109 -103 170.5 -247t61.5 -314q0 -221 -101 -395.5t-272.5 -269t-380.5 -95.5q-251 0 -444 138l-93 -113h-131l144 176q-108 104 -168 246.5t-60 312.5zM299 735 q0 -245 152 -413l735 899q-139 108 -330 108q-156 0 -283.5 -76.5t-201 -213t-72.5 -304.5zM526 252q142 -107 330 -107q239 0 398 167.5t159 422.5q0 254 -151 418z" />
<glyph unicode="&#xd9;" horiz-adv-x="1388" d="M164 483v992h184l2 -959q0 -174 91 -272.5t253 -98.5t254 98.5t92 272.5v959h185v-992q0 -235 -143.5 -373.5t-387.5 -138.5q-243 0 -386.5 138.5t-143.5 373.5zM414 1946h200l162 -310h-164z" />
<glyph unicode="&#xda;" horiz-adv-x="1388" d="M164 483v992h184l2 -959q0 -174 91 -272.5t253 -98.5t254 98.5t92 272.5v959h185v-992q0 -235 -143.5 -373.5t-387.5 -138.5q-243 0 -386.5 138.5t-143.5 373.5zM610 1628l162 309h201l-199 -309h-164z" />
<glyph unicode="&#xdb;" horiz-adv-x="1388" d="M164 483v992h184l2 -959q0 -174 91 -272.5t253 -98.5t254 98.5t92 272.5v959h185v-992q0 -235 -143.5 -373.5t-387.5 -138.5q-243 0 -386.5 138.5t-143.5 373.5zM369 1634l254 299h141l254 -299h-168l-158 207l-157 -207h-166z" />
<glyph unicode="&#xdc;" horiz-adv-x="1388" d="M164 483v992h184l2 -959q0 -174 91 -272.5t253 -98.5t254 98.5t92 272.5v959h185v-992q0 -235 -143.5 -373.5t-387.5 -138.5q-243 0 -386.5 138.5t-143.5 373.5zM440 1778q0 41 29.5 68.5t69.5 27.5q39 0 67.5 -27.5t28.5 -68.5t-28.5 -70t-67.5 -29q-40 0 -69.5 29 t-29.5 70zM754 1778q0 41 28.5 68.5t67.5 27.5q40 0 69 -27.5t29 -68.5t-29 -70t-69 -29q-39 0 -67.5 29t-28.5 70z" />
<glyph unicode="&#xdd;" horiz-adv-x="1224" d="M25 1475h196l391 -732l392 732h196l-491 -904v-571h-191v569zM532 1628l162 309h201l-199 -309h-164z" />
<glyph unicode="&#xde;" horiz-adv-x="1142" d="M205 0v1475h184v-224h197q223 0 368 -131.5t148 -343.5q-3 -212 -148 -343.5t-368 -131.5h-197v-301h-184zM389 467h168q156 0 251.5 82.5t96.5 226.5q-1 144 -96.5 225.5t-251.5 81.5h-168v-616z" />
<glyph unicode="&#xdf;" horiz-adv-x="1273" d="M164 0v1157q0 108 35 195t96.5 142.5t141.5 84.5t173 29q200 0 325.5 -121t125.5 -293q0 -112 -53 -201t-138 -137q131 -45 216 -154.5t85 -259.5q0 -198 -129 -326t-346 -128q-140 0 -247 37l47 161q82 -30 180 -30q141 0 226 80t85 217q0 140 -104 228.5t-277 88.5h-65 v148h65q119 0 197 74t78 190q0 117 -75.5 191.5t-195.5 74.5q-112 0 -188 -81.5t-76 -219.5v-1147h-182z" />
<glyph unicode="&#xe0;" horiz-adv-x="1128" d="M86 307q0 143 105 230.5t270 87.5q191 0 332 -105l2 88q0 139 -72 216t-205 77q-147 0 -313 -74l-43 138q195 79 391 79q202 0 312 -111t110 -302v-631h-164l-12 129q-54 -60 -143.5 -102.5t-198.5 -42.5q-164 0 -267.5 87.5t-103.5 235.5zM268 324q0 -90 67.5 -143.5 t168.5 -53.5q94 0 167.5 39.5t121.5 89.5l2 158q-128 104 -291 104q-104 0 -170 -52t-66 -142zM272 1499h201l162 -309h-164z" />
<glyph unicode="&#xe1;" horiz-adv-x="1128" d="M86 307q0 143 105 230.5t270 87.5q191 0 332 -105l2 88q0 139 -72 216t-205 77q-147 0 -313 -74l-43 138q195 79 391 79q202 0 312 -111t110 -302v-631h-164l-12 129q-54 -60 -143.5 -102.5t-198.5 -42.5q-164 0 -267.5 87.5t-103.5 235.5zM268 324q0 -90 67.5 -143.5 t168.5 -53.5q94 0 167.5 39.5t121.5 89.5l2 158q-128 104 -291 104q-104 0 -170 -52t-66 -142zM469 1182l162 309h200l-198 -309h-164z" />
<glyph unicode="&#xe2;" horiz-adv-x="1128" d="M86 307q0 143 105 230.5t270 87.5q191 0 332 -105l2 88q0 139 -72 216t-205 77q-147 0 -313 -74l-43 138q195 79 391 79q202 0 312 -111t110 -302v-631h-164l-12 129q-54 -60 -143.5 -102.5t-198.5 -42.5q-164 0 -267.5 87.5t-103.5 235.5zM227 1188l254 299h142 l254 -299h-168l-158 207l-158 -207h-166zM268 324q0 -90 67.5 -143.5t168.5 -53.5q94 0 167.5 39.5t121.5 89.5l2 158q-128 104 -291 104q-104 0 -170 -52t-66 -142z" />
<glyph unicode="&#xe3;" horiz-adv-x="1128" d="M86 307q0 143 105 230.5t270 87.5q191 0 332 -105l2 88q0 139 -72 216t-205 77q-147 0 -313 -74l-43 138q195 79 391 79q202 0 312 -111t110 -302v-631h-164l-12 129q-54 -60 -143.5 -102.5t-198.5 -42.5q-164 0 -267.5 87.5t-103.5 235.5zM268 324q0 -90 67.5 -143.5 t168.5 -53.5q94 0 167.5 39.5t121.5 89.5l2 158q-128 104 -291 104q-104 0 -170 -52t-66 -142zM274 1288v131q66 51 152 51q55 0 133 -34.5t121 -34.5q82 0 151 59v-131q-58 -51 -151 -51q-53 0 -131.5 35t-124.5 35q-80 0 -150 -60z" />
<glyph unicode="&#xe4;" horiz-adv-x="1128" d="M86 307q0 143 105 230.5t270 87.5q191 0 332 -105l2 88q0 139 -72 216t-205 77q-147 0 -313 -74l-43 138q195 79 391 79q202 0 312 -111t110 -302v-631h-164l-12 129q-54 -60 -143.5 -102.5t-198.5 -42.5q-164 0 -267.5 87.5t-103.5 235.5zM268 324q0 -90 67.5 -143.5 t168.5 -53.5q94 0 167.5 39.5t121.5 89.5l2 158q-128 104 -291 104q-104 0 -170 -52t-66 -142zM299 1331q0 41 29 68.5t69 27.5q39 0 68 -28t29 -68q0 -41 -29 -69.5t-68 -28.5q-40 0 -69 28.5t-29 69.5zM612 1331q0 40 29 68t68 28q40 0 69 -27.5t29 -68.5t-29 -69.5 t-69 -28.5q-39 0 -68 28.5t-29 69.5z" />
<glyph unicode="&#xe5;" horiz-adv-x="1128" d="M86 307q0 143 105 230.5t270 87.5q191 0 332 -105l2 88q0 139 -72 216t-205 77q-147 0 -313 -74l-43 138q195 79 391 79q202 0 312 -111t110 -302v-631h-164l-12 129q-54 -60 -143.5 -102.5t-198.5 -42.5q-164 0 -267.5 87.5t-103.5 235.5zM268 324q0 -90 67.5 -143.5 t168.5 -53.5q94 0 167.5 39.5t121.5 89.5l2 158q-128 104 -291 104q-104 0 -170 -52t-66 -142zM348 1354q0 88 61.5 145t143.5 57q84 0 145.5 -57t61.5 -145q0 -90 -61 -146.5t-146 -56.5q-83 0 -144 57t-61 146zM444 1354q0 -49 33 -82t76 -33q45 0 78 32.5t33 82.5 t-32.5 82t-78.5 32q-43 0 -76 -32.5t-33 -81.5z" />
<glyph unicode="&#xe6;" horiz-adv-x="1900" d="M86 305q0 148 106.5 237t272.5 89q189 0 336 -103l2 78q0 146 -79 220.5t-214 74.5q-59 0 -117 -10t-92.5 -20.5t-95.5 -32.5l-39 135q197 69 360 69q135 0 234 -58t145 -161q68 106 178 163.5t236 57.5q205 0 345 -142.5t140 -358.5q0 -27 -6 -62h-819 q6 -84 38.5 -152.5t83.5 -111.5t114.5 -66.5t132.5 -23.5q164 0 297 90l67 -119q-154 -114 -371 -114q-147 0 -262 62.5t-180 174.5q-57 -106 -164.5 -175t-249.5 -69q-183 0 -291 89.5t-108 238.5zM272 319q0 -90 67 -142t169 -52q122 0 207 89t90 198q-120 106 -293 106 q-105 0 -172.5 -53.5t-67.5 -145.5zM983 594l641 -2q-17 141 -103.5 223t-209.5 82q-126 0 -217 -81.5t-111 -221.5z" />
<glyph unicode="&#xe7;" horiz-adv-x="1077" d="M119 514q0 125 45 228t120 167.5t169 99.5t196 35q212 0 352 -118l-79 -129q-116 94 -260 94q-68 0 -131 -24.5t-113.5 -70t-80.5 -119t-30 -163.5t30 -163.5t80.5 -119t113.5 -70t131 -24.5q153 0 266 96l82 -131q-141 -115 -346 -118l-23 -70q75 -2 127.5 -48 t52.5 -118q0 -78 -59.5 -130t-149.5 -52q-130 0 -213 59l58 94q64 -45 147 -45q45 0 75 24.5t30 63.5q0 38 -28.5 62t-76.5 24q-51 0 -96 -20l-6 4l71 156q-92 13 -172.5 53t-144 104.5t-100.5 159.5t-37 209z" />
<glyph unicode="&#xe8;" horiz-adv-x="1226" d="M119 514q0 125 44 228t117 169t165.5 102t191.5 36q101 0 191 -37.5t157 -103t106 -162t39 -209.5q0 -35 -4 -58h-823q5 -86 37 -154t82 -110.5t113 -65t133 -22.5q165 0 297 98l71 -125q-159 -118 -377 -118q-237 0 -388.5 146.5t-151.5 385.5zM305 588h645 q-18 147 -104.5 231t-208.5 84q-128 0 -219.5 -84t-112.5 -231zM356 1499h201l162 -309h-164z" />
<glyph unicode="&#xe9;" horiz-adv-x="1226" d="M119 514q0 125 44 228t117 169t165.5 102t191.5 36q101 0 191 -37.5t157 -103t106 -162t39 -209.5q0 -35 -4 -58h-823q5 -86 37 -154t82 -110.5t113 -65t133 -22.5q165 0 297 98l71 -125q-159 -118 -377 -118q-237 0 -388.5 146.5t-151.5 385.5zM305 588h645 q-18 147 -104.5 231t-208.5 84q-128 0 -219.5 -84t-112.5 -231zM553 1182l162 309h200l-198 -309h-164z" />
<glyph unicode="&#xea;" horiz-adv-x="1226" d="M119 514q0 125 44 228t117 169t165.5 102t191.5 36q101 0 191 -37.5t157 -103t106 -162t39 -209.5q0 -35 -4 -58h-823q5 -86 37 -154t82 -110.5t113 -65t133 -22.5q165 0 297 98l71 -125q-159 -118 -377 -118q-237 0 -388.5 146.5t-151.5 385.5zM305 588h645 q-18 147 -104.5 231t-208.5 84q-128 0 -219.5 -84t-112.5 -231zM311 1188l254 299h142l254 -299h-168l-158 207l-158 -207h-166z" />
<glyph unicode="&#xeb;" horiz-adv-x="1226" d="M119 514q0 125 44 228t117 169t165.5 102t191.5 36q101 0 191 -37.5t157 -103t106 -162t39 -209.5q0 -35 -4 -58h-823q5 -86 37 -154t82 -110.5t113 -65t133 -22.5q165 0 297 98l71 -125q-159 -118 -377 -118q-237 0 -388.5 146.5t-151.5 385.5zM305 588h645 q-18 147 -104.5 231t-208.5 84q-128 0 -219.5 -84t-112.5 -231zM383 1331q0 41 29 68.5t69 27.5q39 0 68 -28t29 -68q0 -41 -29 -69.5t-68 -28.5q-40 0 -69 28.5t-29 69.5zM696 1331q0 40 29 68t68 28q40 0 69 -27.5t29 -68.5t-29 -69.5t-69 -28.5q-39 0 -68 28.5t-29 69.5z " />
<glyph unicode="&#xec;" horiz-adv-x="524" d="M-18 1499h200l162 -309h-164zM172 0v1028h180v-1028h-180z" />
<glyph unicode="&#xed;" horiz-adv-x="524" d="M172 0v1028h180v-1028h-180zM178 1182l162 309h201l-199 -309h-164z" />
<glyph unicode="&#xee;" horiz-adv-x="524" d="M-63 1188l253 299h142l254 -299h-168l-158 207l-158 -207h-165zM172 0v1028h180v-1028h-180z" />
<glyph unicode="&#xef;" horiz-adv-x="524" d="M8 1331q0 41 29 68.5t69 27.5q39 0 68 -28t29 -68q0 -41 -29 -69.5t-68 -28.5q-40 0 -69 28.5t-29 69.5zM172 0v1028h180v-1028h-180zM322 1331q0 41 28.5 68.5t67.5 27.5q40 0 69 -27.5t29 -68.5t-29 -69.5t-69 -28.5q-39 0 -67.5 28.5t-28.5 69.5z" />
<glyph unicode="&#xf0;" horiz-adv-x="1306" d="M119 506q0 150 68.5 270.5t186 187t259.5 66.5q123 0 225 -60.5t162 -170.5q-61 269 -248 461l-262 -109l-33 78l225 92q-121 100 -270 156l64 135q199 -82 354 -230l262 109l35 -76l-236 -98q136 -153 206.5 -338t70.5 -369q0 -128 -34.5 -240t-100 -199t-170 -137 t-236.5 -50h-2q-147 0 -267 66.5t-189.5 186t-69.5 269.5zM307 506q0 -87 29.5 -158.5t78 -116.5t108 -69.5t122.5 -24.5q134 0 236 99.5t102 269.5q0 87 -29.5 158.5t-77.5 116t-107.5 68t-123.5 23.5q-63 0 -122.5 -23.5t-108 -68t-78 -116t-29.5 -158.5z" />
<glyph unicode="&#xf1;" horiz-adv-x="1218" d="M172 0v1028h170l8 -154q183 175 371 175q150 0 247 -96.5t97 -262.5v-690h-180v635q0 127 -63.5 193.5t-166.5 66.5q-145 0 -303 -166v-729h-180zM330 1288v131q66 51 151 51q55 0 133 -34.5t121 -34.5q83 0 152 59v-131q-58 -51 -152 -51q-53 0 -131.5 35t-124.5 35 q-79 0 -149 -60z" />
<glyph unicode="&#xf2;" horiz-adv-x="1290" d="M119 514q0 125 45 229t119.5 170t168 102t193.5 36t193.5 -36t167.5 -102t118.5 -170t44.5 -229q0 -127 -44.5 -231.5t-119 -170t-167 -100.5t-193.5 -35t-194 35t-167.5 100.5t-119.5 170t-45 231.5zM307 514q0 -90 29 -164.5t77 -121.5t108 -72t124 -25t124 25t108 72 t77 121.5t29 164.5t-29 164.5t-77 121.5t-108 72t-124 25t-124 -25t-108 -72t-77 -121.5t-29 -164.5zM365 1499h200l162 -309h-164z" />
<glyph unicode="&#xf3;" horiz-adv-x="1290" d="M119 514q0 125 45 229t119.5 170t168 102t193.5 36t193.5 -36t167.5 -102t118.5 -170t44.5 -229q0 -127 -44.5 -231.5t-119 -170t-167 -100.5t-193.5 -35t-194 35t-167.5 100.5t-119.5 170t-45 231.5zM307 514q0 -90 29 -164.5t77 -121.5t108 -72t124 -25t124 25t108 72 t77 121.5t29 164.5t-29 164.5t-77 121.5t-108 72t-124 25t-124 -25t-108 -72t-77 -121.5t-29 -164.5zM561 1182l162 309h201l-199 -309h-164z" />
<glyph unicode="&#xf4;" horiz-adv-x="1290" d="M119 514q0 125 45 229t119.5 170t168 102t193.5 36t193.5 -36t167.5 -102t118.5 -170t44.5 -229q0 -127 -44.5 -231.5t-119 -170t-167 -100.5t-193.5 -35t-194 35t-167.5 100.5t-119.5 170t-45 231.5zM307 514q0 -90 29 -164.5t77 -121.5t108 -72t124 -25t124 25t108 72 t77 121.5t29 164.5t-29 164.5t-77 121.5t-108 72t-124 25t-124 -25t-108 -72t-77 -121.5t-29 -164.5zM319 1188l254 299h142l254 -299h-168l-158 207l-158 -207h-166z" />
<glyph unicode="&#xf5;" horiz-adv-x="1290" d="M119 514q0 125 45 229t119.5 170t168 102t193.5 36t193.5 -36t167.5 -102t118.5 -170t44.5 -229q0 -127 -44.5 -231.5t-119 -170t-167 -100.5t-193.5 -35t-194 35t-167.5 100.5t-119.5 170t-45 231.5zM307 514q0 -90 29 -164.5t77 -121.5t108 -72t124 -25t124 25t108 72 t77 121.5t29 164.5t-29 164.5t-77 121.5t-108 72t-124 25t-124 -25t-108 -72t-77 -121.5t-29 -164.5zM367 1288v131q66 51 151 51q55 0 133 -34.5t121 -34.5q83 0 152 59v-131q-58 -51 -152 -51q-53 0 -131.5 35t-124.5 35q-79 0 -149 -60z" />
<glyph unicode="&#xf6;" horiz-adv-x="1290" d="M119 514q0 125 45 229t119.5 170t168 102t193.5 36t193.5 -36t167.5 -102t118.5 -170t44.5 -229q0 -127 -44.5 -231.5t-119 -170t-167 -100.5t-193.5 -35t-194 35t-167.5 100.5t-119.5 170t-45 231.5zM307 514q0 -90 29 -164.5t77 -121.5t108 -72t124 -25t124 25t108 72 t77 121.5t29 164.5t-29 164.5t-77 121.5t-108 72t-124 25t-124 -25t-108 -72t-77 -121.5t-29 -164.5zM391 1331q0 41 29 68.5t69 27.5q39 0 68 -28t29 -68q0 -41 -29 -69.5t-68 -28.5q-40 0 -69 28.5t-29 69.5zM705 1331q0 41 28.5 68.5t67.5 27.5q40 0 69 -27.5t29 -68.5 t-29 -69.5t-69 -28.5q-39 0 -67.5 28.5t-28.5 69.5z" />
<glyph unicode="&#xf7;" horiz-adv-x="1435" d="M172 522v119h1092v-119h-1092zM604 215q0 44 34.5 76.5t80.5 32.5t79 -32.5t33 -76.5q0 -47 -33 -81t-79 -34t-80.5 34t-34.5 81zM604 952q0 45 34.5 78t80.5 33t79 -32.5t33 -78.5q0 -47 -33 -80.5t-79 -33.5t-80.5 33.5t-34.5 80.5z" />
<glyph unicode="&#xf8;" horiz-adv-x="1284" d="M109 514q0 125 45 229t119.5 170t168 102t193.5 36q184 0 323 -109l72 80h105l-117 -131q141 -148 141 -377q0 -127 -44.5 -231.5t-119 -170t-167 -100.5t-193.5 -35q-194 0 -334 113l-80 -90h-106l129 143q-135 145 -135 371zM297 514q0 -141 65 -238l486 541 q-92 80 -213 80q-64 0 -124 -25t-108 -72t-77 -121.5t-29 -164.5zM416 217q92 -86 219 -86q64 0 124 25t108 72t77 121.5t29 164.5q0 144 -72 246z" />
<glyph unicode="&#xf9;" horiz-adv-x="1218" d="M154 338v690h180v-635q0 -127 63 -193.5t166 -66.5q145 0 303 166v729h181v-1028h-170l-9 154q-182 -174 -370 -174q-150 0 -247 96t-97 262zM324 1499h200l162 -309h-164z" />
<glyph unicode="&#xfa;" horiz-adv-x="1218" d="M154 338v690h180v-635q0 -127 63 -193.5t166 -66.5q145 0 303 166v729h181v-1028h-170l-9 154q-182 -174 -370 -174q-150 0 -247 96t-97 262zM520 1182l162 309h201l-199 -309h-164z" />
<glyph unicode="&#xfb;" horiz-adv-x="1218" d="M154 338v690h180v-635q0 -127 63 -193.5t166 -66.5q145 0 303 166v729h181v-1028h-170l-9 154q-182 -174 -370 -174q-150 0 -247 96t-97 262zM279 1188l253 299h142l254 -299h-168l-158 207l-158 -207h-165z" />
<glyph unicode="&#xfc;" horiz-adv-x="1218" d="M154 338v690h180v-635q0 -127 63 -193.5t166 -66.5q145 0 303 166v729h181v-1028h-170l-9 154q-182 -174 -370 -174q-150 0 -247 96t-97 262zM350 1331q0 41 29.5 68.5t69.5 27.5q39 0 67.5 -27.5t28.5 -68.5t-28.5 -69.5t-67.5 -28.5q-40 0 -69.5 28.5t-29.5 69.5z M664 1331q0 41 28.5 68.5t67.5 27.5q40 0 69 -27.5t29 -68.5t-29 -69.5t-69 -28.5q-39 0 -67.5 28.5t-28.5 69.5z" />
<glyph unicode="&#xfd;" horiz-adv-x="1226" d="M162 352v676h180v-620q0 -125 63 -191.5t166 -66.5q150 0 303 157v721h181v-934q0 -239 -142.5 -385.5t-388.5 -146.5q-89 0 -192 14l18 145q80 -12 156 -12q176 0 272 105.5t96 294.5v57q-170 -166 -370 -166q-148 0 -245 93.5t-97 258.5zM528 1182l162 309h201 l-199 -309h-164z" />
<glyph unicode="&#xfe;" horiz-adv-x="1298" d="M172 -430v2040h180v-731q60 74 147 121t197 47q92 0 177 -34.5t153.5 -99t110 -168.5t41.5 -231t-41.5 -230.5t-110 -168t-153.5 -99t-177 -34.5q-110 0 -197.5 45.5t-146.5 117.5v-575h-180zM352 301q123 -170 307 -170q61 0 119.5 24.5t106.5 71t77 121t29 166.5 q0 91 -29 165.5t-77 120.5t-106.5 70.5t-119.5 24.5q-185 0 -307 -172v-422z" />
<glyph unicode="&#xff;" horiz-adv-x="1226" d="M162 352v676h180v-620q0 -125 63 -191.5t166 -66.5q150 0 303 157v721h181v-934q0 -239 -142.5 -385.5t-388.5 -146.5q-89 0 -192 14l18 145q80 -12 156 -12q176 0 272 105.5t96 294.5v57q-170 -166 -370 -166q-148 0 -245 93.5t-97 258.5zM358 1331q0 41 29.5 68.5 t69.5 27.5q39 0 67.5 -27.5t28.5 -68.5t-28.5 -69.5t-67.5 -28.5q-40 0 -69.5 28.5t-29.5 69.5zM672 1331q0 41 28.5 68.5t67.5 27.5q40 0 69 -27.5t29 -68.5t-29 -69.5t-69 -28.5q-39 0 -67.5 28.5t-28.5 69.5z" />
<glyph unicode="&#x100;" horiz-adv-x="1357" d="M10 0l572 1487h196l570 -1487h-201l-154 418h-631l-153 -418h-199zM408 1757v123h540v-123h-540zM424 582h510l-254 692z" />
<glyph unicode="&#x101;" horiz-adv-x="1128" d="M86 307q0 143 105 230.5t270 87.5q191 0 332 -105l2 88q0 139 -72 216t-205 77q-147 0 -313 -74l-43 138q195 79 391 79q202 0 312 -111t110 -302v-631h-164l-12 129q-54 -60 -143.5 -102.5t-198.5 -42.5q-164 0 -267.5 87.5t-103.5 235.5zM268 324q0 -90 67.5 -143.5 t168.5 -53.5q94 0 167.5 39.5t121.5 89.5l2 158q-128 104 -291 104q-104 0 -170 -52t-66 -142zM281 1311v123h540v-123h-540z" />
<glyph unicode="&#x102;" horiz-adv-x="1357" d="M10 0l572 1487h196l570 -1487h-201l-154 418h-631l-153 -418h-199zM408 1948h124q1 -79 45 -124.5t103 -45.5q62 0 105 45t44 125h125q-1 -135 -81.5 -213t-192.5 -78t-191.5 78t-80.5 213zM424 582h510l-254 692z" />
<glyph unicode="&#x103;" horiz-adv-x="1128" d="M86 307q0 143 105 230.5t270 87.5q191 0 332 -105l2 88q0 139 -72 216t-205 77q-147 0 -313 -74l-43 138q195 79 391 79q202 0 312 -111t110 -302v-631h-164l-12 129q-54 -60 -143.5 -102.5t-198.5 -42.5q-164 0 -267.5 87.5t-103.5 235.5zM268 324q0 -90 67.5 -143.5 t168.5 -53.5q94 0 167.5 39.5t121.5 89.5l2 158q-128 104 -291 104q-104 0 -170 -52t-66 -142zM281 1501h125q1 -79 44.5 -124.5t102.5 -45.5q62 0 105 45t44 125h125q-1 -135 -81.5 -213t-192.5 -78t-191.5 78t-80.5 213z" />
<glyph unicode="&#x104;" horiz-adv-x="1357" d="M10 0l572 1487h196l570 -1487q-68 -70 -97.5 -116.5t-29.5 -98.5q0 -37 25 -60.5t59 -23.5q50 0 104 31l47 -113q-74 -53 -184 -53q-82 0 -139.5 49t-57.5 133q0 119 148 252h-76l-154 418h-631l-153 -418h-199zM424 582h510l-254 692z" />
<glyph unicode="&#x105;" horiz-adv-x="1128" d="M86 307q0 143 105 230.5t270 87.5q191 0 332 -105l2 88q0 139 -72 216t-205 77q-147 0 -313 -74l-43 138q195 79 391 79q202 0 312 -111t110 -302v-631q-68 -70 -97.5 -116.5t-29.5 -98.5q0 -37 25 -60.5t59 -23.5q50 0 104 31l47 -113q-74 -53 -184 -53q-82 0 -139.5 49 t-57.5 133q0 119 148 252h-39l-12 129q-54 -60 -143.5 -102.5t-198.5 -42.5q-164 0 -267.5 87.5t-103.5 235.5zM268 324q0 -90 67.5 -143.5t168.5 -53.5q94 0 167.5 39.5t121.5 89.5l2 158q-128 104 -291 104q-104 0 -170 -52t-66 -142z" />
<glyph unicode="&#x106;" horiz-adv-x="1435" d="M104 735q0 168 60 312t162 242t239.5 153.5t290.5 56.5q306 0 524 -211l-100 -139q-180 180 -424 180q-156 0 -283.5 -76.5t-201 -213t-72.5 -304.5q0 -126 43 -236t117 -187.5t177 -122t220 -44.5q242 0 428 181l100 -140q-218 -211 -528 -211q-209 1 -380 95.5 t-271.5 268.5t-100.5 396zM733 1628l162 309h201l-199 -309h-164z" />
<glyph unicode="&#x107;" horiz-adv-x="1077" d="M119 514q0 125 45 228t120 167.5t169 99.5t196 35q212 0 352 -118l-79 -129q-116 94 -260 94q-68 0 -131 -24.5t-113.5 -70t-80.5 -119t-30 -163.5t30 -163.5t80.5 -119t113.5 -70t131 -24.5q153 0 266 96l82 -131q-144 -118 -361 -118q-102 0 -196 35t-169 99.5 t-120 167.5t-45 228zM530 1182l162 309h201l-199 -309h-164z" />
<glyph unicode="&#x10a;" horiz-adv-x="1435" d="M104 735q0 168 60 312t162 242t239.5 153.5t290.5 56.5q306 0 524 -211l-100 -139q-180 180 -424 180q-156 0 -283.5 -76.5t-201 -213t-72.5 -304.5q0 -126 43 -236t117 -187.5t177 -122t220 -44.5q242 0 428 181l100 -140q-218 -211 -528 -211q-209 1 -380 95.5 t-271.5 268.5t-100.5 396zM698 1782q0 49 34.5 82.5t84.5 33.5q48 0 83.5 -33.5t35.5 -82.5t-35.5 -83t-83.5 -34q-50 0 -84.5 34t-34.5 83z" />
<glyph unicode="&#x10b;" horiz-adv-x="1077" d="M119 514q0 125 45 228t120 167.5t169 99.5t196 35q212 0 352 -118l-79 -129q-116 94 -260 94q-68 0 -131 -24.5t-113.5 -70t-80.5 -119t-30 -163.5t30 -163.5t80.5 -119t113.5 -70t131 -24.5q153 0 266 96l82 -131q-144 -118 -361 -118q-102 0 -196 35t-169 99.5 t-120 167.5t-45 228zM496 1335q0 49 34 83t84 34q48 0 83.5 -34t35.5 -83t-35.5 -82.5t-83.5 -33.5q-50 0 -84 33.5t-34 82.5z" />
<glyph unicode="&#x10c;" horiz-adv-x="1435" d="M104 735q0 168 60 312t162 242t239.5 153.5t290.5 56.5q306 0 524 -211l-100 -139q-180 180 -424 180q-156 0 -283.5 -76.5t-201 -213t-72.5 -304.5q0 -126 43 -236t117 -187.5t177 -122t220 -44.5q242 0 428 181l100 -140q-218 -211 -528 -211q-209 1 -380 95.5 t-271.5 268.5t-100.5 396zM492 1933h165l158 -207l158 207h168l-254 -299h-142z" />
<glyph unicode="&#x10d;" horiz-adv-x="1077" d="M119 514q0 125 45 228t120 167.5t169 99.5t196 35q212 0 352 -118l-79 -129q-116 94 -260 94q-68 0 -131 -24.5t-113.5 -70t-80.5 -119t-30 -163.5t30 -163.5t80.5 -119t113.5 -70t131 -24.5q153 0 266 96l82 -131q-144 -118 -361 -118q-102 0 -196 35t-169 99.5 t-120 167.5t-45 228zM289 1487h166l157 -207l158 207h168l-254 -299h-141z" />
<glyph unicode="&#x10e;" horiz-adv-x="1464" d="M205 0v1475h184h229q211 0 380.5 -96t265.5 -264.5t98 -377.5q-1 -156 -58 -293t-154.5 -234.5t-235.5 -153.5t-296 -56h-229h-184zM342 1933h166l158 -207l157 207h168l-254 -299h-141zM389 164h203q255 0 413 162t160 411q-1 163 -71.5 293.5t-201.5 205.5t-300 75 h-203v-1147z" />
<glyph unicode="&#x10f;" horiz-adv-x="1286" d="M109 514q0 102 27 190t73 150t108 106.5t131 65.5t142 21q110 0 197 -47t147 -121v686h180v-1565h-164l-10 152q-59 -76 -148 -123t-202 -47q-92 0 -177 34.5t-153.5 99t-109.5 168t-41 230.5zM295 514q0 -92 29 -166.5t77 -121t106.5 -71t119.5 -24.5q184 0 307 170v422 q-122 172 -307 172q-61 0 -119.5 -24.5t-106.5 -70.5t-77 -120.5t-29 -165.5zM1272 1196l71 360l148 -28l-107 -354z" />
<glyph unicode="&#x110;" horiz-adv-x="1464" d="M31 672v141h174v662h184h229q211 0 380.5 -96t265.5 -264.5t98 -377.5q-1 -156 -58 -293t-154.5 -234.5t-235.5 -153.5t-296 -56h-229h-184v672h-174zM389 164h203q255 0 413 162t160 411q-1 163 -71.5 293.5t-201.5 205.5t-300 75h-203v-498h264v-141h-264v-508z" />
<glyph unicode="&#x111;" horiz-adv-x="1286" d="M109 514q0 102 27 190t73 150t108 106.5t131 65.5t142 21q110 0 197 -47t147 -121v327h-287v142h287v217h180v-217h156v-142h-156v-1206h-164l-10 152q-59 -76 -148 -123t-202 -47q-92 0 -177 34.5t-153.5 99t-109.5 168t-41 230.5zM295 514q0 -92 29 -166.5t77 -121 t106.5 -71t119.5 -24.5q184 0 307 170v422q-122 172 -307 172q-61 0 -119.5 -24.5t-106.5 -70.5t-77 -120.5t-29 -165.5z" />
<glyph unicode="&#x112;" horiz-adv-x="1097" d="M205 0v1475h768v-164h-584v-473h520v-164h-520v-510h584v-164h-768zM309 1757v123h541v-123h-541z" />
<glyph unicode="&#x113;" horiz-adv-x="1226" d="M119 514q0 125 44 228t117 169t165.5 102t191.5 36q101 0 191 -37.5t157 -103t106 -162t39 -209.5q0 -35 -4 -58h-823q5 -86 37 -154t82 -110.5t113 -65t133 -22.5q165 0 297 98l71 -125q-159 -118 -377 -118q-237 0 -388.5 146.5t-151.5 385.5zM305 588h645 q-18 147 -104.5 231t-208.5 84q-128 0 -219.5 -84t-112.5 -231zM365 1311v123h540v-123h-540z" />
<glyph unicode="&#x116;" horiz-adv-x="1097" d="M205 0v1475h768v-164h-584v-473h520v-164h-520v-510h584v-164h-768zM463 1782q0 49 34.5 82.5t84.5 33.5q48 0 83 -33.5t35 -82.5t-35 -83t-83 -34q-50 0 -84.5 34t-34.5 83z" />
<glyph unicode="&#x117;" horiz-adv-x="1226" d="M119 514q0 125 44 228t117 169t165.5 102t191.5 36q101 0 191 -37.5t157 -103t106 -162t39 -209.5q0 -35 -4 -58h-823q5 -86 37 -154t82 -110.5t113 -65t133 -22.5q165 0 297 98l71 -125q-159 -118 -377 -118q-237 0 -388.5 146.5t-151.5 385.5zM305 588h645 q-18 147 -104.5 231t-208.5 84q-128 0 -219.5 -84t-112.5 -231zM518 1335q0 49 34.5 83t84.5 34q48 0 83.5 -34t35.5 -83t-35.5 -82.5t-83.5 -33.5q-50 0 -84.5 33.5t-34.5 82.5z" />
<glyph unicode="&#x118;" horiz-adv-x="1097" d="M205 0v1475h768v-164h-584v-473h520v-164h-520v-510h584v-164q-68 -70 -97.5 -116.5t-29.5 -98.5q0 -37 25 -60.5t59 -23.5q50 0 104 31l47 -113q-74 -53 -184 -53q-82 0 -139.5 49t-57.5 133q0 119 148 252h-643z" />
<glyph unicode="&#x119;" horiz-adv-x="1226" d="M119 514q0 125 44 228t117 169t165.5 102t191.5 36q101 0 191 -37.5t157 -103t106 -162t39 -209.5q0 -35 -4 -58h-823q5 -86 37 -154t82 -110.5t113 -65t133 -22.5q165 0 297 98l71 -125q-68 -70 -97.5 -116.5t-29.5 -98.5q0 -37 25 -60.5t59 -23.5q51 0 105 31l47 -113 q-74 -53 -184 -53q-82 0 -139.5 49t-57.5 133q0 77 55 152q-77 -18 -160 -18q-237 0 -388.5 146.5t-151.5 385.5zM305 588h645q-18 147 -104.5 231t-208.5 84q-128 0 -219.5 -84t-112.5 -231z" />
<glyph unicode="&#x11a;" horiz-adv-x="1097" d="M205 0v1475h768v-164h-584v-473h520v-164h-520v-510h584v-164h-768zM256 1933h166l158 -207l157 207h168l-254 -299h-141z" />
<glyph unicode="&#x11b;" horiz-adv-x="1226" d="M119 514q0 125 44 228t117 169t165.5 102t191.5 36q101 0 191 -37.5t157 -103t106 -162t39 -209.5q0 -35 -4 -58h-823q5 -86 37 -154t82 -110.5t113 -65t133 -22.5q165 0 297 98l71 -125q-159 -118 -377 -118q-237 0 -388.5 146.5t-151.5 385.5zM305 588h645 q-18 147 -104.5 231t-208.5 84q-128 0 -219.5 -84t-112.5 -231zM311 1487h166l158 -207l158 207h168l-254 -299h-142z" />
<glyph unicode="&#x11e;" horiz-adv-x="1671" d="M104 735q0 169 60 313t162 242t239.5 153t290.5 56q306 0 524 -211l-100 -139q-180 180 -424 180q-238 0 -398 -169t-159 -425q0 -169 73.5 -304.5t200.5 -210.5t283 -75q215 0 369 128t180 350h-475v161h657q2 -18 2 -57q0 -172 -58 -315t-158 -237.5t-233 -146 t-284 -51.5q-210 1 -380.5 94.5t-271 267.5t-100.5 396zM563 1948h125q1 -79 45 -124.5t103 -45.5q62 0 105 45t44 125h125q-1 -135 -81.5 -213t-192.5 -78t-192 78t-81 213z" />
<glyph unicode="&#x11f;" horiz-adv-x="1302" d="M119 524q0 99 27 184.5t73.5 146t107.5 104t130.5 64.5t142.5 21q112 0 202 -49.5t150 -126.5l4 160h174v-915q0 -247 -147.5 -399t-394.5 -152q-139 0 -242 20l21 150q100 -21 198 -21q189 0 287 109.5t98 312.5v43q-60 -76 -149 -124t-201 -48q-73 0 -142.5 21 t-130.5 64.5t-107.5 104t-73.5 146t-27 184.5zM305 524q0 -88 29 -160t77 -117t106.5 -69t119.5 -24q94 0 174.5 45t138.5 131v387q-118 180 -313 180q-61 0 -119.5 -24.5t-106.5 -70t-77 -118t-29 -160.5zM416 1501h125q1 -79 44.5 -124.5t102.5 -45.5q62 0 105.5 45 t44.5 125h125q-1 -90 -40.5 -158t-101 -100.5t-133.5 -32.5q-112 0 -191.5 78t-80.5 213z" />
<glyph unicode="&#x120;" horiz-adv-x="1671" d="M104 735q0 169 60 313t162 242t239.5 153t290.5 56q306 0 524 -211l-100 -139q-180 180 -424 180q-238 0 -398 -169t-159 -425q0 -169 73.5 -304.5t200.5 -210.5t283 -75q215 0 369 128t180 350h-475v161h657q2 -18 2 -57q0 -172 -58 -315t-158 -237.5t-233 -146 t-284 -51.5q-210 1 -380.5 94.5t-271 267.5t-100.5 396zM717 1782q0 49 34.5 82.5t84.5 33.5q48 0 83 -33.5t35 -82.5t-35 -83t-83 -34q-50 0 -84.5 34t-34.5 83z" />
<glyph unicode="&#x121;" horiz-adv-x="1302" d="M119 524q0 99 27 184.5t73.5 146t107.5 104t130.5 64.5t142.5 21q112 0 202 -49.5t150 -126.5l4 160h174v-915q0 -247 -147.5 -399t-394.5 -152q-139 0 -242 20l21 150q100 -21 198 -21q189 0 287 109.5t98 312.5v43q-60 -76 -149 -124t-201 -48q-73 0 -142.5 21 t-130.5 64.5t-107.5 104t-73.5 146t-27 184.5zM305 524q0 -88 29 -160t77 -117t106.5 -69t119.5 -24q94 0 174.5 45t138.5 131v387q-118 180 -313 180q-61 0 -119.5 -24.5t-106.5 -70t-77 -118t-29 -160.5zM569 1335q0 49 34.5 83t84.5 34q48 0 83.5 -34t35.5 -83 t-35.5 -82.5t-83.5 -33.5q-50 0 -84.5 33.5t-34.5 82.5z" />
<glyph unicode="&#x122;" horiz-adv-x="1671" d="M104 735q0 169 60 313t162 242t239.5 153t290.5 56q306 0 524 -211l-100 -139q-180 180 -424 180q-238 0 -398 -169t-159 -425q0 -169 73.5 -304.5t200.5 -210.5t283 -75q215 0 369 128t180 350h-475v161h657q2 -18 2 -57q0 -172 -58 -315t-158 -237.5t-233 -146 t-284 -51.5q-210 1 -380.5 94.5t-271 267.5t-100.5 396zM713 -444l86 331l157 -39l-120 -321z" />
<glyph unicode="&#x123;" horiz-adv-x="1302" d="M119 524q0 99 27 184.5t73.5 146t107.5 104t130.5 64.5t142.5 21q112 0 202 -49.5t150 -126.5l4 160h174v-915q0 -247 -147.5 -399t-394.5 -152q-139 0 -242 20l21 150q100 -21 198 -21q189 0 287 109.5t98 312.5v43q-60 -76 -149 -124t-201 -48q-73 0 -142.5 21 t-130.5 64.5t-107.5 104t-73.5 146t-27 184.5zM305 524q0 -88 29 -160t77 -117t106.5 -69t119.5 -24q94 0 174.5 45t138.5 131v387q-118 180 -313 180q-61 0 -119.5 -24.5t-106.5 -70t-77 -118t-29 -160.5zM559 1210l121 322l123 -29l-86 -332z" />
<glyph unicode="&#x126;" horiz-adv-x="1566" d="M80 1073v156h125v246h184v-246h789v246h184v-246h125v-156h-125v-1073h-184v674h-789v-674h-184v1073h-125zM389 836h789v237h-789v-237z" />
<glyph unicode="&#x127;" horiz-adv-x="1218" d="M31 1206v142h141v235h180v-235h301v-142h-301v-332q175 175 369 175q150 0 247 -96.5t97 -262.5v-690h-180v635q0 127 -63.5 193.5t-166.5 66.5q-145 0 -303 -166v-729h-180v1206h-141z" />
<glyph unicode="&#x12a;" horiz-adv-x="593" d="M25 1757v123h540v-123h-540zM205 0v1475h184v-1475h-184z" />
<glyph unicode="&#x12b;" horiz-adv-x="524" d="M-10 1311v123h540v-123h-540zM172 0v1028h180v-1028h-180z" />
<glyph unicode="&#x12e;" horiz-adv-x="593" d="M117 -252q0 120 147 252h-59v1475h184v-1475q-68 -70 -97.5 -116.5t-29.5 -98.5q0 -37 25 -60.5t59 -23.5q51 0 105 31l47 -113q-74 -53 -185 -53q-82 0 -139 49t-57 133z" />
<glyph unicode="&#x12f;" horiz-adv-x="524" d="M80 -252q0 120 147 252h-55v1028h180v-1028q-68 -70 -97.5 -116.5t-29.5 -98.5q0 -37 25 -60.5t59 -23.5q51 0 105 31l47 -113q-74 -53 -185 -53q-82 0 -139 49t-57 133zM143 1335q0 49 34.5 83t84.5 34q48 0 83.5 -34t35.5 -83t-35.5 -82.5t-83.5 -33.5 q-50 0 -84.5 33.5t-34.5 82.5z" />
<glyph unicode="&#x130;" horiz-adv-x="593" d="M178 1782q0 49 34.5 82.5t84.5 33.5q48 0 83.5 -33.5t35.5 -82.5t-35.5 -83t-83.5 -34q-50 0 -84.5 34t-34.5 83zM205 0v1475h184v-1475h-184z" />
<glyph unicode="&#x131;" horiz-adv-x="524" d="M172 0v1028h180v-1028h-180z" />
<glyph unicode="&#x136;" horiz-adv-x="1316" d="M205 0v1475h184v-760l658 760h219l-590 -684l631 -791h-230l-514 659l-174 -200v-459h-184zM547 -444l86 331l158 -39l-121 -321z" />
<glyph unicode="&#x137;" horiz-adv-x="1116" d="M172 0v1589h180v-1046l498 485h221l-473 -463l502 -565h-221l-398 451l-129 -125v-326h-180zM440 -444l86 331l158 -39l-121 -321z" />
<glyph unicode="&#x139;" horiz-adv-x="1005" d="M205 0v1475h184v-1311h576v-164h-760zM211 1628l162 309h200l-198 -309h-164z" />
<glyph unicode="&#x13a;" horiz-adv-x="524" d="M172 0v1589h180v-1589h-180zM178 1751l162 309h201l-199 -309h-164z" />
<glyph unicode="&#x13b;" horiz-adv-x="1005" d="M205 0v1475h184v-1311h576v-164h-760zM436 -444l86 331l158 -39l-121 -321z" />
<glyph unicode="&#x13c;" horiz-adv-x="524" d="M139 -444l86 331l158 -39l-121 -321zM172 0v1589h180v-1589h-180z" />
<glyph unicode="&#x13d;" horiz-adv-x="1005" d="M205 0v1475h184v-1311h576v-164h-760zM621 1135l71 360l148 -29l-107 -354z" />
<glyph unicode="&#x13e;" horiz-adv-x="524" d="M172 0v1589h180v-1589h-180zM483 1184l72 360l147 -28l-106 -355z" />
<glyph unicode="&#x141;" horiz-adv-x="1005" d="M-6 391l211 223v861h184v-664l240 254l82 -84l-322 -342v-475h576v-164h-760v444l-129 -137z" />
<glyph unicode="&#x142;" horiz-adv-x="524" d="M-96 428l268 285v876h180v-686l187 199l82 -84l-269 -285v-733h-180v543l-186 -199z" />
<glyph unicode="&#x143;" horiz-adv-x="1654" d="M205 0v1477h213l848 -1229v1227h184v-1477h-215l-846 1227v-1225h-184zM743 1628l162 309h201l-199 -309h-164z" />
<glyph unicode="&#x144;" horiz-adv-x="1218" d="M172 0v1028h170l8 -154q183 175 371 175q150 0 247 -96.5t97 -262.5v-690h-180v635q0 127 -63.5 193.5t-166.5 66.5q-145 0 -303 -166v-729h-180zM524 1182l162 309h201l-199 -309h-164z" />
<glyph unicode="&#x145;" horiz-adv-x="1654" d="M205 0v1477h213l848 -1229v1227h184v-1477h-215l-846 1227v-1225h-184zM705 -444l86 331l157 -39l-121 -321z" />
<glyph unicode="&#x146;" horiz-adv-x="1218" d="M172 0v1028h170l8 -154q183 175 371 175q150 0 247 -96.5t97 -262.5v-690h-180v635q0 127 -63.5 193.5t-166.5 66.5q-145 0 -303 -166v-729h-180zM485 -444l86 331l158 -39l-121 -321z" />
<glyph unicode="&#x147;" horiz-adv-x="1654" d="M205 0v1477h213l848 -1229v1227h184v-1477h-215l-846 1227v-1225h-184zM502 1933h166l157 -207l158 207h168l-254 -299h-141z" />
<glyph unicode="&#x148;" horiz-adv-x="1218" d="M172 0v1028h170l8 -154q183 175 371 175q150 0 247 -96.5t97 -262.5v-690h-180v635q0 127 -63.5 193.5t-166.5 66.5q-145 0 -303 -166v-729h-180zM283 1487h166l157 -207l158 207h168l-254 -299h-141z" />
<glyph unicode="&#x14a;" horiz-adv-x="1665" d="M205 0v1477h213l856 -1192v1190h184v-1553q-1 -97 -34.5 -174.5t-90.5 -126t-130 -73.5t-156 -25q-212 0 -359 131l92 141q119 -100 254 -100q107 0 172 67.5t68 194.5v57l-885 1219v-1233h-184z" />
<glyph unicode="&#x14b;" horiz-adv-x="1183" d="M172 0v1028h170l8 -151q172 172 371 172q150 0 247 -96.5t97 -262.5v-856q0 -138 -84 -214.5t-205 -76.5q-78 0 -151 15l20 147q41 -8 94 -8q67 0 105.5 43t38.5 125l2 770q0 127 -63.5 192.5t-168.5 65.5q-148 0 -301 -164v-729h-180z" />
<glyph unicode="&#x14c;" horiz-adv-x="1712" d="M104 735q0 168 60 312t162 242t239.5 153.5t290.5 56.5q153 -1 290.5 -56.5t240 -153.5t163 -242t60.5 -312q0 -221 -101 -395.5t-272.5 -269t-380.5 -95.5q-209 1 -380 95.5t-271.5 268.5t-100.5 396zM299 735q0 -126 43 -236t117 -187.5t177 -122t220 -44.5 q239 0 398 167.5t159 422.5q1 168 -72 304.5t-200.5 213t-284.5 76.5q-156 0 -283.5 -76.5t-201 -213t-72.5 -304.5zM584 1757v123h540v-123h-540z" />
<glyph unicode="&#x14d;" horiz-adv-x="1290" d="M119 514q0 125 45 229t119.5 170t168 102t193.5 36t193.5 -36t167.5 -102t118.5 -170t44.5 -229q0 -127 -44.5 -231.5t-119 -170t-167 -100.5t-193.5 -35t-194 35t-167.5 100.5t-119.5 170t-45 231.5zM307 514q0 -90 29 -164.5t77 -121.5t108 -72t124 -25t124 25t108 72 t77 121.5t29 164.5t-29 164.5t-77 121.5t-108 72t-124 25t-124 -25t-108 -72t-77 -121.5t-29 -164.5zM373 1311v123h540v-123h-540z" />
<glyph unicode="&#x150;" horiz-adv-x="1712" d="M104 735q0 168 60 312t162 242t239.5 153.5t290.5 56.5q153 -1 290.5 -56.5t240 -153.5t163 -242t60.5 -312q0 -221 -101 -395.5t-272.5 -269t-380.5 -95.5q-209 1 -380 95.5t-271.5 268.5t-100.5 396zM299 735q0 -126 43 -236t117 -187.5t177 -122t220 -44.5 q239 0 398 167.5t159 422.5q1 168 -72 304.5t-200.5 213t-284.5 76.5q-156 0 -283.5 -76.5t-201 -213t-72.5 -304.5zM651 1636l158 310h168l-197 -310h-129zM940 1636l156 310h168l-197 -310h-127z" />
<glyph unicode="&#x151;" horiz-adv-x="1290" d="M119 514q0 125 45 229t119.5 170t168 102t193.5 36t193.5 -36t167.5 -102t118.5 -170t44.5 -229q0 -127 -44.5 -231.5t-119 -170t-167 -100.5t-193.5 -35t-194 35t-167.5 100.5t-119.5 170t-45 231.5zM307 514q0 -90 29 -164.5t77 -121.5t108 -72t124 -25t124 25t108 72 t77 121.5t29 164.5t-29 164.5t-77 121.5t-108 72t-124 25t-124 -25t-108 -72t-77 -121.5t-29 -164.5zM440 1190l158 309h168l-197 -309h-129zM729 1190l156 309h168l-197 -309h-127z" />
<glyph unicode="&#x152;" horiz-adv-x="2330" d="M104 735q0 166 59.5 308.5t161 240t236.5 153t285 56.5q201 -1 357.5 -96.5t246.5 -259.5v338h758v-168h-588v-469h524v-168h-524v-502h588v-168h-758v332q-89 -162 -244.5 -255.5t-359.5 -94.5q-153 1 -289.5 56.5t-236.5 153t-158 238.5t-58 305zM299 735 q0 -165 74 -298t201.5 -207t281.5 -74q116 0 219 43.5t177 119.5t117.5 184t43.5 232q1 250 -160 417t-397 167q-235 0 -396.5 -167t-160.5 -417z" />
<glyph unicode="&#x153;" horiz-adv-x="2088" d="M119 510q0 122 44 223.5t117 166.5t166 100.5t193 35.5q134 0 250 -65.5t184 -182.5q65 117 181.5 182.5t250.5 65.5t245.5 -64t177 -179.5t65.5 -257.5q0 -41 -4 -64h-824q13 -162 117 -250t248 -88q170 0 299 94l69 -125q-157 -116 -370 -116q-152 0 -270 64.5 t-185 180.5q-66 -118 -183 -183.5t-251 -65.5q-100 0 -192.5 35.5t-166 100.5t-117.5 167t-44 225zM307 510q0 -91 30 -164t79 -117.5t108.5 -68t122.5 -23.5q62 0 120.5 23.5t107.5 68t78.5 117.5t29.5 164q0 72 -19.5 133.5t-52.5 104.5t-76.5 73.5t-91 45t-96.5 14.5 q-63 0 -122.5 -23.5t-108.5 -68t-79 -117.5t-30 -162zM1169 590l641 -2q-18 140 -103.5 219.5t-209.5 79.5q-125 0 -216 -79.5t-112 -217.5z" />
<glyph unicode="&#x154;" horiz-adv-x="1193" d="M205 0v1475h184h201q219 0 359.5 -127t140.5 -330q0 -155 -87 -268t-235 -158l406 -592h-211l-369 567h-4h-201v-567h-184zM389 727h186q143 0 233.5 80.5t90.5 210.5q0 131 -90.5 212t-233.5 81h-186v-584zM473 1628l162 309h201l-199 -309h-164z" />
<glyph unicode="&#x155;" horiz-adv-x="800" d="M172 0v1028h170l10 -166q72 80 178.5 131t221.5 43v-164q-111 10 -216 -33t-184 -122v-717h-180zM367 1182l161 309h201l-199 -309h-163z" />
<glyph unicode="&#x156;" horiz-adv-x="1193" d="M205 0v1475h184h201q219 0 359.5 -127t140.5 -330q0 -155 -87 -268t-235 -158l406 -592h-211l-369 567h-4h-201v-567h-184zM389 727h186q143 0 233.5 80.5t90.5 210.5q0 131 -90.5 212t-233.5 81h-186v-584zM512 -444l86 331l158 -39l-121 -321z" />
<glyph unicode="&#x157;" horiz-adv-x="800" d="M168 -444l86 331l158 -39l-121 -321zM172 0v1028h170l10 -166q72 80 178.5 131t221.5 43v-164q-111 10 -216 -33t-184 -122v-717h-180z" />
<glyph unicode="&#x158;" horiz-adv-x="1193" d="M205 0v1475h184h201q219 0 359.5 -127t140.5 -330q0 -155 -87 -268t-235 -158l406 -592h-211l-369 567h-4h-201v-567h-184zM231 1933h166l158 -207l158 207h168l-254 -299h-142zM389 727h186q143 0 233.5 80.5t90.5 210.5q0 131 -90.5 212t-233.5 81h-186v-584z" />
<glyph unicode="&#x159;" horiz-adv-x="800" d="M125 1487h166l158 -207l157 207h168l-254 -299h-141zM172 0v1028h170l10 -166q72 80 178.5 131t221.5 43v-164q-111 10 -216 -33t-184 -122v-717h-180z" />
<glyph unicode="&#x15a;" horiz-adv-x="1126" d="M82 158l96 149q187 -162 387 -162q129 0 208.5 63.5t78.5 168.5q0 49 -25 92t-67 76.5t-96 65t-113.5 62t-119.5 63t-114 71.5t-95.5 83.5t-66 104.5t-24.5 129q0 163 129 269t318 106q229 0 430 -151l-93 -146q-172 129 -335 129q-111 0 -183.5 -58.5t-72.5 -148.5 q0 -54 31 -100.5t81.5 -80.5t115 -69.5t132 -67t132 -74t115 -89t82 -114t31.5 -146.5q1 -188 -135 -297t-344 -109q-147 0 -272.5 51.5t-210.5 129.5zM485 1628l162 309h201l-199 -309h-164z" />
<glyph unicode="&#x15b;" horiz-adv-x="970" d="M86 111l78 131q161 -125 313 -125q100 0 158.5 42t58.5 115q0 43 -31 77t-81 58t-110 47.5t-120.5 51t-110.5 61t-81 86t-31 119.5q0 120 105.5 198.5t269.5 78.5q183 0 360 -107l-65 -129q-150 98 -285 98q-87 0 -141 -38t-54 -97q0 -40 31.5 -72.5t81.5 -56t110.5 -46 t121 -50t110.5 -62t81.5 -88t31.5 -120.5q0 -137 -109 -221.5t-295 -84.5q-115 0 -218 37t-179 97zM418 1182l162 309h200l-198 -309h-164z" />
<glyph unicode="&#x15e;" horiz-adv-x="1126" d="M82 158l96 149q187 -162 387 -162q129 0 208.5 63.5t78.5 168.5q0 49 -25 92t-67 76.5t-96 65t-113.5 62t-119.5 63t-114 71.5t-95.5 83.5t-66 104.5t-24.5 129q0 163 129 269t318 106q229 0 430 -151l-93 -146q-172 129 -335 129q-111 0 -183.5 -58.5t-72.5 -148.5 q0 -54 31 -100.5t81.5 -80.5t115 -69.5t132 -67t132 -74t115 -89t82 -114t31.5 -146.5q1 -178 -121 -285t-313 -118l-22 -66q75 -2 127.5 -48t52.5 -118q0 -78 -59.5 -130t-149.5 -52q-130 0 -213 59l57 94q64 -45 148 -45q45 0 74.5 24.5t29.5 63.5q0 38 -28 62t-76 24 q-51 0 -96 -20l-6 4l67 148q-131 8 -244 58t-190 120z" />
<glyph unicode="&#x15f;" horiz-adv-x="970" d="M86 111l78 131q161 -125 313 -125q100 0 158.5 42t58.5 115q0 43 -31 77t-81 58t-110 47.5t-120.5 51t-110.5 61t-81 86t-31 119.5q0 120 105.5 198.5t269.5 78.5q183 0 360 -107l-65 -129q-150 98 -285 98q-87 0 -141 -38t-54 -97q0 -40 31.5 -72.5t81.5 -56t110.5 -46 t121 -50t110.5 -62t81.5 -88t31.5 -120.5q0 -127 -94 -209t-258 -94l-23 -66q75 -2 127.5 -48t52.5 -118q0 -78 -59.5 -130t-149.5 -52q-130 0 -213 59l58 94q64 -45 147 -45q45 0 75 24.5t30 63.5q0 38 -28.5 62t-76.5 24q-51 0 -96 -20l-6 4l67 148q-102 6 -193.5 41.5 t-160.5 89.5z" />
<glyph unicode="&#x160;" horiz-adv-x="1126" d="M82 158l96 149q187 -162 387 -162q129 0 208.5 63.5t78.5 168.5q0 49 -25 92t-67 76.5t-96 65t-113.5 62t-119.5 63t-114 71.5t-95.5 83.5t-66 104.5t-24.5 129q0 163 129 269t318 106q229 0 430 -151l-93 -146q-172 129 -335 129q-111 0 -183.5 -58.5t-72.5 -148.5 q0 -54 31 -100.5t81.5 -80.5t115 -69.5t132 -67t132 -74t115 -89t82 -114t31.5 -146.5q1 -188 -135 -297t-344 -109q-147 0 -272.5 51.5t-210.5 129.5zM244 1933h166l157 -207l158 207h168l-254 -299h-141z" />
<glyph unicode="&#x161;" horiz-adv-x="970" d="M86 111l78 131q161 -125 313 -125q100 0 158.5 42t58.5 115q0 43 -31 77t-81 58t-110 47.5t-120.5 51t-110.5 61t-81 86t-31 119.5q0 120 105.5 198.5t269.5 78.5q183 0 360 -107l-65 -129q-150 98 -285 98q-87 0 -141 -38t-54 -97q0 -40 31.5 -72.5t81.5 -56t110.5 -46 t121 -50t110.5 -62t81.5 -88t31.5 -120.5q0 -137 -109 -221.5t-295 -84.5q-115 0 -218 37t-179 97zM176 1487h166l158 -207l157 207h168l-254 -299h-141z" />
<glyph unicode="&#x162;" horiz-adv-x="1085" d="M41 1311v164h1003v-164h-409v-1311h-47l-29 -86q75 -2 127.5 -48t52.5 -118q0 -78 -59.5 -130t-149.5 -52q-130 0 -213 59l58 94q64 -45 147 -45q45 0 75 24.5t30 63.5q0 38 -28.5 62t-76.5 24q-51 0 -96 -20l-6 4l78 168h-47v1311h-410z" />
<glyph unicode="&#x163;" horiz-adv-x="753" d="M47 877v151h152v238l182 32v-270h285v-151h-285v-590q0 -71 30.5 -108.5t86.5 -37.5q65 0 141 49l47 -133q-104 -64 -207 -71l-24 -72q75 -2 127.5 -48t52.5 -118q0 -78 -59.5 -130t-149.5 -52q-130 0 -213 59l57 94q64 -45 148 -45q45 0 74.5 24.5t29.5 63.5 q0 38 -28 62t-76 24q-51 0 -96 -20l-7 4l74 160q-90 15 -139 82.5t-49 183.5l-2 619h-152z" />
<glyph unicode="&#x164;" horiz-adv-x="1085" d="M41 1311v164h1003v-164h-409v-1311h-184v1311h-410zM217 1933h166l158 -207l157 207h168l-254 -299h-141z" />
<glyph unicode="&#x165;" horiz-adv-x="753" d="M47 877v151h152v238l182 32v-270h285v-151h-285v-590q0 -71 30.5 -108.5t86.5 -37.5q65 0 141 49l47 -133q-115 -71 -237 -71q-117 0 -182.5 69.5t-65.5 202.5l-2 619h-152zM524 1176l72 360l147 -29l-106 -354z" />
<glyph unicode="&#x166;" horiz-adv-x="1085" d="M41 1311v164h1003v-164h-409v-502h219v-141h-219v-668h-184v668h-220v141h220v502h-410z" />
<glyph unicode="&#x167;" horiz-adv-x="753" d="M45 465v141h156l-2 271h-152v151h152v238l182 32v-270h285v-151h-285v-271h287v-141h-287v-178q0 -71 30.5 -108.5t86.5 -37.5q65 0 141 49l47 -133q-115 -71 -237 -71q-117 0 -182.5 69.5t-65.5 202.5v207h-156z" />
<glyph unicode="&#x16a;" horiz-adv-x="1388" d="M164 483v992h184l2 -959q0 -174 91 -272.5t253 -98.5t254 98.5t92 272.5v959h185v-992q0 -235 -143.5 -373.5t-387.5 -138.5q-243 0 -386.5 138.5t-143.5 373.5zM422 1757v123h541v-123h-541z" />
<glyph unicode="&#x16b;" horiz-adv-x="1218" d="M154 338v690h180v-635q0 -127 63 -193.5t166 -66.5q145 0 303 166v729h181v-1028h-170l-9 154q-182 -174 -370 -174q-150 0 -247 96t-97 262zM332 1311v123h540v-123h-540z" />
<glyph unicode="&#x16d;" horiz-adv-x="1218" d="M154 338v690h180v-635q0 -127 63 -193.5t166 -66.5q145 0 303 166v729h181v-1028h-170l-9 154q-182 -174 -370 -174q-150 0 -247 96t-97 262zM332 1501h125q1 -79 44.5 -124.5t102.5 -45.5q62 0 105.5 45t44.5 125h125q-1 -90 -40.5 -158t-101 -100.5t-133.5 -32.5 q-112 0 -191.5 78t-80.5 213z" />
<glyph unicode="&#x16e;" horiz-adv-x="1388" d="M164 483v992h184l2 -959q0 -174 91 -272.5t253 -98.5t254 98.5t92 272.5v959h185v-992q0 -235 -143.5 -373.5t-387.5 -138.5q-243 0 -386.5 138.5t-143.5 373.5zM489 1800q0 88 61.5 145.5t143.5 57.5q84 0 145.5 -57.5t61.5 -145.5q0 -90 -61 -146.5t-146 -56.5 q-83 0 -144 57t-61 146zM586 1800q0 -49 32.5 -81.5t75.5 -32.5q46 0 78.5 32t32.5 82t-33 82.5t-78 32.5q-43 0 -75.5 -33t-32.5 -82z" />
<glyph unicode="&#x16f;" horiz-adv-x="1218" d="M154 338v690h180v-635q0 -127 63 -193.5t166 -66.5q145 0 303 166v729h181v-1028h-170l-9 154q-182 -174 -370 -174q-150 0 -247 96t-97 262zM399 1354q0 88 61.5 145t143.5 57q84 0 145.5 -57t61.5 -145q0 -90 -61 -146.5t-146 -56.5q-83 0 -144 57t-61 146zM496 1354 q0 -49 32.5 -82t75.5 -33q45 0 78 32.5t33 82.5t-32.5 82t-78.5 32q-43 0 -75.5 -32.5t-32.5 -81.5z" />
<glyph unicode="&#x170;" horiz-adv-x="1388" d="M164 483v992h184l2 -959q0 -174 91 -272.5t253 -98.5t254 98.5t92 272.5v959h185v-992q0 -235 -143.5 -373.5t-387.5 -138.5q-243 0 -386.5 138.5t-143.5 373.5zM489 1636l158 310h168l-197 -310h-129zM778 1636l156 310h168l-197 -310h-127z" />
<glyph unicode="&#x171;" horiz-adv-x="1218" d="M154 338v690h180v-635q0 -127 63 -193.5t166 -66.5q145 0 303 166v729h181v-1028h-170l-9 154q-182 -174 -370 -174q-150 0 -247 96t-97 262zM399 1190l158 309h168l-197 -309h-129zM688 1190l156 309h168l-197 -309h-127z" />
<glyph unicode="&#x172;" horiz-adv-x="1388" d="M164 483v992h184l2 -959q0 -174 91 -272.5t253 -98.5t254 98.5t92 272.5v959h185v-992q0 -132 -48 -237t-137 -172q-55 -58 -79.5 -101t-24.5 -90q0 -37 25 -60.5t59 -23.5q50 0 104 31l47 -113q-74 -53 -184 -53q-82 0 -139 49t-57 133q0 74 47 140q-68 -15 -144 -15 q-243 0 -386.5 138.5t-143.5 373.5z" />
<glyph unicode="&#x173;" horiz-adv-x="1218" d="M154 338v690h180v-635q0 -127 63 -193.5t166 -66.5q145 0 303 166v729h181v-1028h-3q-67 -69 -96.5 -116t-29.5 -99q0 -37 24.5 -60.5t58.5 -23.5q51 0 105 31l47 -113q-74 -53 -184 -53q-82 0 -139.5 49t-57.5 133q0 119 148 252h-43l-9 154q-182 -174 -370 -174 q-150 0 -247 96t-97 262z" />
<glyph unicode="&#x174;" horiz-adv-x="2052" d="M10 1475h203l362 -1203l369 1211h162l369 -1215l362 1207h203l-475 -1479h-176l-363 1198l-364 -1198h-177zM700 1634l254 299h142l254 -299h-168l-158 207l-158 -207h-166z" />
<glyph unicode="&#x175;" horiz-adv-x="1619" d="M16 1028h185l268 -829l260 833h162l260 -833l266 829h185l-355 -1036h-176l-260 862l-262 -862h-178zM483 1188l254 299h142l254 -299h-168l-158 207l-158 -207h-166z" />
<glyph unicode="&#x176;" horiz-adv-x="1224" d="M25 1475h196l391 -732l392 732h196l-491 -904v-571h-191v569zM291 1634l254 299h141l254 -299h-168l-158 207l-157 -207h-166z" />
<glyph unicode="&#x177;" horiz-adv-x="1226" d="M162 352v676h180v-620q0 -125 63 -191.5t166 -66.5q150 0 303 157v721h181v-934q0 -239 -142.5 -385.5t-388.5 -146.5q-89 0 -192 14l18 145q80 -12 156 -12q176 0 272 105.5t96 294.5v57q-170 -166 -370 -166q-148 0 -245 93.5t-97 258.5zM287 1188l254 299h141 l254 -299h-168l-158 207l-157 -207h-166z" />
<glyph unicode="&#x178;" horiz-adv-x="1224" d="M25 1475h196l391 -732l392 732h196l-491 -904v-571h-191v569zM362 1778q0 41 29.5 68.5t69.5 27.5q39 0 67.5 -27.5t28.5 -68.5t-28.5 -70t-67.5 -29q-40 0 -69.5 29t-29.5 70zM676 1778q0 41 28.5 68.5t67.5 27.5q40 0 69 -27.5t29 -68.5t-29 -70t-69 -29 q-39 0 -67.5 29t-28.5 70z" />
<glyph unicode="&#x179;" horiz-adv-x="1216" d="M82 18l752 1293h-709l-2 164h991l2 -21l-743 -1290h762v-164h-1049zM526 1628l162 309h201l-199 -309h-164z" />
<glyph unicode="&#x17a;" horiz-adv-x="1005" d="M51 0v12l600 865h-565v151h854v-16l-596 -862h596v-150h-889zM416 1182l162 309h200l-198 -309h-164z" />
<glyph unicode="&#x17b;" horiz-adv-x="1216" d="M82 18l752 1293h-709l-2 164h991l2 -21l-743 -1290h762v-164h-1049zM492 1782q0 49 34 82.5t84 33.5q48 0 83.5 -33.5t35.5 -82.5t-35.5 -83t-83.5 -34q-50 0 -84 34t-34 83z" />
<glyph unicode="&#x17c;" horiz-adv-x="1005" d="M51 0v12l600 865h-565v151h854v-16l-596 -862h596v-150h-889zM381 1335q0 49 34.5 83t84.5 34q48 0 83 -34t35 -83t-35 -82.5t-83 -33.5q-50 0 -84.5 33.5t-34.5 82.5z" />
<glyph unicode="&#x17d;" horiz-adv-x="1216" d="M82 18l752 1293h-709l-2 164h991l2 -21l-743 -1290h762v-164h-1049zM285 1933h166l157 -207l158 207h168l-254 -299h-141z" />
<glyph unicode="&#x17e;" horiz-adv-x="1005" d="M51 0v12l600 865h-565v151h854v-16l-596 -862h596v-150h-889zM174 1487h166l158 -207l157 207h168l-254 -299h-141z" />
<glyph unicode="&#x192;" horiz-adv-x="1155" d="M82 27l51 151q74 -31 133 -31q67 1 102.5 46.5t49.5 138.5l63 438h-268v78h281l49 338q21 147 103 224t210 77q118 0 217 -47l-49 -152q-89 33 -139 33q-69 -1 -106.5 -46.5t-49.5 -137.5l-41 -289h338v-78h-348l-70 -491q-19 -139 -103.5 -218t-209.5 -79 q-118 0 -213 45z" />
<glyph unicode="&#x218;" horiz-adv-x="1126" d="M82 158l96 149q187 -162 387 -162q129 0 208.5 63.5t78.5 168.5q0 49 -25 92t-67 76.5t-96 65t-113.5 62t-119.5 63t-114 71.5t-95.5 83.5t-66 104.5t-24.5 129q0 163 129 269t318 106q229 0 430 -151l-93 -146q-172 129 -335 129q-111 0 -183.5 -58.5t-72.5 -148.5 q0 -54 31 -100.5t81.5 -80.5t115 -69.5t132 -67t132 -74t115 -89t82 -114t31.5 -146.5q1 -188 -135 -297t-344 -109q-147 0 -272.5 51.5t-210.5 129.5zM449 -444l86 331l157 -39l-121 -321z" />
<glyph unicode="&#x219;" horiz-adv-x="970" d="M86 111l78 131q161 -125 313 -125q100 0 158.5 42t58.5 115q0 43 -31 77t-81 58t-110 47.5t-120.5 51t-110.5 61t-81 86t-31 119.5q0 120 105.5 198.5t269.5 78.5q183 0 360 -107l-65 -129q-150 98 -285 98q-87 0 -141 -38t-54 -97q0 -40 31.5 -72.5t81.5 -56t110.5 -46 t121 -50t110.5 -62t81.5 -88t31.5 -120.5q0 -137 -109 -221.5t-295 -84.5q-115 0 -218 37t-179 97zM373 -444l86 331l157 -39l-120 -321z" />
<glyph unicode="&#x21a;" horiz-adv-x="1085" d="M41 1311v164h1003v-164h-409v-1311h-184v1311h-410zM420 -444l86 331l158 -39l-121 -321z" />
<glyph unicode="&#x21b;" horiz-adv-x="753" d="M47 877v151h152v238l182 32v-270h285v-151h-285v-590q0 -71 30.5 -108.5t86.5 -37.5q65 0 141 49l47 -133q-115 -71 -237 -71q-117 0 -182.5 69.5t-65.5 202.5l-2 619h-152zM315 -444l86 331l158 -39l-121 -321z" />
<glyph unicode="&#x237;" horiz-adv-x="438" d="M-123 -424l21 145q77 -10 94 -10q67 0 106 44t39 128v1145h182l-4 -1175q0 -140 -81.5 -215.5t-204.5 -75.5q-81 0 -152 14z" />
<glyph unicode="&#x2b9;" horiz-adv-x="536" d="M123 924l104 596l187 -35l-162 -586z" />
<glyph unicode="&#x2ba;" horiz-adv-x="866" d="M123 924l104 596l187 -35l-162 -586zM453 924l104 596l186 -35l-161 -586z" />
<glyph unicode="&#x2c6;" horiz-adv-x="819" d="M86 1188l254 299h141l254 -299h-168l-157 207l-158 -207h-166z" />
<glyph unicode="&#x2c7;" horiz-adv-x="819" d="M86 1487h166l158 -207l157 207h168l-254 -299h-141z" />
<glyph unicode="&#x2d8;" horiz-adv-x="716" d="M86 1501h125q1 -79 44.5 -124.5t102.5 -45.5q62 0 105.5 45t44.5 125h125q-1 -90 -40.5 -158t-101 -100.5t-133.5 -32.5q-112 0 -191.5 78t-80.5 213z" />
<glyph unicode="&#x2d9;" horiz-adv-x="407" d="M86 1343q0 49 34.5 83t84.5 34q48 0 83.5 -34t35.5 -83t-35.5 -82.5t-83.5 -33.5q-50 0 -84.5 33.5t-34.5 82.5z" />
<glyph unicode="&#x2da;" horiz-adv-x="581" d="M86 1354q0 88 61.5 145t143.5 57q84 0 145.5 -57t61.5 -145q0 -90 -61 -146.5t-146 -56.5q-83 0 -144 57t-61 146zM182 1354q0 -49 33 -82t76 -33q45 0 77.5 32.5t32.5 82.5t-32.5 82t-77.5 32q-43 0 -76 -32.5t-33 -81.5z" />
<glyph unicode="&#x2db;" horiz-adv-x="552" d="M86 -252q0 120 147 252h125q-68 -70 -97.5 -116.5t-29.5 -98.5q0 -37 25 -60.5t59 -23.5q51 0 105 31l47 -113q-74 -53 -184 -53q-82 0 -139.5 49t-57.5 133z" />
<glyph unicode="&#x2dc;" horiz-adv-x="727" d="M86 1288v131q66 51 152 51q55 0 133 -34.5t121 -34.5q82 0 151 59v-131q-58 -51 -151 -51q-53 0 -131.5 35t-124.5 35q-80 0 -150 -60z" />
<glyph unicode="&#x2dd;" horiz-adv-x="784" d="M86 1190l158 309h168l-197 -309h-129zM375 1190l155 309h168l-196 -309h-127z" />
<glyph unicode="&#x300;" horiz-adv-x="0" d="M-362 1499h200l162 -309h-164z" />
<glyph unicode="&#x301;" horiz-adv-x="0" d="M-362 1190l161 309h201l-199 -309h-163z" />
<glyph unicode="&#x302;" horiz-adv-x="0" d="M-649 1188l254 299h141l254 -299h-168l-158 207l-157 -207h-166z" />
<glyph unicode="&#x303;" horiz-adv-x="0" d="M-557 1288v131q66 51 151 51q55 0 133 -34.5t121 -34.5q83 0 152 59v-131q-58 -51 -152 -51q-53 0 -131.5 35t-124.5 35q-79 0 -149 -60z" />
<glyph unicode="&#x304;" horiz-adv-x="0" d="M-541 1311v123h541v-123h-541z" />
<glyph unicode="&#x306;" horiz-adv-x="0" d="M-547 1501h125q1 -79 45 -124.5t103 -45.5q62 0 105 45t44 125h125q-1 -135 -81.5 -213t-192.5 -78t-192 78t-81 213z" />
<glyph unicode="&#x307;" horiz-adv-x="0" d="M-238 1343q0 49 34.5 83t84.5 34q48 0 83.5 -34t35.5 -83t-35.5 -82.5t-83.5 -33.5q-50 0 -84.5 33.5t-34.5 82.5z" />
<glyph unicode="&#x308;" horiz-adv-x="0" d="M-508 1339q0 41 29 69t69 28q39 0 68 -28t29 -69t-29 -69.5t-68 -28.5q-40 0 -69 28.5t-29 69.5zM-195 1339q0 41 29 69t68 28q40 0 69 -28t29 -69t-29 -69.5t-69 -28.5q-39 0 -68 28.5t-29 69.5z" />
<glyph unicode="&#x30a;" horiz-adv-x="0" d="M-412 1354q0 88 61.5 145t143.5 57q84 0 145.5 -57t61.5 -145q0 -90 -61 -146.5t-146 -56.5q-83 0 -144 57t-61 146zM-315 1354q0 -49 32.5 -82t75.5 -33q45 0 78 32.5t33 82.5t-32.5 82t-78.5 32q-43 0 -75.5 -32.5t-32.5 -81.5z" />
<glyph unicode="&#x30b;" horiz-adv-x="0" d="M-612 1190l157 309h168l-196 -309h-129zM-324 1190l156 309h168l-197 -309h-127z" />
<glyph unicode="&#x30c;" horiz-adv-x="0" d="M-649 1487h166l157 -207l158 207h168l-254 -299h-141z" />
<glyph unicode="&#x312;" horiz-adv-x="0" d="M-244 1210l121 322l123 -29l-86 -332z" />
<glyph unicode="&#x326;" horiz-adv-x="0" d="M-244 -444l86 331l158 -39l-121 -321z" />
<glyph unicode="&#x327;" horiz-adv-x="0" d="M-422 -375l57 94q64 -45 148 -45q45 0 74.5 24.5t29.5 63.5q0 38 -28 62t-76 24q-51 0 -96 -20l-6 4l77 168l45 23l45 -23l-28 -86q75 -2 127.5 -48t52.5 -118q0 -78 -59.5 -130t-149.5 -52q-130 0 -213 59z" />
<glyph unicode="&#x328;" horiz-adv-x="0" d="M-381 -252q0 119 148 252h124q-68 -70 -97.5 -116.5t-29.5 -98.5q0 -37 25 -60.5t59 -23.5q51 0 105 31l47 -113q-74 -53 -184 -53q-82 0 -139.5 49t-57.5 133z" />
<glyph unicode="&#x335;" horiz-adv-x="0" d="M-623 512v141h623v-141h-623z" />
<glyph unicode="&#x336;" horiz-adv-x="0" d="M-1407 498v155h1407v-155h-1407z" />
<glyph unicode="&#x337;" horiz-adv-x="0" d="M-717 285l635 673l82 -84l-635 -673z" />
<glyph unicode="&#x338;" horiz-adv-x="0" d="M-1335 0l1204 1475h131l-1204 -1475h-131z" />
<glyph unicode="&#x394;" horiz-adv-x="1382" d="M10 0l584 1487h199l579 -1487h-1362zM274 166h834l-416 1110z" />
<glyph unicode="&#x3a9;" horiz-adv-x="1605" d="M104 842q0 131 52 250t142.5 207t222 140t282.5 52q152 0 283.5 -52t222 -140.5t142.5 -207t52 -249.5q0 -208 -109 -380t-282 -294h324v-168h-533v156q89 69 154 131.5t127.5 144.5t95.5 179.5t33 205.5q0 99 -38.5 190.5t-105 159.5t-162 109t-204.5 41 q-144 0 -262 -69.5t-182 -183.5t-64 -247q0 -108 33 -205.5t95.5 -179.5t127.5 -144.5t154 -131.5l-3 -156h-532v168h324q-82 58 -149.5 127t-123 153t-86.5 185t-31 209z" />
<glyph unicode="&#x3bc;" horiz-adv-x="1222" d="M154 -451v1479h182v-622q0 -137 66 -204t169 -67q151 0 299 166v727h181v-1028h-168l-11 150q-135 -166 -307 -166q-151 0 -229 116v-551h-182z" />
<glyph unicode="&#x3c0;" horiz-adv-x="1290" d="M47 877v151h1155v-151h-203v-656q0 -36 17 -56t45 -20q46 0 104 35l54 -131q-98 -61 -207 -61q-88 0 -140.5 52t-52.5 150v687h-389v-877h-180v877h-203z" />
<glyph unicode="&#x1e80;" horiz-adv-x="2052" d="M10 1475h203l362 -1203l369 1211h162l369 -1215l362 1207h203l-475 -1479h-176l-363 1198l-364 -1198h-177zM745 1946h201l162 -310h-164z" />
<glyph unicode="&#x1e81;" horiz-adv-x="1619" d="M16 1028h185l268 -829l260 833h162l260 -833l266 829h185l-355 -1036h-176l-260 862l-262 -862h-178zM528 1499h201l162 -309h-164z" />
<glyph unicode="&#x1e82;" horiz-adv-x="2052" d="M10 1475h203l362 -1203l369 1211h162l369 -1215l362 1207h203l-475 -1479h-176l-363 1198l-364 -1198h-177zM942 1628l162 309h201l-199 -309h-164z" />
<glyph unicode="&#x1e83;" horiz-adv-x="1619" d="M16 1028h185l268 -829l260 833h162l260 -833l266 829h185l-355 -1036h-176l-260 862l-262 -862h-178zM725 1182l162 309h200l-198 -309h-164z" />
<glyph unicode="&#x1e84;" horiz-adv-x="2052" d="M10 1475h203l362 -1203l369 1211h162l369 -1215l362 1207h203l-475 -1479h-176l-363 1198l-364 -1198h-177zM772 1778q0 41 29 68.5t69 27.5q39 0 68 -28t29 -68q0 -41 -29 -70t-68 -29q-40 0 -69 29t-29 70zM1085 1778q0 40 29 68t68 28q40 0 69 -27.5t29 -68.5t-29 -70 t-69 -29q-39 0 -68 29t-29 70z" />
<glyph unicode="&#x1e85;" horiz-adv-x="1619" d="M16 1028h185l268 -829l260 833h162l260 -833l266 829h185l-355 -1036h-176l-260 862l-262 -862h-178zM555 1331q0 41 29 68.5t69 27.5q39 0 68 -28t29 -68q0 -41 -29 -69.5t-68 -28.5q-40 0 -69 28.5t-29 69.5zM868 1331q0 40 29 68t68 28q40 0 69 -27.5t29 -68.5 t-29 -69.5t-69 -28.5q-39 0 -68 28.5t-29 69.5z" />
<glyph unicode="&#x1ef2;" horiz-adv-x="1224" d="M25 1475h196l391 -732l392 732h196l-491 -904v-571h-191v569zM336 1946h201l161 -310h-163z" />
<glyph unicode="&#x1ef3;" horiz-adv-x="1226" d="M162 352v676h180v-620q0 -125 63 -191.5t166 -66.5q150 0 303 157v721h181v-934q0 -239 -142.5 -385.5t-388.5 -146.5q-89 0 -192 14l18 145q80 -12 156 -12q176 0 272 105.5t96 294.5v57q-170 -166 -370 -166q-148 0 -245 93.5t-97 258.5zM332 1499h200l162 -309h-164z " />
<glyph unicode="&#x2007;" />
<glyph unicode="&#x2013;" horiz-adv-x="1153" d="M86 537v143h981v-143h-981z" />
<glyph unicode="&#x2014;" horiz-adv-x="1636" d="M86 530v150h1462v-150h-1462z" />
<glyph unicode="&#x2018;" horiz-adv-x="485" d="M98 1212q0 93 48.5 175t138.5 133l57 -70q-127 -91 -127 -199q0 -33 10 -63q24 14 51 14q47 0 79 -31.5t32 -80.5q0 -46 -35 -79.5t-82 -33.5q-71 0 -121.5 69.5t-50.5 165.5z" />
<glyph unicode="&#x2019;" horiz-adv-x="485" d="M98 1403q0 46 35 79.5t82 33.5q71 0 121.5 -70t50.5 -166q0 -93 -48 -174.5t-138 -132.5l-58 69q127 91 127 199q0 34 -10 64q-26 -15 -51 -15q-46 0 -78.5 32t-32.5 81z" />
<glyph unicode="&#x201a;" horiz-adv-x="495" d="M102 100q0 46 35 79.5t82 33.5q71 0 121.5 -70t50.5 -166q0 -93 -48 -174.5t-138 -132.5l-58 70q127 91 127 199q0 33 -10 63q-24 -14 -51 -14q-47 0 -79 31.5t-32 80.5z" />
<glyph unicode="&#x201c;" horiz-adv-x="854" d="M98 1214q0 93 48.5 175t138.5 133l57 -70q-127 -91 -127 -199q0 -33 10 -63q24 14 51 14q47 0 79 -31.5t32 -80.5q0 -46 -35 -79.5t-82 -33.5q-71 0 -121.5 69.5t-50.5 165.5zM467 1214q0 93 48 175t138 133l58 -70q-127 -91 -127 -199q0 -33 10 -63q24 14 51 14 q47 0 79 -31.5t32 -80.5q0 -46 -35 -79.5t-82 -33.5q-71 0 -121.5 69.5t-50.5 165.5z" />
<glyph unicode="&#x201d;" horiz-adv-x="845" d="M98 1403q0 46 35 79.5t82 33.5q71 0 121.5 -70t50.5 -166q0 -93 -48 -174.5t-138 -132.5l-58 69q127 91 127 199q0 34 -10 64q-26 -15 -51 -15q-46 0 -78.5 32t-32.5 81zM459 1403q0 46 34.5 79.5t81.5 33.5q72 0 122.5 -70t50.5 -166q0 -93 -48.5 -174.5t-138.5 -132.5 l-57 69q127 91 127 199q0 34 -10 64q-26 -15 -52 -15q-46 0 -78 32t-32 81z" />
<glyph unicode="&#x201e;" horiz-adv-x="862" d="M102 100q0 46 35 79.5t82 33.5q71 0 121.5 -70t50.5 -166q0 -93 -48 -174.5t-138 -132.5l-58 70q127 91 127 199q0 33 -10 63q-24 -14 -51 -14q-47 0 -79 31.5t-32 80.5zM469 100q0 46 35 79.5t82 33.5q71 0 121.5 -70t50.5 -166q0 -93 -48.5 -174.5t-138.5 -132.5 l-57 70q127 91 127 199q0 33 -10 63q-25 -14 -51 -14q-47 0 -79 31.5t-32 80.5z" />
<glyph unicode="&#x2020;" horiz-adv-x="845" d="M123 1210v115h239v272h123v-272h238v-115h-238v-436h-123v436h-239z" />
<glyph unicode="&#x2021;" horiz-adv-x="845" d="M123 899v113h239v221h-239v115h239v249h123v-249h238v-115h-238v-221h238v-113h-238v-250h-123v250h-239z" />
<glyph unicode="&#x2022;" horiz-adv-x="632" d="M74 672q0 112 81.5 192t194.5 80q117 0 200 -80t83 -192q0 -117 -83 -200t-200 -83q-113 0 -194.5 83t-81.5 200z" />
<glyph unicode="&#x2026;" horiz-adv-x="1642" d="M102 109q0 49 35.5 83.5t85.5 34.5q51 0 87 -34.5t36 -83.5q0 -51 -36 -87t-87 -36q-50 0 -85.5 36t-35.5 87zM700 109q0 49 35.5 83.5t85.5 34.5q51 0 87 -34.5t36 -83.5q0 -51 -36 -87t-87 -36q-50 0 -85.5 36t-35.5 87zM1296 109q0 49 35.5 83.5t85.5 34.5 q51 0 87 -34.5t36 -83.5q0 -51 -36 -87t-87 -36q-50 0 -85.5 36t-35.5 87z" />
<glyph unicode="&#x2030;" horiz-adv-x="2428" d="M47 1077q0 198 87 307t222 109q134 0 221 -109t87 -307q0 -195 -87 -303t-221 -108q-135 0 -222 108t-87 303zM186 1079q0 -136 45.5 -211t124.5 -75t123.5 74.5t44.5 211.5t-44.5 212t-123.5 75t-124.5 -75.5t-45.5 -211.5zM244 0l1108 1475h123l-1108 -1475h-123z M1055 397q0 198 87 307t222 109q134 0 220.5 -109t86.5 -307q0 -195 -87 -303t-220 -108q-135 0 -222 108t-87 303zM1194 399q0 -136 45.5 -211t124.5 -75t123.5 74.5t44.5 211.5t-44.5 212t-123.5 75t-124.5 -75.5t-45.5 -211.5zM1765 397q0 198 87.5 307t222.5 109 q134 0 220.5 -109t86.5 -307q0 -195 -87 -303t-220 -108q-135 0 -222.5 108t-87.5 303zM1905 399q0 -136 45.5 -211t124.5 -75t123.5 74.5t44.5 211.5t-44.5 212t-123.5 75t-124.5 -75.5t-45.5 -211.5z" />
<glyph unicode="&#x2032;" horiz-adv-x="536" d="M123 924l104 596l187 -35l-162 -586z" />
<glyph unicode="&#x2039;" horiz-adv-x="880" d="M172 610v15l363 401h174l-379 -410l379 -409h-174z" />
<glyph unicode="&#x203a;" horiz-adv-x="880" d="M172 207l379 409l-379 410h174l363 -401v-15l-363 -403h-174z" />
<glyph unicode="&#x203d;" horiz-adv-x="1003" d="M41 1300q83 85 198.5 141t252.5 56q199 0 335 -118t136 -302q0 -117 -56 -209t-145 -146t-203 -77l-10 -256h-125l-25 709h176l-12 -312q114 37 179 107t65 172q0 125 -92.5 198.5t-225.5 73.5q-95 0 -195.5 -45.5t-172.5 -120.5zM362 106q0 49 35.5 84t85.5 35 q51 0 87 -35t36 -84q0 -51 -36 -86.5t-87 -35.5q-50 0 -85.5 35.5t-35.5 86.5z" />
<glyph unicode="&#x2044;" horiz-adv-x="296" d="M-467 0l1108 1475h123l-1108 -1475h-123z" />
<glyph unicode="&#x20ac;" horiz-adv-x="1269" d="M82 569v76h141q-4 62 -4 92q0 37 4 103h-141v75h154q47 257 214.5 417.5t409.5 160.5q177 0 326 -96l-68 -150q-113 76 -248 76q-161 0 -278.5 -111t-159.5 -297h545l-31 -75h-526q-6 -50 -6 -103q0 -30 4 -92h444l-31 -76h-401q40 -190 159 -304.5t281 -114.5 q138 0 248 77l68 -151q-149 -96 -326 -96q-245 0 -414 164t-213 425h-151z" />
<glyph unicode="&#x2117;" horiz-adv-x="1667" d="M104 735q0 157 60 293.5t160.5 230t233 148t276.5 55.5q144 -1 276.5 -55.5t232.5 -148t160 -230t60 -293.5q0 -206 -99.5 -372t-265.5 -257.5t-364 -93.5q-148 1 -281.5 55.5t-232.5 148.5t-157.5 229t-58.5 290zM217 735q0 -178 84.5 -319.5t225 -218t307.5 -76.5 q168 0 308 76.5t224 218t84 319.5q0 177 -84 320t-224.5 222t-307.5 79q-124 0 -237 -46.5t-197 -127.5t-133.5 -197.5t-49.5 -249.5zM618 377v717h119h168q111 0 182.5 -72t71.5 -174q0 -101 -72.5 -168.5t-181.5 -67.5h-168v-235h-119zM737 715h152q65 0 106 37.5t41 95.5 q0 60 -41.5 99.5t-105.5 39.5h-152v-272z" />
<glyph unicode="&#x2120;" horiz-adv-x="1574" d="M123 918l53 79q39 -32 90 -50.5t96 -18.5q54 0 84.5 21t30.5 61q0 35 -33.5 61t-81.5 46t-96 43t-81.5 63.5t-34.5 95.5q-2 71 59.5 119.5t152.5 48.5q115 0 209 -70l-49 -82q-80 56 -162 56q-44 0 -71 -20t-27 -52q0 -27 24 -49t60.5 -36.5t78.5 -34t78.5 -40.5 t60.5 -58t24 -85q0 -82 -63 -131t-165 -49q-63 0 -130.5 24t-106.5 58zM653 846l131 629h125l144 -453l139 453h125l135 -629h-117l-92 485l-149 -485h-86l-148 481l-92 -481h-115z" />
<glyph unicode="&#x2122;" horiz-adv-x="1570" d="M123 1370v105h518v-105h-205v-524h-108v524h-205zM651 846l131 629h125l142 -453l141 453h123l135 -629h-117l-92 481l-147 -481h-88l-146 481l-94 -481h-113z" />
<glyph unicode="&#x215b;" horiz-adv-x="1511" d="M55 0l1108 1475h123l-1108 -1475h-123zM61 1309q70 14 136 54.5t108 111.5h98v-805h-131v614q-74 -64 -184 -78zM866 231q0 73 39.5 127t108.5 84q-96 57 -96 166q0 89 69 148t178 59q108 0 178 -59.5t70 -147.5q0 -109 -96 -166q67 -30 106 -85t39 -126 q0 -110 -82.5 -177.5t-214.5 -67.5q-133 0 -216 67.5t-83 177.5zM997 244q0 -66 47.5 -104t120.5 -38t120.5 38.5t47.5 103.5q0 66 -47 104.5t-121 38.5q-73 0 -120.5 -38.5t-47.5 -104.5zM1030 592q0 -48 38.5 -80.5t96.5 -32.5t95.5 32.5t37.5 80.5t-37.5 81.5t-95.5 33.5 t-96.5 -33.5t-38.5 -81.5z" />
<glyph unicode="&#x215c;" horiz-adv-x="1667" d="M47 750l64 100q102 -74 217 -74q73 0 120.5 35.5t47.5 91.5q0 64 -59 100.5t-163 36.5v88q86 0 137.5 35.5t51.5 89.5q0 47 -38.5 79.5t-98.5 33.5q-96 0 -191 -70l-57 97q123 92 256 92q112 0 186 -60.5t74 -156.5q0 -119 -117 -176q68 -27 110 -78t42 -123 q0 -103 -82 -169.5t-213 -66.5q-159 0 -287 95zM211 0l1108 1475h123l-1108 -1475h-123zM1022 231q0 73 39.5 127t107.5 84q-96 57 -96 166q0 89 69.5 148t178.5 59q108 0 178 -59.5t70 -147.5q0 -109 -96 -166q67 -30 106 -85t39 -126q0 -110 -82.5 -177.5t-214.5 -67.5 q-133 0 -216 67.5t-83 177.5zM1153 244q0 -66 47.5 -104t120.5 -38t120.5 38.5t47.5 103.5q0 66 -47 104.5t-121 38.5q-73 0 -120.5 -38.5t-47.5 -104.5zM1186 592q0 -48 38.5 -80.5t96.5 -32.5t95.5 32.5t37.5 80.5t-37.5 81.5t-95.5 33.5t-96.5 -33.5t-38.5 -81.5z" />
<glyph unicode="&#x215d;" horiz-adv-x="1660" d="M47 758l70 98q51 -39 99 -59.5t108 -20.5q73 0 119 41.5t46 108.5t-46 108t-119 41q-80 0 -152 -51l-94 53l115 398h378v-111h-290l-62 -211q67 27 121 27q125 0 204 -72.5t79 -185.5q0 -112 -81.5 -188.5t-211.5 -76.5q-158 0 -283 101zM205 0l1108 1475h123 l-1108 -1475h-123zM1016 231q0 73 39.5 127t107.5 84q-96 57 -96 166q0 89 69.5 148t178.5 59q108 0 178 -59.5t70 -147.5q0 -108 -97 -166q67 -30 106.5 -85t39.5 -126q0 -110 -82.5 -177.5t-214.5 -67.5q-133 0 -216 67.5t-83 177.5zM1147 244q0 -66 47.5 -104t120.5 -38 t120.5 38.5t47.5 103.5q0 66 -47 104.5t-121 38.5q-73 0 -120.5 -38.5t-47.5 -104.5zM1180 592q0 -48 38.5 -80.5t96.5 -32.5t95.5 32.5t37.5 80.5t-37.5 81.5t-95.5 33.5t-96.5 -33.5t-38.5 -81.5z" />
<glyph unicode="&#x215e;" horiz-adv-x="1652" d="M47 1362v113h569v-78q-116 -133 -177 -299t-64 -424h-133q5 379 219 688h-414zM197 0l1108 1475h122l-1108 -1475h-122zM1008 231q0 73 39.5 127t107.5 84q-96 57 -96 166q0 89 69.5 148t178.5 59q108 0 177.5 -59t69.5 -148q0 -109 -96 -166q67 -30 106.5 -85t39.5 -126 q0 -110 -82.5 -177.5t-214.5 -67.5q-133 0 -216 67.5t-83 177.5zM1139 244q0 -66 47.5 -104t120.5 -38t120.5 38.5t47.5 103.5q0 66 -47 104.5t-121 38.5q-73 0 -120.5 -38.5t-47.5 -104.5zM1171 592q0 -48 39 -80.5t97 -32.5t95.5 32.5t37.5 80.5t-37.5 81.5t-95.5 33.5 t-97 -33.5t-39 -81.5z" />
<glyph unicode="&#x2190;" horiz-adv-x="1011" d="M164 694v11l573 550l111 -114l-467 -443l467 -442l-111 -113z" />
<glyph unicode="&#x2191;" horiz-adv-x="1441" d="M164 483l551 574h10l551 -574l-113 -110l-442 467l-442 -467z" />
<glyph unicode="&#x2192;" horiz-adv-x="1011" d="M164 256l467 442l-467 443l110 114l574 -550v-11l-574 -551z" />
<glyph unicode="&#x2193;" horiz-adv-x="1441" d="M164 842l115 110l442 -467l442 467l113 -110l-551 -574h-10z" />
<glyph unicode="&#x2194;" horiz-adv-x="1882" d="M164 694v11l573 550l111 -114l-467 -443l467 -442l-111 -113zM1034 256l467 442l-467 443l111 114l573 -550v-11l-573 -551z" />
<glyph unicode="&#x2195;" horiz-adv-x="1378" d="M164 530l108 105l414 -438l416 438l106 -105l-518 -538h-8zM164 942l518 539h8l518 -539l-106 -104l-416 438l-414 -438z" />
<glyph unicode="&#x2196;" horiz-adv-x="1128" d="M158 328v796l6 6h801v-151h-656v-651h-151z" />
<glyph unicode="&#x2197;" horiz-adv-x="1134" d="M164 979v151h801l6 -6v-796h-152v651h-655z" />
<glyph unicode="&#x2198;" horiz-adv-x="1128" d="M164 328v151h655v651h152v-796l-6 -6h-801z" />
<glyph unicode="&#x2199;" horiz-adv-x="1128" d="M158 334v796h151v-651h656v-151h-801z" />
<glyph unicode="&#x2202;" horiz-adv-x="1306" d="M119 506q0 150 68.5 270.5t186 187t259.5 66.5q123 0 225 -60.5t162 -170.5q-24 105 -69.5 201.5t-115.5 187t-173 166t-230 123.5l64 135q137 -57 251.5 -143t195 -186.5t136.5 -214.5t82.5 -229.5t26.5 -228.5q0 -128 -34.5 -240t-100 -199t-170 -137t-236.5 -50h-2 q-147 0 -267 66.5t-189.5 186t-69.5 269.5zM307 506q0 -87 29.5 -158.5t78 -116.5t108 -69.5t122.5 -24.5q134 0 236 99.5t102 269.5q0 87 -29.5 158.5t-77.5 116t-107.5 68t-123.5 23.5q-63 0 -122.5 -23.5t-108 -68t-78 -116t-29.5 -158.5z" />
<glyph unicode="&#x2205;" horiz-adv-x="1411" d="M123 0l153 168q-149 165 -149 393q0 116 43.5 221.5t118.5 184.5t184.5 125.5t233.5 46.5q202 0 354 -117l86 94h141l-151 -166q71 -77 109 -178t38 -211q0 -156 -73 -287t-206 -209.5t-298 -78.5q-199 0 -353 112l-90 -98h-141zM262 561q0 -167 107 -293l602 656 q-117 86 -264 86q-127 0 -229.5 -61.5t-159 -164t-56.5 -223.5zM444 197q114 -84 263 -84q127 0 229 62t157.5 164t55.5 222q0 170 -102 291z" />
<glyph unicode="&#x220f;" horiz-adv-x="1581" d="M172 1311v164h1237v-164h-252v-1577h-184v1577h-365v-1577h-184v1577h-252z" />
<glyph unicode="&#x2211;" horiz-adv-x="1368" d="M172 -129l567 733l-567 733l2 138h1022v-164h-786l540 -701v-12l-540 -700h786v-164h-1022z" />
<glyph unicode="&#x2212;" horiz-adv-x="1435" d="M172 522v119h1092v-119h-1092z" />
<glyph unicode="&#x221a;" horiz-adv-x="1454" d="M172 641h184l144 -688l323 1522h459v-166h-317l-357 -1577h-217z" />
<glyph unicode="&#x221e;" horiz-adv-x="2072" d="M172 641q0 103 48.5 192.5t141.5 145t211 55.5q72 0 138 -22t123.5 -64t104 -88.5t97.5 -109.5q51 63 97.5 109.5t104 88.5t123.5 64t138 22q89 0 165.5 -32.5t127.5 -87t80 -125.5t29 -148q0 -162 -112 -277.5t-290 -115.5q-72 0 -138 22.5t-123.5 65.5t-103.5 89 t-98 110q-52 -64 -98 -110t-103.5 -89t-123.5 -65.5t-138 -22.5q-178 0 -289.5 115.5t-111.5 277.5zM324 643q0 -105 74 -177.5t186 -72.5q57 0 107.5 19.5t96 58.5t78.5 77t76 95q-43 56 -76 93.5t-78.5 76t-96 57.5t-107.5 19q-112 0 -186 -70.5t-74 -175.5zM1130 643 q45 -59 77 -94.5t78 -76t96.5 -60t107.5 -19.5q112 0 186 72.5t74 177.5t-74 175.5t-186 70.5q-57 0 -107.5 -19t-96 -58t-78.5 -75.5t-77 -93.5z" />
<glyph unicode="&#x222b;" horiz-adv-x="866" d="M12 -268l51 153q76 -32 136 -32q139 3 145 184v1149q0 143 83.5 222t209.5 79q121 0 217 -47l-49 -154q-84 35 -141 35q-134 -3 -134 -186l2 -1129q0 -150 -86 -234.5t-225 -84.5q-114 0 -209 45z" />
<glyph unicode="&#x2248;" horiz-adv-x="1427" d="M172 350q88 205 313 205q65 0 131.5 -23t112.5 -50.5t104 -50.5t109 -23q143 0 207 131l108 -43q-95 -205 -315 -205q-64 0 -128.5 23t-109.5 50.5t-105 50.5t-114 23q-139 0 -202 -129zM172 735q91 203 313 203q52 0 103.5 -15t93 -36t82 -42.5t86.5 -36.5t92 -15 q144 0 207 129l108 -41q-91 -205 -315 -205q-65 0 -132 22.5t-113 50t-104 50t-108 22.5q-139 0 -202 -129z" />
<glyph unicode="&#x2260;" horiz-adv-x="1503" d="M172 336v119h399l174 268h-573v119h649l219 338h121l-219 -338h322v-119h-400l-174 -268h574v-119h-652l-217 -336h-119l218 336h-322z" />
<glyph unicode="&#x2264;" horiz-adv-x="1437" d="M172 106v119h1092v-119h-1092zM172 721v133l1094 336v-127l-942 -277l942 -276v-127z" />
<glyph unicode="&#x2265;" horiz-adv-x="1437" d="M172 383v127l942 276l-942 277v127l1094 -336v-133zM174 106v119h1092v-119h-1092z" />
<glyph unicode="&#x25ca;" horiz-adv-x="1284" d="M104 737l443 748h190l443 -748h-2l-441 -747h-190l-441 747h-2zM305 737l338 -594l336 594l-336 594z" />
<glyph unicode="&#x25fc;" horiz-adv-x="1024" d="M0 0v1024h1024v-1024h-1024z" />
<glyph unicode="&#x2e18;" horiz-adv-x="1003" d="M41 -31q0 88 31.5 162.5t87.5 127.5t127.5 89t156.5 53l11 256h125l24 -708h-176l12 311q-114 -37 -178.5 -106.5t-64.5 -171.5q0 -126 92.5 -199.5t224.5 -73.5q95 0 196 45.5t173 120.5l80 -129q-83 -85 -198.5 -141t-252.5 -56q-199 0 -335 118t-136 302zM397 940 q0 51 36 87t87 36q50 0 85.5 -36t35.5 -87q0 -49 -35.5 -84t-85.5 -35q-51 0 -87 35t-36 84z" />
<glyph horiz-adv-x="524" d="M143 1335q0 49 34.5 83t84.5 34q48 0 83.5 -34t35.5 -83t-35.5 -82.5t-83.5 -33.5q-50 0 -84.5 33.5t-34.5 82.5zM172 0v1028h180v-1028h-180z" />
<glyph horiz-adv-x="1249" d="M86 514q0 102 27 190t73 150t108 106.5t131 65.5t142 21q111 0 199.5 -48.5t148.5 -124.5l15 162h164v-182h2v-672h-2v-182h-164l-15 150q-57 -74 -147 -121t-201 -47q-92 0 -177 34.5t-153.5 99t-109.5 168t-41 230.5zM272 514q0 -92 29 -166.5t77 -121t106.5 -71 t119.5 -24.5q185 0 309 172v418q-123 174 -309 174q-61 0 -119.5 -24.5t-106.5 -70.5t-77 -120.5t-29 -165.5z" />
<glyph horiz-adv-x="1249" d="M86 514q0 102 27 190t73 150t108 106.5t131 65.5t142 21q111 0 199.5 -48.5t148.5 -124.5l15 162h164v-182h2v-672h-2v-182h-164l-15 150q-57 -74 -147 -121t-201 -47q-92 0 -177 34.5t-153.5 99t-109.5 168t-41 230.5zM272 514q0 -92 29 -166.5t77 -121t106.5 -71 t119.5 -24.5q185 0 309 172v418q-123 174 -309 174q-61 0 -119.5 -24.5t-106.5 -70.5t-77 -120.5t-29 -165.5zM555 1182l162 309h201l-199 -309h-164z" />
<glyph horiz-adv-x="1249" d="M86 514q0 102 27 190t73 150t108 106.5t131 65.5t142 21q111 0 199.5 -48.5t148.5 -124.5l15 162h164v-182h2v-672h-2v-182h-164l-15 150q-57 -74 -147 -121t-201 -47q-92 0 -177 34.5t-153.5 99t-109.5 168t-41 230.5zM272 514q0 -92 29 -166.5t77 -121t106.5 -71 t119.5 -24.5q185 0 309 172v418q-123 174 -309 174q-61 0 -119.5 -24.5t-106.5 -70.5t-77 -120.5t-29 -165.5zM367 1501h125q1 -79 44.5 -124.5t102.5 -45.5q62 0 105 45t44 125h125q-1 -135 -81.5 -213t-192.5 -78t-191.5 78t-80.5 213z" />
<glyph horiz-adv-x="1249" d="M86 514q0 102 27 190t73 150t108 106.5t131 65.5t142 21q111 0 199.5 -48.5t148.5 -124.5l15 162h164v-182h2v-672h-2v-182h-164l-15 150q-57 -74 -147 -121t-201 -47q-92 0 -177 34.5t-153.5 99t-109.5 168t-41 230.5zM272 514q0 -92 29 -166.5t77 -121t106.5 -71 t119.5 -24.5q185 0 309 172v418q-123 174 -309 174q-61 0 -119.5 -24.5t-106.5 -70.5t-77 -120.5t-29 -165.5zM313 1188l254 299h142l254 -299h-168l-158 207l-158 -207h-166z" />
<glyph horiz-adv-x="1249" d="M86 514q0 102 27 190t73 150t108 106.5t131 65.5t142 21q111 0 199.5 -48.5t148.5 -124.5l15 162h164v-182h2v-672h-2v-182h-164l-15 150q-57 -74 -147 -121t-201 -47q-92 0 -177 34.5t-153.5 99t-109.5 168t-41 230.5zM272 514q0 -92 29 -166.5t77 -121t106.5 -71 t119.5 -24.5q185 0 309 172v418q-123 174 -309 174q-61 0 -119.5 -24.5t-106.5 -70.5t-77 -120.5t-29 -165.5zM385 1331q0 41 29 68.5t69 27.5q39 0 68 -28t29 -68q0 -41 -29 -69.5t-68 -28.5q-40 0 -69 28.5t-29 69.5zM698 1331q0 40 29 68t68 28q40 0 69 -27.5t29 -68.5 t-29 -69.5t-69 -28.5q-39 0 -68 28.5t-29 69.5z" />
<glyph horiz-adv-x="1249" d="M86 514q0 102 27 190t73 150t108 106.5t131 65.5t142 21q111 0 199.5 -48.5t148.5 -124.5l15 162h164v-182h2v-672h-2v-182h-164l-15 150q-57 -74 -147 -121t-201 -47q-92 0 -177 34.5t-153.5 99t-109.5 168t-41 230.5zM272 514q0 -92 29 -166.5t77 -121t106.5 -71 t119.5 -24.5q185 0 309 172v418q-123 174 -309 174q-61 0 -119.5 -24.5t-106.5 -70.5t-77 -120.5t-29 -165.5zM358 1499h201l162 -309h-164z" />
<glyph horiz-adv-x="1249" d="M86 514q0 102 27 190t73 150t108 106.5t131 65.5t142 21q111 0 199.5 -48.5t148.5 -124.5l15 162h164v-182h2v-672h-2v-182h-164l-15 150q-57 -74 -147 -121t-201 -47q-92 0 -177 34.5t-153.5 99t-109.5 168t-41 230.5zM272 514q0 -92 29 -166.5t77 -121t106.5 -71 t119.5 -24.5q185 0 309 172v418q-123 174 -309 174q-61 0 -119.5 -24.5t-106.5 -70.5t-77 -120.5t-29 -165.5zM367 1311v123h540v-123h-540z" />
<glyph horiz-adv-x="1249" d="M86 514q0 102 27 190t73 150t108 106.5t131 65.5t142 21q111 0 199.5 -48.5t148.5 -124.5l15 162h164v-182h2v-672h-2v-182h2q-68 -70 -97.5 -116.5t-29.5 -98.5q0 -37 25 -60.5t59 -23.5q50 0 104 31l47 -113q-74 -53 -184 -53q-82 0 -139.5 49t-57.5 133q0 119 148 252 h-41l-15 150q-57 -74 -147 -121t-201 -47q-92 0 -177 34.5t-153.5 99t-109.5 168t-41 230.5zM272 514q0 -92 29 -166.5t77 -121t106.5 -71t119.5 -24.5q185 0 309 172v418q-123 174 -309 174q-61 0 -119.5 -24.5t-106.5 -70.5t-77 -120.5t-29 -165.5z" />
<glyph horiz-adv-x="1249" d="M86 514q0 102 27 190t73 150t108 106.5t131 65.5t142 21q111 0 199.5 -48.5t148.5 -124.5l15 162h164v-182h2v-672h-2v-182h-164l-15 150q-57 -74 -147 -121t-201 -47q-92 0 -177 34.5t-153.5 99t-109.5 168t-41 230.5zM272 514q0 -92 29 -166.5t77 -121t106.5 -71 t119.5 -24.5q185 0 309 172v418q-123 174 -309 174q-61 0 -119.5 -24.5t-106.5 -70.5t-77 -120.5t-29 -165.5zM434 1354q0 88 61.5 145t143.5 57q84 0 145.5 -57t61.5 -145q0 -90 -61 -146.5t-146 -56.5q-83 0 -144 57t-61 146zM530 1354q0 -49 33 -82t76 -33q45 0 78 32.5 t33 82.5t-32.5 82t-78.5 32q-43 0 -76 -32.5t-33 -81.5z" />
<glyph horiz-adv-x="1316" d="M123 737q0 190 41.5 337.5t115.5 238.5t170 137.5t209 46.5t209 -46.5t169.5 -137.5t115 -238.5t41.5 -337.5t-41.5 -337.5t-115 -238.5t-169.5 -137.5t-209 -46.5t-209 46.5t-170 137.5t-115.5 238.5t-41.5 337.5zM313 737q0 -282 92.5 -434.5t253.5 -152.5 q160 0 252.5 153t92.5 434q0 279 -93 433.5t-252 154.5q-160 0 -253 -154.5t-93 -433.5z" />
<glyph horiz-adv-x="823" d="M104 1262q106 23 207.5 78.5t159.5 138.5h147v-1479h-184v1235q-122 -88 -293 -123z" />
<glyph horiz-adv-x="1140" d="M82 0v41q4 104 33 192.5t75 152.5t104 119t121 98t126 82.5t120 79.5t100.5 82.5t69 98.5t25.5 121q0 117 -81 192.5t-210 75.5q-195 0 -381 -190l-94 137q219 223 492 223q202 0 334.5 -124.5t132.5 -313.5q0 -77 -23.5 -144t-64 -118t-93 -97t-111.5 -85.5t-119 -77.5 t-116.5 -79t-102.5 -84.5t-78.5 -99t-43.5 -118.5h762v-164h-977z" />
<glyph horiz-adv-x="1204" d="M104 156l99 141q167 -150 370 -150q145 0 239.5 76t94.5 193q0 132 -112 207t-314 75v142q174 -1 273.5 70.5t99.5 183.5q0 101 -80 166t-203 65q-176 0 -340 -147l-90 135q207 182 445 182q199 0 328.5 -107t129.5 -276q0 -115 -62.5 -202t-162.5 -132q123 -43 202 -141 t79 -238q0 -185 -145 -303.5t-367 -118.5q-286 0 -484 179z" />
<glyph horiz-adv-x="1210" d="M47 449q137 219 253 490.5t185 535.5h195q-71 -262 -182 -528t-230 -458h506v535h184v-535h203v-163h-203v-326h-184v326h-702z" />
<glyph horiz-adv-x="1157" d="M82 162l104 141q176 -151 371 -151q140 0 234 87t94 220t-94 220t-234 87q-145 0 -291 -111l-129 72l182 750l181 -2h483v-164h-522l-109 -447q108 60 232 60q219 0 355 -132t136 -335q0 -205 -140 -340t-370 -135q-272 0 -483 180z" />
<glyph horiz-adv-x="1216" d="M123 717q0 192 42.5 341.5t118 242.5t175.5 141t219 49q195 0 371 -100l-72 -154q-142 86 -285 86q-178 0 -276.5 -146.5t-102.5 -433.5q62 81 155.5 131t201.5 50q204 0 332 -132t128 -333q0 -206 -135 -344t-340 -138q-238 0 -385 192.5t-147 547.5zM322 565 q23 -210 110.5 -314t224.5 -104q124 0 204.5 90t80.5 220q0 127 -78 218t-215 91q-97 0 -182.5 -53t-144.5 -148z" />
<glyph horiz-adv-x="1105" d="M41 1311v164h1024v-134q-88 -102 -156 -196t-137.5 -222t-115.5 -260t-76 -303t-33 -360h-199q18 725 506 1311h-813z" />
<glyph horiz-adv-x="1259" d="M104 418q0 136 75 238t202 155q-90 49 -142.5 130t-52.5 183q0 161 126.5 268t316.5 107t315 -106.5t125 -268.5q0 -102 -51 -183.5t-141 -129.5q127 -53 202.5 -155t75.5 -238q0 -201 -148 -324t-378 -123t-377.5 122.5t-147.5 324.5zM295 428q0 -134 97 -213.5 t237 -79.5q142 0 239 80t97 213q0 131 -97.5 212t-238.5 81q-138 0 -236 -81t-98 -212zM369 1106q0 -98 74.5 -163.5t185.5 -65.5q112 0 187 65.5t75 163.5t-75 164.5t-187 66.5q-110 0 -185 -66.5t-75 -164.5z" />
<glyph horiz-adv-x="1216" d="M86 1014q0 206 135 343.5t340 137.5q238 0 385.5 -192.5t147.5 -546.5q0 -192 -42.5 -341.5t-118 -242.5t-175.5 -141t-219 -49q-195 0 -371 100l72 154q142 -86 284 -86q178 0 276.5 146t102.5 433q-62 -81 -155 -130.5t-201 -49.5q-135 0 -241 61t-163 167t-57 237z M274 1016q0 -127 78 -218t215 -91q98 0 183.5 53t144.5 147q-23 210 -110.5 314t-225.5 104q-124 0 -204.5 -89.5t-80.5 -219.5z" />
<glyph horiz-adv-x="1230" d="M123 512q0 131 39 235t107 170t156.5 101t190.5 35q101 0 189.5 -35t156 -101t107 -170.5t39.5 -234.5t-39 -233.5t-107 -169t-156.5 -100t-189.5 -34.5q-102 0 -190.5 34.5t-156.5 100t-107 169t-39 233.5zM309 512q0 -175 84.5 -278t222.5 -103q137 0 221.5 103 t84.5 278q0 176 -84.5 280.5t-221.5 104.5q-138 0 -222.5 -104t-84.5 -281z" />
<glyph horiz-adv-x="815" d="M104 823q253 59 361 211h145v-1034h-182v805q-121 -87 -289 -121z" />
<glyph horiz-adv-x="1124" d="M82 0v43q6 88 36 157.5t75 115.5t102 81t118.5 58t122 43t115 39.5t96.5 42.5t66.5 58t24.5 81q0 87 -78.5 137.5t-188.5 50.5q-97 0 -199.5 -43t-191.5 -119l-78 125q95 83 218 134t258 51q122 0 221.5 -37t162 -114.5t62.5 -184.5q0 -69 -27.5 -123.5t-73 -89t-106 -64 t-125 -48.5t-131.5 -44t-124 -49.5t-103.5 -64t-69.5 -89.5h778v-147h-960z" />
<glyph horiz-adv-x="1173" d="M104 -164l80 129q192 -135 391 -135q144 0 232 71t88 181q0 120 -102.5 185.5t-300.5 66.5v139q170 0 263 59.5t93 155.5q0 91 -77 150t-196 59q-177 0 -352 -125l-69 131q86 65 197 106.5t224 41.5q191 0 314 -97t123 -247q0 -101 -59.5 -179t-159.5 -114 q124 -38 201 -128t77 -216q0 -175 -140 -284.5t-356 -109.5q-143 0 -263.5 44.5t-207.5 115.5z" />
<glyph horiz-adv-x="1163" d="M47 123q161 227 270 441.5t175 463.5h176q-117 -444 -414 -876h473v499h176v-499h211v-152h-211v-315h-176v315h-657z" />
<glyph horiz-adv-x="1153" d="M82 -158l88 135q94 -76 187.5 -118.5t211.5 -42.5q151 0 242.5 86t91.5 219q0 120 -91 205.5t-243 85.5q-158 0 -303 -109l-121 64l174 661h652v-151h-527l-102 -388q121 68 244 68q222 0 353.5 -125t131.5 -311q0 -194 -136.5 -325.5t-365.5 -131.5q-261 0 -487 178z " />
<glyph horiz-adv-x="1214" d="M123 715q0 191 45 341t123 243t178 141t215 49q198 0 371 -98l-66 -140q-141 84 -291 84q-180 0 -286 -156.5t-107 -457.5q61 86 158 140t207 54q200 0 329 -132.5t129 -331.5q0 -200 -134 -338t-339 -138q-237 0 -384.5 195t-147.5 545zM315 555q25 -210 117 -318 t223 -108q127 0 210 94.5t83 227.5q0 81 -32.5 150.5t-102.5 116t-164 46.5q-99 0 -186 -55.5t-148 -153.5z" />
<glyph horiz-adv-x="1079" d="M41 879v149h997v-131q-66 -68 -108 -115.5t-100.5 -122.5t-96 -140.5t-79 -159.5t-65.5 -191t-40.5 -223t-18.5 -267h-190q2 167 29 318t71 273t109 234.5t135.5 201t157.5 174.5h-801z" />
<glyph horiz-adv-x="1259" d="M104 416q0 137 76 239.5t205 155.5q-90 48 -141 128.5t-51 182.5q0 161 124.5 268t311.5 107t311.5 -107t124.5 -268q0 -102 -51.5 -182t-141.5 -129q129 -53 206 -155.5t77 -239.5q0 -200 -147 -321.5t-379 -121.5q-230 0 -377.5 121.5t-147.5 321.5zM283 428 q0 -137 101 -219t245 -82q146 0 246 82.5t100 218.5t-101 219.5t-245 83.5q-142 0 -244 -84t-102 -219zM356 1104q0 -102 78.5 -171t194.5 -69q117 0 194.5 68.5t77.5 171.5q0 102 -77.5 170.5t-194.5 68.5q-116 0 -194.5 -69t-78.5 -170z" />
<glyph horiz-adv-x="1200" d="M86 604q0 123 60 226.5t168.5 165t242.5 61.5q112 0 206 -44.5t164.5 -130t110 -220.5t39.5 -306q0 -152 -41.5 -280.5t-113.5 -215.5t-169.5 -136t-209.5 -50q-204 -3 -373 93l66 137q134 -78 292 -78q170 0 269.5 146t101.5 378q-61 -88 -152.5 -142t-203.5 -54 q-205 0 -331 127t-126 323zM266 604q0 -122 79.5 -212.5t217.5 -90.5q100 0 183 55.5t143 157.5q-26 197 -116 293t-218 96q-126 0 -207.5 -88.5t-81.5 -210.5z" />
<glyph horiz-adv-x="1316" d="M123 737q0 190 41.5 337.5t115.5 238.5t170 137.5t209 46.5t209 -46.5t169.5 -137.5t115 -238.5t41.5 -337.5t-41.5 -337.5t-115 -238.5t-169.5 -137.5t-209 -46.5t-209 46.5t-170 137.5t-115.5 238.5t-41.5 337.5zM313 737q0 -282 92.5 -434.5t253.5 -152.5 q160 0 252.5 153t92.5 434q0 279 -93 433.5t-252 154.5q-160 0 -253 -154.5t-93 -433.5z" />
<glyph horiz-adv-x="706" d="M104 1309l31 166h367v-1475h-185v1309h-213z" />
<glyph horiz-adv-x="1142" d="M82 1096q37 169 168.5 284t322.5 115q209 0 338 -125.5t129 -318.5q0 -53 -11 -103t-36.5 -98.5t-48.5 -86t-65 -85.5t-68 -75.5t-74 -76.5l-362 -358h686v-168h-961v125l525 528q54 59 84 95t68 90.5t55.5 106.5t17.5 106q0 115 -78.5 193.5t-200.5 78.5 q-119 0 -204 -76t-117 -196z" />
<glyph horiz-adv-x="1212" d="M104 268l138 109q51 -106 145 -168t215 -62q141 0 229.5 76.5t88.5 200.5q0 129 -105.5 207t-271.5 78h-56v147h58q138 0 224.5 66.5t86.5 175.5q0 98 -71.5 164.5t-186.5 66.5q-95 0 -174 -49t-135 -127l-113 115q71 102 182.5 165.5t249.5 63.5q188 0 309 -109 t121 -270q0 -113 -58 -197t-151 -130q123 -42 202 -141.5t79 -235.5q0 -189 -141.5 -310.5t-360.5 -121.5q-174 0 -303.5 74.5t-200.5 211.5z" />
<glyph horiz-adv-x="1173" d="M47 307v137l643 1035h234v-1008h200v-164h-200v-307h-185v307h-692zM254 471h485v797z" />
<glyph horiz-adv-x="1189" d="M82 305l141 103q49 -114 148.5 -185t226.5 -71q138 0 227.5 89t89.5 222q0 134 -89.5 222.5t-233.5 88.5q-146 0 -279 -104l-151 75l207 730h641v-166h-512l-127 -441q121 62 239 62q114 0 209.5 -39.5t157 -105.5t95.5 -149.5t34 -172.5q0 -204 -141.5 -342.5 t-362.5 -138.5q-181 0 -318.5 89.5t-201.5 233.5z" />
<glyph horiz-adv-x="1171" d="M86 467v2q0 54 11.5 110t26.5 99t44.5 101.5t48.5 92t57 95.5l299 508h218l-353 -555q82 30 168 30q142 0 258.5 -64t182 -174.5t65.5 -242.5q0 -99 -38 -189t-105 -157t-163.5 -106.5t-207.5 -39.5q-147 0 -264.5 67t-182 178.5t-65.5 244.5zM276 467q0 -131 94 -225.5 t230 -94.5t229 94.5t93 225.5q0 130 -92 224.5t-230 94.5t-231 -94.5t-93 -224.5z" />
<glyph horiz-adv-x="1079" d="M41 1309v166h1028v-25l-678 -1450h-209l639 1309h-780z" />
<glyph horiz-adv-x="1206" d="M104 422q0 129 68 232t188 157q-83 50 -128.5 129.5t-45.5 179.5q0 158 119.5 267.5t298.5 109.5t298.5 -109.5t119.5 -267.5q0 -100 -46.5 -180.5t-129.5 -128.5q120 -55 189 -157.5t69 -231.5q0 -194 -141 -321.5t-359 -127.5q-219 0 -359.5 127.5t-140.5 321.5z M295 432q0 -121 88 -204t221 -83q132 0 219.5 83t87.5 204t-87.5 205t-219.5 84t-220.5 -84t-88.5 -205zM362 1100q0 -94 69.5 -161t172.5 -67q104 0 172 67t68 161q0 93 -68 160t-172 67q-103 0 -172.5 -67.5t-69.5 -159.5z" />
<glyph horiz-adv-x="1171" d="M59 1006q0 99 38 189t105 156.5t163.5 106t207.5 39.5q147 0 264.5 -67t182 -178t65.5 -244v-2q0 -54 -11.5 -110t-26.5 -99t-44.5 -101.5t-48.5 -92t-57 -95.5l-299 -508h-217l352 555q-85 -31 -168 -31q-215 0 -360.5 140t-145.5 342zM250 1008q0 -131 91.5 -225.5 t229.5 -94.5t231 95t93 225q0 131 -94 225t-230 94t-228.5 -94t-92.5 -225z" />
<glyph d="M80 737q0 190 41.5 337.5t115.5 238.5t170 137.5t209 46.5t209 -46.5t169.5 -137.5t115 -238.5t41.5 -337.5t-41.5 -337.5t-115 -238.5t-169.5 -137.5t-209 -46.5t-209 46.5t-170 137.5t-115.5 238.5t-41.5 337.5zM270 737q0 -282 92.5 -434.5t253.5 -152.5 q160 0 252.5 153t92.5 434q0 279 -93 433.5t-252 154.5q-160 0 -253 -154.5t-93 -433.5z" />
<glyph d="M246 1262q105 23 206 78.5t160 138.5h148v-1479h-185v1235q-122 -88 -292 -123z" />
<glyph d="M131 0v41q4 104 33 192.5t75 152.5t104 119t121 98t126 82.5t120 79.5t100.5 82.5t69 98.5t25.5 121q0 117 -81 192.5t-210 75.5q-195 0 -381 -190l-94 137q219 223 492 223q202 0 334.5 -124.5t132.5 -313.5q0 -77 -23.5 -144t-64 -118t-93 -97t-111.5 -85.5t-119 -77.5 t-116.5 -79t-102.5 -84.5t-78.5 -99t-43.5 -118.5h762v-164h-977z" />
<glyph d="M119 156l98 141q167 -150 371 -150q145 0 239.5 76t94.5 193q0 132 -112 207t-314 75v142q174 -1 273 70.5t99 183.5q0 101 -79.5 166t-202.5 65q-176 0 -340 -147l-90 135q207 182 444 182q199 0 329 -107t130 -276q0 -115 -62.5 -202t-162.5 -132q122 -43 201 -141 t79 -238q0 -185 -145 -303.5t-367 -118.5q-285 0 -483 179z" />
<glyph d="M55 449q138 220 254.5 491.5t184.5 534.5h194q-71 -262 -182 -528t-230 -458h506v535h185v-535h202v-163h-202v-326h-185v326h-702z" />
<glyph d="M117 162l104 141q176 -151 371 -151q140 0 234 87t94 220t-94 220t-234 87q-145 0 -291 -111l-129 72l182 750l181 -2h483v-164h-522l-109 -447q108 60 231 60q219 0 355.5 -132t136.5 -335q0 -205 -140 -340t-370 -135q-272 0 -483 180z" />
<glyph d="M117 717q0 192 42.5 341.5t118 242.5t175.5 141t219 49q194 0 370 -100l-71 -154q-142 86 -285 86q-178 0 -276.5 -146.5t-102.5 -433.5q62 81 155.5 131t201.5 50q204 0 332 -132t128 -333q0 -206 -135 -344t-340 -138q-238 0 -385 192.5t-147 547.5zM315 565 q23 -210 110.5 -314t225.5 -104q124 0 204.5 90t80.5 220q0 127 -78 218t-215 91q-97 0 -183 -53t-145 -148z" />
<glyph d="M102 1311v164h1024v-134q-88 -102 -156 -196t-137.5 -222t-115.5 -260t-76 -303t-33 -360h-198q18 726 505 1311h-813z" />
<glyph d="M90 418q0 136 75 238t202 155q-90 49 -142.5 130t-52.5 183q0 161 126 268t316 107t315.5 -107t125.5 -268q0 -102 -51.5 -183.5t-141.5 -129.5q127 -53 203 -155.5t76 -237.5q0 -201 -148.5 -324t-378.5 -123t-377 122.5t-147 324.5zM281 428q0 -134 96.5 -213.5 t236.5 -79.5q142 0 239 80t97 213q0 131 -97.5 212t-238.5 81q-138 0 -235.5 -81t-97.5 -212zM354 1106q0 -98 74.5 -163.5t185.5 -65.5q113 0 188 65.5t75 163.5t-75.5 164.5t-187.5 66.5q-110 0 -185 -66.5t-75 -164.5z" />
<glyph d="M111 1014q0 206 135 343.5t340 137.5q116 0 213 -47.5t168 -138.5t111 -232.5t40 -320.5q0 -192 -42.5 -341.5t-118 -242.5t-175.5 -141t-219 -49q-194 0 -370 100l71 154q142 -86 285 -86q178 0 276.5 146t102.5 433q-62 -81 -155.5 -130.5t-201.5 -49.5 q-204 0 -332 132t-128 333zM299 1016q0 -127 78 -218t215 -91q98 0 183.5 53t144.5 147q-23 210 -110.5 314t-225.5 104q-124 0 -204.5 -89.5t-80.5 -219.5z" />
<glyph d="M129 512q0 130 39.5 234.5t107.5 170.5t156.5 101t190.5 35q101 0 189 -35t156 -101t107 -170.5t39 -234.5t-39 -233.5t-107 -169t-156 -100t-189 -34.5q-102 0 -190.5 34.5t-156.5 100t-107.5 169t-39.5 233.5zM315 512q0 -175 85 -278t223 -103q137 0 221 103t84 278 q0 177 -84 281t-221 104q-138 0 -223 -104t-85 -281z" />
<glyph d="M268 823q253 59 361 211h145v-1034h-182v805q-121 -87 -289 -121z" />
<glyph d="M141 0v43q6 88 36 157.5t75 115.5t102 81t118.5 58t122 43t115 39.5t96.5 42.5t66.5 58t24.5 81q0 87 -78 137.5t-188 50.5q-97 0 -199.5 -43t-191.5 -119l-78 125q95 83 217.5 134t257.5 51q122 0 221.5 -37t162 -114.5t62.5 -184.5q0 -69 -27.5 -123.5t-73 -89 t-106 -64t-124.5 -48.5t-131 -44t-124 -49.5t-103.5 -64t-69.5 -89.5h778v-147h-961z" />
<glyph d="M127 -164l80 129q192 -135 391 -135q144 0 232 71t88 181q0 120 -103 185.5t-301 66.5v139q170 0 263 59.5t93 155.5q0 91 -77 150t-195 59q-177 0 -352 -125l-70 131q86 65 197 106.5t225 41.5q191 0 313.5 -97t122.5 -247q0 -101 -59.5 -179t-159.5 -114 q124 -39 201.5 -128.5t77.5 -215.5q0 -175 -140 -284.5t-356 -109.5q-143 0 -263.5 44.5t-207.5 115.5z" />
<glyph d="M80 123q160 226 269 440.5t175 464.5h176q-117 -447 -413 -876h473v499h176v-499h211v-152h-211v-315h-176v315h-658z" />
<glyph d="M121 -158l88 135q94 -76 187.5 -118.5t211.5 -42.5q151 0 242.5 86t91.5 219q0 120 -91 205.5t-243 85.5q-158 0 -303 -109l-121 64l174 661h652v-151h-527l-102 -388q121 68 244 68q222 0 353.5 -125t131.5 -311q0 -194 -136.5 -325.5t-365.5 -131.5q-261 0 -487 178z " />
<glyph d="M121 715q0 191 45 341t123 243t178 141t215 49q198 0 371 -98l-66 -140q-141 84 -291 84q-180 0 -286 -156.5t-107 -457.5q61 86 158 140t207 54q200 0 329 -132.5t129 -331.5q0 -200 -134 -338t-339 -138q-237 0 -384.5 195t-147.5 545zM313 555q25 -210 117 -318 t223 -108q127 0 210 94.5t83 227.5q0 81 -32.5 150.5t-102.5 116t-164 46.5q-99 0 -186 -55.5t-148 -153.5z" />
<glyph d="M84 879v149h997v-131q-66 -68 -108 -115.5t-100.5 -122.5t-96 -140.5t-79 -159.5t-65.5 -191t-40.5 -223t-18.5 -267h-190q2 167 29 318t71 273t109 234.5t135.5 201t157.5 174.5h-801z" />
<glyph d="M90 416q0 137 76 239.5t205 155.5q-90 49 -141.5 129t-51.5 182q0 161 124.5 268t311.5 107q188 0 312.5 -107t124.5 -268q0 -102 -51.5 -182t-141.5 -129q129 -53 206 -155.5t77 -239.5q0 -200 -147.5 -321.5t-379.5 -121.5q-230 0 -377 121.5t-147 321.5zM268 428 q0 -137 101 -219t245 -82q146 0 246.5 82.5t100.5 218.5q0 135 -101.5 219t-245.5 84q-142 0 -244 -84t-102 -219zM342 1104q0 -103 78 -171.5t194 -68.5q117 0 195 68.5t78 171.5q0 102 -78 170.5t-195 68.5q-115 0 -193.5 -69t-78.5 -170z" />
<glyph d="M80 604q0 123 60 226.5t168.5 165t242.5 61.5q112 0 206 -44.5t164.5 -130t110 -220.5t39.5 -306q0 -152 -41.5 -280.5t-113.5 -215.5t-169.5 -136t-209.5 -50q-204 -3 -373 93l65 137q134 -78 293 -78q170 0 269.5 146t101.5 378q-61 -88 -152.5 -142t-203.5 -54 q-205 0 -331 127t-126 323zM260 604q0 -122 79.5 -212.5t217.5 -90.5q100 0 183 55.5t143 157.5q-26 197 -116 293t-218 96q-126 0 -207.5 -88.5t-81.5 -210.5z" />
<glyph horiz-adv-x="710" d="M47 102q0 198 87 307t222 109q134 0 221 -109t87 -307q0 -195 -87 -303t-221 -108q-135 0 -222 108t-87 303zM186 104q0 -136 45.5 -211t124.5 -75t123.5 74.5t44.5 211.5t-44.5 212t-123.5 75t-124.5 -75.5t-45.5 -211.5z" />
<glyph horiz-adv-x="522" d="M61 344q70 14 136 54.5t108 111.5h98v-805h-131v614q-72 -63 -184 -77z" />
<glyph horiz-adv-x="684" d="M49 389q140 129 301 129q117 0 196 -65.5t79 -176.5q0 -51 -19 -93.5t-50.5 -72.5t-70.5 -56t-81 -51t-79.5 -50t-68.5 -60t-45 -75h426v-113h-586v12q7 79 34.5 142t66.5 102.5t85 71.5t90 56.5t80.5 49t59 57t22.5 72.5q0 56 -41 91.5t-108 35.5q-117 0 -221 -100z" />
<glyph horiz-adv-x="677" d="M47 -215l64 100q100 -73 217 -73q73 0 120.5 35.5t47.5 91.5q0 64 -59 100.5t-163 36.5v88q86 0 137.5 35.5t51.5 89.5q0 47 -38.5 79t-98.5 33q-97 0 -191 -69l-57 96q123 92 256 92q112 0 186 -60.5t74 -156.5q0 -119 -117 -176q68 -27 110 -78t42 -123 q0 -103 -82 -169t-213 -66q-160 0 -287 94z" />
<glyph horiz-adv-x="768" d="M47 -63q74 113 142 276.5t92 292.5h131q-27 -128 -83.5 -272.5t-121.5 -258.5h262v277h127v-277h123v-112h-123v-158h-127v158h-403z" />
<glyph horiz-adv-x="671" d="M47 -209l70 98q51 -39 99 -59t108 -20q73 0 119 41t46 108t-46 108.5t-119 41.5q-78 0 -152 -52l-94 54l115 397h378v-111h-290l-62 -211q67 27 121 27q125 0 204 -72.5t79 -185.5q0 -112 -81 -188t-212 -76q-159 0 -283 100z" />
<glyph horiz-adv-x="673" d="M47 94q0 194 87 308t231 114q109 0 208 -57l-45 -103q-71 47 -157 47q-87 0 -137.5 -75.5t-55.5 -208.5q75 86 193 86q111 0 183.5 -70t72.5 -178q0 -110 -76 -188t-193 -78q-142 0 -226.5 105t-84.5 298zM184 10q12 -93 57 -146.5t115 -53.5q64 0 103 44.5t39 108.5 q0 63 -39 104.5t-105 41.5q-51 0 -95.5 -26.5t-74.5 -72.5z" />
<glyph horiz-adv-x="663" d="M47 393v113h569v-78q-116 -133 -177 -299t-64 -424h-133q5 379 219 688h-414z" />
<glyph horiz-adv-x="692" d="M47 -63q0 72 39.5 126t108.5 84q-97 58 -97 166q0 89 69.5 148t178.5 59q108 0 178 -59.5t70 -147.5q0 -109 -96 -166q67 -30 106 -84.5t39 -125.5q0 -110 -82.5 -178t-214.5 -68t-215.5 68t-83.5 178zM178 -51q0 -66 47.5 -104t120.5 -38t120.5 38.5t47.5 103.5 q0 66 -47 104.5t-121 38.5q-73 0 -120.5 -38.5t-47.5 -104.5zM211 297q0 -48 38.5 -80.5t96.5 -32.5t95.5 32.5t37.5 80.5t-37.5 81.5t-95.5 33.5t-96.5 -33.5t-38.5 -81.5z" />
<glyph horiz-adv-x="673" d="M47 260q0 110 75.5 188t192.5 78q143 0 227.5 -105t84.5 -298q0 -194 -87 -308t-231 -114q-110 0 -209 57l45 103q71 -47 158 -47t137.5 75.5t55.5 208.5q-75 -86 -193 -86q-111 0 -183.5 70t-72.5 178zM176 254q0 -63 38.5 -104t104.5 -41q105 0 170 98q-12 93 -57 147 t-115 54q-64 0 -102.5 -45t-38.5 -109z" />
<glyph horiz-adv-x="710" d="M47 397q0 198 87 307t222 109q134 0 221 -109t87 -307q0 -195 -87 -303t-221 -108q-135 0 -222 108t-87 303zM186 399q0 -136 45.5 -211t124.5 -75t123.5 74.5t44.5 211.5t-44.5 212t-123.5 75t-124.5 -75.5t-45.5 -211.5z" />
<glyph horiz-adv-x="522" d="M61 639q70 14 136 54.5t108 111.5h98v-805h-131v614q-72 -63 -184 -77z" />
<glyph horiz-adv-x="684" d="M49 684q140 129 301 129q117 0 196 -65.5t79 -176.5q0 -51 -19 -93.5t-50.5 -72.5t-70.5 -56t-81 -51t-79.5 -50t-68.5 -60t-45 -75h426v-113h-586v12q7 79 34.5 142t66.5 102.5t85 71.5t90 56.5t80.5 49t59 57t22.5 72.5q0 56 -41 91.5t-108 35.5q-117 0 -221 -100z" />
<glyph horiz-adv-x="677" d="M47 80l64 100q102 -74 217 -74q73 0 120.5 35.5t47.5 91.5q0 65 -59 101.5t-163 36.5v88q86 0 137.5 35.5t51.5 89.5q0 47 -38.5 79t-98.5 33q-97 0 -191 -69l-57 96q123 92 256 92q112 0 186 -60.5t74 -156.5q0 -119 -117 -176q68 -27 110 -78t42 -123q0 -103 -82 -169 t-213 -66q-160 0 -287 94z" />
<glyph horiz-adv-x="768" d="M47 231q74 113 142 277t92 293h131q-27 -128 -83.5 -272.5t-121.5 -258.5h262v277h127v-277h123v-112h-123v-158h-127v158h-403z" />
<glyph horiz-adv-x="671" d="M47 86l70 98q51 -39 99 -59.5t108 -20.5q73 0 119 41.5t46 108.5t-46 108t-119 41q-80 0 -152 -51l-94 54l115 397h378v-111h-290l-62 -211q68 27 121 27q125 0 204 -72.5t79 -185.5q0 -112 -81 -188t-212 -76q-159 0 -283 100z" />
<glyph horiz-adv-x="673" d="M47 389q0 194 87 308t231 114q109 0 208 -57l-45 -103q-71 47 -157 47q-87 0 -137.5 -75.5t-55.5 -208.5q75 86 193 86q111 0 183.5 -70t72.5 -178q0 -110 -76 -188t-193 -78q-142 0 -226.5 105t-84.5 298zM184 305q12 -93 57 -147t115 -54q64 0 103 45t39 109 q0 63 -39 104t-105 41q-105 0 -170 -98z" />
<glyph horiz-adv-x="663" d="M47 688v113h569v-78q-116 -133 -177 -299t-64 -424h-133q5 379 219 688h-414z" />
<glyph horiz-adv-x="692" d="M47 231q0 73 39.5 127t108.5 84q-97 58 -97 166q0 89 69.5 148t178.5 59q108 0 178 -59.5t70 -147.5q0 -109 -96 -166q67 -30 106 -85t39 -126q0 -110 -82.5 -177.5t-214.5 -67.5q-133 0 -216 67.5t-83 177.5zM178 244q0 -66 47.5 -104t120.5 -38t120.5 38.5t47.5 103.5 q0 66 -47 104.5t-121 38.5q-73 0 -120.5 -38.5t-47.5 -104.5zM211 592q0 -48 38.5 -80.5t96.5 -32.5t95.5 32.5t37.5 80.5t-37.5 81.5t-95.5 33.5t-96.5 -33.5t-38.5 -81.5z" />
<glyph horiz-adv-x="673" d="M47 547q0 110 75.5 188t192.5 78q143 0 227.5 -105t84.5 -298q0 -194 -87 -308t-231 -114q-110 0 -209 57l45 102q71 -47 158 -47t137.5 76t55.5 209q-75 -86 -193 -86q-111 0 -183.5 70t-72.5 178zM176 541q0 -63 38.5 -104.5t104.5 -41.5q51 0 95.5 26.5t74.5 72.5 q-12 93 -57 146.5t-115 53.5q-64 0 -102.5 -44.5t-38.5 -108.5z" />
<glyph horiz-adv-x="710" d="M47 1077q0 198 87 307t222 109q134 0 221 -109t87 -307q0 -195 -87 -303t-221 -108q-135 0 -222 108t-87 303zM186 1079q0 -136 45.5 -211t124.5 -75t123.5 74.5t44.5 211.5t-44.5 212t-123.5 75t-124.5 -75.5t-45.5 -211.5z" />
<glyph horiz-adv-x="522" d="M61 1309q70 14 136 54.5t108 111.5h98v-805h-131v614q-74 -64 -184 -78z" />
<glyph horiz-adv-x="684" d="M49 1352q140 129 301 129q117 0 196 -65.5t79 -176.5q0 -59 -26 -107.5t-65.5 -79t-89 -62t-94.5 -58t-83.5 -66.5t-55.5 -86h426v-112h-586v12q7 79 34.5 142t66.5 102.5t85 71.5t90 56.5t80.5 49t59 57t22.5 72.5q0 56 -41 91.5t-108 35.5q-116 0 -221 -101z" />
<glyph horiz-adv-x="677" d="M47 750l64 100q102 -74 217 -74q73 0 120.5 35.5t47.5 91.5q0 64 -59 100.5t-163 36.5v88q86 0 137.5 35.5t51.5 89.5q0 47 -38.5 79.5t-98.5 33.5q-96 0 -191 -70l-57 97q123 92 256 92q112 0 186 -60.5t74 -156.5q0 -119 -117 -176q68 -27 110 -78t42 -123 q0 -103 -82 -169.5t-213 -66.5q-159 0 -287 95z" />
<glyph horiz-adv-x="768" d="M47 905q74 113 142 277t92 293h131q-27 -128 -83.5 -272.5t-121.5 -258.5h262v277h127v-277h123v-113h-123v-157h-127v157h-403z" />
<glyph horiz-adv-x="671" d="M47 758l70 98q51 -39 99 -59.5t108 -20.5q73 0 119 41.5t46 108.5t-46 108t-119 41q-80 0 -152 -51l-94 53l115 398h378v-111h-290l-62 -211q67 27 121 27q125 0 204 -72.5t79 -185.5q0 -112 -81.5 -188.5t-211.5 -76.5q-158 0 -283 101z" />
<glyph horiz-adv-x="673" d="M47 1065q0 194 87 308t231 114q109 0 208 -57l-45 -103q-71 47 -157 47q-87 0 -137.5 -75.5t-55.5 -208.5q75 86 193 86q111 0 183.5 -70t72.5 -178q0 -110 -76 -188t-193 -78q-142 0 -226.5 105t-84.5 298zM184 981q12 -93 57 -147t115 -54q64 0 103 45t39 109 q0 63 -39 104t-105 41q-105 0 -170 -98z" />
<glyph horiz-adv-x="663" d="M47 1362v113h569v-78q-116 -133 -177 -299t-64 -424h-133q5 379 219 688h-414z" />
<glyph horiz-adv-x="692" d="M47 905q0 73 39.5 127t108.5 84q-97 58 -97 166q0 89 69.5 148t178.5 59q108 0 178 -59.5t70 -147.5q0 -109 -96 -166q67 -30 106 -85t39 -126q0 -110 -82.5 -178t-214.5 -68t-215.5 68t-83.5 178zM178 918q0 -66 47.5 -104t120.5 -38t120.5 38.5t47.5 103.5 q0 66 -47 104.5t-121 38.5q-73 0 -120.5 -38.5t-47.5 -104.5zM211 1266q0 -48 38.5 -80.5t96.5 -32.5t95.5 32.5t37.5 80.5t-37.5 81t-95.5 33t-96.5 -33t-38.5 -81z" />
<glyph horiz-adv-x="673" d="M47 1225q0 110 75.5 188t192.5 78q143 0 227.5 -105.5t84.5 -298.5t-87 -307t-231 -114q-110 0 -209 57l45 102q71 -47 158 -47t137.5 76t55.5 209q-75 -86 -193 -86q-111 0 -183.5 70t-72.5 178zM176 1219q0 -63 38.5 -104.5t104.5 -41.5q105 0 170 98q-12 93 -57 147 t-115 54q-64 0 -102.5 -44.5t-38.5 -108.5z" />
<glyph horiz-adv-x="710" d="M47 1264q0 198 87 306.5t222 108.5q134 0 221 -108.5t87 -306.5q0 -195 -87.5 -303.5t-220.5 -108.5q-135 0 -222 108.5t-87 303.5zM186 1266q0 -136 45.5 -211.5t124.5 -75.5t123.5 75t44.5 212t-44.5 211.5t-123.5 74.5t-124.5 -75t-45.5 -211z" />
<glyph horiz-adv-x="522" d="M61 1513q70 14 136 54.5t108 111.5h98v-805h-131v615q-74 -64 -184 -78z" />
<glyph horiz-adv-x="684" d="M49 1556q141 130 301 130q117 0 196 -65.5t79 -176.5q0 -59 -26 -107.5t-65.5 -79t-89 -62t-94.5 -58t-83.5 -66.5t-55.5 -86h426v-113h-586v13q7 79 34.5 142t66.5 102.5t85 71.5t90 56.5t80.5 49t59 57t22.5 72.5q0 56 -41 91.5t-108 35.5q-116 0 -221 -101z" />
<glyph horiz-adv-x="677" d="M47 954l64 101q102 -74 217 -74q73 0 120.5 35.5t47.5 91.5q0 64 -59 100.5t-163 36.5v88q86 0 137.5 35.5t51.5 89.5q0 47 -38.5 79.5t-98.5 33.5q-96 0 -191 -70l-57 96q125 93 256 93q112 0 186 -60.5t74 -156.5q0 -120 -117 -177q68 -27 110 -77.5t42 -122.5 q0 -103 -82 -169.5t-213 -66.5q-160 0 -287 94z" />
<glyph horiz-adv-x="768" d="M47 1106q74 113 142 276.5t92 292.5h131q-27 -127 -83.5 -271.5t-121.5 -258.5h262v276h127v-276h123v-113h-123v-158h-127v158h-403z" />
<glyph horiz-adv-x="671" d="M47 963l70 98q51 -39 99 -59.5t108 -20.5q73 0 119 41t46 108t-46 108.5t-119 41.5q-80 0 -152 -51l-94 53l115 397h378v-110h-290l-62 -211q65 26 121 26q125 0 204 -72.5t79 -185.5q0 -112 -81 -188t-212 -76q-158 0 -283 101z" />
<glyph horiz-adv-x="673" d="M47 1270q0 194 87 308t231 114q107 0 208 -58l-45 -102q-71 47 -157 47q-87 0 -137.5 -76t-55.5 -209q75 86 193 86q111 0 183.5 -69.5t72.5 -177.5q0 -110 -76 -188.5t-193 -78.5q-142 0 -226.5 105.5t-84.5 298.5zM184 1186q12 -93 57 -147t115 -54q64 0 103 45t39 109 q0 63 -39 104t-105 41q-105 0 -170 -98z" />
<glyph horiz-adv-x="663" d="M47 1567v112h569v-77q-116 -133 -177 -299t-64 -424h-133q5 379 219 688h-414z" />
<glyph horiz-adv-x="692" d="M47 1110q0 73 39.5 127t108.5 84q-97 58 -97 166q0 89 69.5 148t178.5 59q108 0 178 -59.5t70 -147.5q0 -109 -96 -166q67 -30 106 -85t39 -126q0 -110 -82.5 -178t-214.5 -68t-215.5 68t-83.5 178zM178 1122q0 -66 47.5 -103.5t120.5 -37.5q74 0 121 38t47 103 q0 66 -47 105t-121 39q-72 0 -120 -39t-48 -105zM211 1470q0 -48 38.5 -80t96.5 -32t95.5 32t37.5 80t-37.5 81.5t-95.5 33.5t-96.5 -33.5t-38.5 -81.5z" />
<glyph horiz-adv-x="673" d="M47 1434q0 110 75.5 188t192.5 78q143 0 227.5 -105.5t84.5 -298.5q0 -194 -87 -308t-231 -114q-108 0 -209 58l45 102q71 -47 158 -47t137.5 76t55.5 209q-75 -86 -193 -86q-111 0 -183.5 70t-72.5 178zM176 1427q0 -63 38.5 -104t104.5 -41q105 0 170 98 q-12 93 -57 147t-115 54q-64 0 -102.5 -45t-38.5 -109z" />
<glyph horiz-adv-x="763" d="M20 1657h166l555 -1866h-163z" />
<glyph horiz-adv-x="413" d="M86 764q0 49 35.5 84t85.5 35q51 0 87 -35t36 -84q0 -51 -36 -87t-87 -36q-50 0 -85.5 36t-35.5 87z" />
<glyph horiz-adv-x="632" d="M74 819q0 112 81.5 192.5t194.5 80.5q117 0 200 -80t83 -193q0 -117 -83 -199.5t-200 -82.5q-113 0 -194.5 82.5t-81.5 199.5z" />
<glyph horiz-adv-x="585" d="M170 348q0 49 35.5 84t85.5 35q51 0 87 -35t36 -84q0 -51 -36 -87t-87 -36q-50 0 -85.5 36t-35.5 87zM170 1096q0 49 35.5 83.5t85.5 34.5q51 0 87 -34.5t36 -83.5q0 -51 -36 -87t-87 -36q-50 0 -85.5 36t-35.5 87z" />
<glyph horiz-adv-x="585" d="M170 1370q0 51 35.5 87t85.5 36q51 0 87 -36t36 -87q0 -49 -36 -84t-87 -35q-50 0 -85.5 35t-35.5 84zM190 4l33 1086h139l33 -1086h-205z" />
<glyph horiz-adv-x="1003" d="M41 397q0 88 31.5 162.5t87.5 127.5t127.5 89t156.5 53l11 256h125l24 -708h-176l12 311q-114 -37 -178.5 -106.5t-64.5 -171.5q0 -126 92.5 -199.5t224.5 -73.5q95 0 196 45.5t173 120.5l80 -129q-83 -85 -198.5 -141t-252.5 -56q-199 0 -335 118t-136 302zM397 1368 q0 51 36 87t87 36q50 0 85.5 -36t35.5 -87q0 -49 -35.5 -84t-85.5 -35q-51 0 -87 35t-36 84z" />
<glyph horiz-adv-x="978" d="M41 391q0 88 31.5 162t85.5 125t121 85t143 50l12 277h141l15 -383q-171 -22 -269 -103t-98 -205q0 -114 84 -185t203 -71q93 0 181.5 44t158.5 120l88 -131q-83 -86 -195.5 -142.5t-248.5 -56.5q-189 0 -321 115.5t-132 298.5zM379 1370q0 51 36 87t87 36q50 0 85.5 -36 t35.5 -87q0 -49 -35.5 -84t-85.5 -35q-51 0 -87 35t-36 84z" />
<glyph horiz-adv-x="763" d="M23 -209l555 1866h165l-557 -1866h-163z" />
<glyph horiz-adv-x="481" d="M102 -287l88 490h181l-129 -490h-140z" />
<glyph horiz-adv-x="524" d="M147 -287l89 490h180l-129 -490h-140zM154 866q0 49 35 84t85 35q51 0 87 -35t36 -84q0 -51 -36 -87t-87 -36q-50 0 -85 36t-35 87z" />
<glyph horiz-adv-x="413" d="M106 0v197h205v-217q0 -111 -29.5 -181.5t-113.5 -124.5l-57 66q52 44 73 92t21 113v55h-99z" />
<glyph horiz-adv-x="669" d="M143 715v12q113 85 113 227v371q0 177 92.5 272t280.5 95v-164q-94 -3 -141.5 -62t-47.5 -151v-361q0 -152 -104 -233q104 -78 104 -232v-329q0 -93 47.5 -152.5t141.5 -60.5v-166q-188 0 -280.5 94.5t-92.5 271.5v342q0 141 -113 226z" />
<glyph horiz-adv-x="669" d="M41 -53q94 1 141 60.5t47 152.5v329q0 153 105 232q-105 82 -105 233v361q0 92 -47 151t-141 62v164q188 0 280.5 -95t92.5 -272v-371q0 -143 112 -227v-12q-112 -84 -112 -226v-342q0 -177 -92.5 -271.5t-280.5 -94.5v166z" />
<glyph horiz-adv-x="747" d="M205 -233v1933h440v-164h-256v-1604h256v-165h-440z" />
<glyph horiz-adv-x="747" d="M102 -68h256v1604h-256v164h441v-1933h-441v165z" />
<glyph horiz-adv-x="616" d="M143 707q0 161 24.5 311.5t69 275t88 216t99.5 184.5l151 -76q-117 -213 -180.5 -429t-64.5 -482q1 -259 65 -474.5t180 -427.5l-151 -75q-281 468 -281 977z" />
<glyph horiz-adv-x="616" d="M41 -195q117 213 181 428t65 474q-1 266 -65 481.5t-181 429.5l152 76q56 -93 99.5 -184.5t87.5 -216t68.5 -274.5t24.5 -312q0 -510 -280 -977z" />
<glyph d="M418 707q0 162 24.5 312t68.5 274.5t87.5 216t99.5 184.5l152 -76q-117 -214 -181 -429.5t-65 -481.5q1 -259 65 -474t181 -428l-152 -75q-280 467 -280 977z" />
<glyph d="M379 -195q117 213 181 428t65 474q-1 266 -65 481.5t-181 429.5l151 76q56 -93 99.5 -184.5t88 -216t69 -275t24.5 -311.5q0 -509 -281 -977z" />
<glyph horiz-adv-x="1636" d="M86 686v150h1462v-150h-1462z" />
<glyph horiz-adv-x="1153" d="M86 692v144h981v-144h-981z" />
<glyph horiz-adv-x="825" d="M86 686v150h653v-150h-653z" />
<glyph d="M287 686v150h653v-150h-653z" />
<glyph horiz-adv-x="1288" d="M172 750v14l363 401h174l-379 -409l379 -410h-174zM582 750v14l362 401h174l-379 -409l379 -410h-174z" />
<glyph horiz-adv-x="1288" d="M170 346l379 410l-379 409h174l363 -401v-14l-363 -404h-174zM580 346l378 410l-378 409h174l362 -401v-14l-362 -404h-174z" />
<glyph horiz-adv-x="880" d="M172 750v14l363 401h174l-379 -409l379 -410h-174z" />
<glyph horiz-adv-x="880" d="M172 346l379 410l-379 409h174l363 -401v-14l-363 -404h-174z" />
<glyph horiz-adv-x="796" d="M102 -287l88 490h181l-129 -490h-140zM424 -287l88 490h180l-129 -490h-139z" />
<glyph horiz-adv-x="798" d="M98 985l129 490h140l-88 -490h-181zM432 985l129 490h139l-88 -490h-180z" />
<glyph horiz-adv-x="798" d="M98 985l88 490h181l-129 -490h-140zM432 985l88 490h180l-129 -490h-139z" />
<glyph horiz-adv-x="464" d="M98 985l129 490h140l-88 -490h-181z" />
<glyph horiz-adv-x="464" d="M98 985l88 490h181l-129 -490h-140z" />
<glyph horiz-adv-x="475" d="M102 -287l88 490h181l-129 -490h-140z" />
<glyph horiz-adv-x="716" d="M106 0v197h205v-217q0 -111 -29.5 -181.5t-113.5 -124.5l-57 66q52 44 73 92t21 113v55h-99zM408 0v197h204v-217q0 -111 -29.5 -181.5t-113.5 -124.5l-57 66q52 44 73 92t21 113v55h-98z" />
<glyph horiz-adv-x="712" d="M98 1020v217q0 110 30 180.5t114 124.5l57 -65q-52 -44 -73 -92t-21 -113v-55h98v-197h-205zM406 1020v217q0 110 29.5 180.5t113.5 124.5l57 -65q-52 -44 -73 -92t-21 -113v-55h98v-197h-204z" />
<glyph horiz-adv-x="710" d="M102 1313v196h205v-217q0 -110 -29.5 -180.5t-113.5 -124.5l-58 66q53 45 74 92t21 112v56h-99zM408 1313v196h204v-217q0 -110 -29.5 -180.5t-113.5 -124.5l-57 66q52 44 73 91.5t21 112.5v56h-98z" />
<glyph horiz-adv-x="405" d="M98 1020v217q0 110 30 180.5t114 124.5l57 -65q-52 -44 -73 -92t-21 -113v-55h98v-197h-205z" />
<glyph horiz-adv-x="405" d="M102 1313v196h205v-217q0 -110 -29.5 -180.5t-113.5 -124.5l-58 66q53 45 74 92t21 112v56h-99z" />
<glyph horiz-adv-x="413" d="M106 0v197h205v-217q0 -111 -29.5 -181.5t-113.5 -124.5l-57 66q52 44 73 92t21 113v55h-99z" />
<glyph />
<glyph horiz-adv-x="1126" d="M82 158l96 149q187 -162 387 -162q129 0 208.5 63.5t78.5 168.5q0 49 -25 92t-67 76.5t-96 65t-113.5 62t-119.5 63t-114 71.5t-95.5 83.5t-66 104.5t-24.5 129q0 144 103 245.5t264 123.5v180h108v-174q213 -11 402 -151l-93 -146q-172 129 -335 129 q-111 0 -183.5 -58.5t-72.5 -148.5q0 -54 31 -100.5t81.5 -80.5t115 -69.5t132 -67t132 -74t115 -89t82 -114t31.5 -146.5q1 -179 -122 -285.5t-316 -117.5v-170h-108v170q-126 11 -234.5 60.5t-181.5 117.5z" />
<glyph d="M168 741q0 101 30.5 187.5t82.5 148.5t120.5 106t146.5 65.5t159 21.5h22l37 205h78l-37 -213q139 -19 252 -111l-80 -129q-85 73 -199 88l-129 -739q30 -6 66 -6q149 0 262 92l80 -129q-145 -119 -352 -119q-41 0 -84 6l-37 -215h-78l41 231q-166 46 -273.5 178.5 t-107.5 331.5zM356 741q0 -131 61 -221t158 -129l127 723q-66 -2 -127 -27t-110.5 -70t-79 -116.5t-29.5 -159.5z" />
<glyph d="M66 299l170 170q-78 116 -78 260q0 153 86 270l-174 175l55 57l170 -170q136 127 317 127q87 0 170.5 -34t147.5 -97l174 174l55 -57l-176 -177q82 -116 82 -268q0 -143 -76 -256l174 -174l-55 -55l-168 168q-64 -67 -151 -103.5t-177 -36.5t-175.5 36t-149.5 102 l-166 -166zM324 729q0 -92 44 -162.5t108.5 -104.5t135.5 -34q70 0 135 34t109.5 104.5t44.5 162.5q0 137 -89 219t-200 82q-71 0 -135.5 -33.5t-108.5 -104t-44 -163.5z" />
<glyph d="M127 170l100 137q178 -147 359 -162v533q-43 20 -68 32t-65.5 33.5t-65 37t-58 40t-53.5 46t-43 51t-35 59.5t-20 66.5t-8 76.5q1 152 118.5 254t297.5 113v180h78v-178q206 -11 393 -152l-90 -133q-137 108 -303 119v-498q171 -77 238 -120q171 -108 196 -264 q4 -27 4 -56q0 -176 -120.5 -280.5t-317.5 -116.5v-172h-78v170q-129 4 -250.5 55t-208.5 129zM352 1118q0 -86 60.5 -144.5t173.5 -113.5v463q-105 -9 -169.5 -67t-64.5 -138zM664 147q123 10 192.5 73.5t69.5 160.5q-1 44 -20.5 82t-59 70.5t-80.5 56.5t-102 53v-496z" />
<glyph d="M51 569v76h142q-5 78 -5 92q0 21 5 103h-142v75h154q47 257 214.5 417.5t409.5 160.5q177 0 326 -96l-68 -150q-113 76 -247 76q-161 0 -279 -111t-160 -297h545l-31 -75h-526q-6 -50 -6 -103q0 -30 4 -92h444l-30 -76h-402q40 -190 159.5 -304.5t281.5 -114.5 q137 0 247 77l68 -151q-149 -96 -326 -96q-245 0 -413.5 164t-212.5 425h-152z" />
<glyph d="M119 27l51 151q74 -31 133 -31q67 1 102.5 46.5t49.5 138.5l63 438h-268v78h280l50 338q21 147 103 224t210 77q118 0 217 -47l-49 -152q-89 33 -139 33q-69 -1 -106.5 -46.5t-49.5 -137.5l-41 -289h338v-78h-348l-70 -491q-19 -139 -103.5 -218t-209.5 -79 q-118 0 -213 45z" />
<glyph d="M170 1094q0 118 60 211t160 142.5t220 49.5q248 0 463 -215l-92 -133q-84 82 -166 129t-178 47q-118 0 -196.5 -69.5t-78.5 -182.5q0 -60 25.5 -124t57.5 -112.5t68 -114.5t52 -122h377v-78h-362q2 -10 2 -30q0 -145 -152 -326h629v-166h-885l-2 111q225 202 225 381 q0 20 -2 30h-223v78h205q-16 48 -54 113t-70 115t-57.5 122t-25.5 144z" />
<glyph d="M10 1475h197l391 -732l391 732h197l-477 -875h356v-76h-371v-196h371v-76h-371v-252h-190v252h-334v76h334v196h-334v76h317z" />
<glyph horiz-adv-x="1460" d="M172 150v141l987 430l-987 428v141l1116 -502v-139z" />
<glyph horiz-adv-x="1460" d="M172 653v140l1116 501v-141l-987 -428l987 -430v-141z" />
<glyph horiz-adv-x="1722" d="M123 1153q0 148 100.5 244t239.5 96t240.5 -96t101.5 -244q0 -149 -101 -244.5t-241 -95.5q-139 0 -239.5 95.5t-100.5 244.5zM229 0l1131 1475h135l-1128 -1475h-138zM240 1153q0 -100 66 -163.5t157 -63.5t158 63.5t67 163.5q0 101 -67 165t-158 64t-157 -64t-66 -165z M918 317q0 148 100 244t239 96t240.5 -96t101.5 -244q0 -149 -101 -244.5t-241 -95.5q-139 0 -239 95t-100 245zM1034 317q0 -100 66 -163.5t157 -63.5t158.5 64t67.5 163q0 101 -67.5 165.5t-158.5 64.5t-157 -64.5t-66 -165.5z" />
<glyph horiz-adv-x="1441" d="M164 543l551 573h10l551 -573l-113 -111l-442 467l-442 -467z" />
<glyph horiz-adv-x="1187" d="M164 1012v151h801l6 -6v-797h-152v652h-655z" />
<glyph horiz-adv-x="1011" d="M164 303l467 442l-467 443l110 115l574 -551v-11l-574 -551z" />
<glyph horiz-adv-x="1181" d="M164 373v151h655v652h152v-797l-6 -6h-801z" />
<glyph horiz-adv-x="1441" d="M164 961l115 110l442 -467l442 467l113 -110l-551 -574h-10z" />
<glyph horiz-adv-x="1181" d="M158 379v797h151v-652h656v-151h-801z" />
<glyph horiz-adv-x="1011" d="M164 739v11l573 550l111 -114l-467 -443l467 -442l-111 -113z" />
<glyph horiz-adv-x="1181" d="M158 360v797l6 6h801v-151h-656v-652h-151z" />
<glyph horiz-adv-x="1882" d="M164 739v11l573 550l111 -114l-467 -443l467 -442l-111 -113zM1034 301l467 442l-467 443l111 114l573 -550v-11l-573 -551z" />
<glyph horiz-adv-x="1914" d="M104 727q0 150 44 284.5t123 238t185 179.5t235 116t267 40q174 0 330 -63t271.5 -174t183 -272.5t67.5 -348.5q0 -189 -95 -304.5t-242 -115.5q-92 0 -158.5 41.5t-93.5 122.5q-45 -76 -122 -120t-171 -44q-161 0 -273 115t-112 295q0 178 111.5 291.5t273.5 113.5 q82 0 154.5 -37.5t119.5 -99.5v111h127l-2 -484q0 -95 42.5 -144.5t107.5 -49.5q88 0 143 82.5t55 226.5q0 158 -56 296t-152.5 234.5t-228.5 151.5t-280 55t-280 -55t-228.5 -151.5t-153 -234.5t-56.5 -296q0 -159 56.5 -297.5t153 -234.5t228.5 -151.5t280 -55.5 q226 0 414 121l60 -117q-215 -125 -474 -125q-177 0 -333.5 63t-271.5 174.5t-182 273t-67 349.5zM680 717q0 -133 77.5 -216t196.5 -83q82 0 145.5 43t102.5 110v15v278q-40 66 -103.5 108t-144.5 42q-119 0 -196.5 -83t-77.5 -214z" />
<glyph horiz-adv-x="575" d="M205 -233v1933h166v-1933h-166z" />
<glyph horiz-adv-x="843" d="M82 610l80 111q113 -99 233 -111v332q-53 23 -83 37.5t-74 43t-67.5 56t-41.5 69.5t-18 91q0 102 79.5 172.5t204.5 79.5v158h60v-156q153 -12 278 -115l-71 -108q-107 79 -207 88v-291q37 -16 48 -20.5t46 -20.5t48 -24.5t41.5 -26.5t41 -31.5t31.5 -35t27.5 -42.5 t15 -48t6.5 -56q0 -121 -83 -197.5t-222 -85.5v-151h-60v151q-91 6 -174.5 41t-138.5 90zM262 1233q0 -44 34 -75.5t99 -63.5v264q-61 -7 -97 -42.5t-36 -82.5zM455 610q73 6 113 44.5t40 99.5q0 52 -39 88.5t-114 72.5v-305z" />
<glyph horiz-adv-x="843" d="M82 612l82 121q120 -108 258 -108q78 0 123 36.5t45 98.5q0 39 -26.5 71.5t-68.5 56.5t-92.5 47.5t-101.5 50.5t-93 59t-68.5 80.5t-26.5 107.5q0 104 79.5 176t206.5 82v182h68v-180q142 -11 270 -117l-80 -116q-110 81 -217 81q-70 0 -110.5 -31.5t-40.5 -80.5 q0 -37 26 -66.5t67.5 -51.5t91.5 -43.5t100.5 -48t92 -59t67.5 -82.5t26 -112q0 -120 -79.5 -197.5t-213.5 -89.5v-176h-68v174q-91 4 -176 41.5t-141 93.5z" />
<glyph horiz-adv-x="0" d="M-219 1176l72 360l147 -29l-106 -354z" />
</font>
</defs>
</svg>
